<svg width="771" height="174" viewBox="0 0 771 174" fill="none" xmlns="http://www.w3.org/2000/svg">
<g id="slider-nps">
<g id="Frame 1" filter="url(#filter0_d_49_4)">
<rect x="4" y="87" width="763" height="80" rx="26" fill="white" shape-rendering="crispEdges"/>
<g id="frame-Unacceptable">
<path d="M14 113C14 104.163 21.1634 97 30 97H148.2C152.618 97 156.2 100.582 156.2 105V149C156.2 153.418 152.618 157 148.2 157H30C21.1634 157 14 149.837 14 141V113Z" fill="#C4212A"/>
<text id="label" fill="white" xml:space="preserve" style="white-space: pre" font-family="Arial Rounded MT Bold" font-size="15" letter-spacing="0em"><tspan x="34.3432" y="132.515">Unacceptable</tspan></text>
</g>
<g id="frame-Good">
<rect x="164.2" y="97" width="142.2" height="60" rx="8" fill="#F06D44"/>
<text id="label2" fill="white" xml:space="preserve" style="white-space: pre" font-family="Arial Rounded MT Bold" font-size="15" letter-spacing="0em"><tspan x="215.605" y="132.515">Good</tspan></text>
</g>
<g id="frame-Favourable">
<rect x="314.4" y="97" width="142.2" height="60" rx="8" fill="#0E8743"/>
<text id="label3" fill="white" xml:space="preserve" style="white-space: pre" font-family="Arial Rounded MT Bold" font-size="15" letter-spacing="0em"><tspan x="345.319" y="132.515">Favourable</tspan></text>
</g>
<g id="frame-Excellent">
<rect x="464.6" y="97" width="142.2" height="60" rx="8" fill="#0E8743"/>
<text id="label3_2" fill="white" xml:space="preserve" style="white-space: pre" font-family="Arial Rounded MT Bold" font-size="15" letter-spacing="0em"><tspan x="502.331" y="132.515">Excellent</tspan></text>
</g>
<g id="frame-World-Class">
<path d="M614.8 105C614.8 100.582 618.382 97 622.8 97H741C749.836 97 757 104.163 757 113V141C757 149.837 749.836 157 741 157H622.8C618.382 157 614.8 153.418 614.8 149V105Z" fill="#0E8743"/>
<text id="label3_3" fill="white" xml:space="preserve" style="white-space: pre" font-family="Arial Rounded MT Bold" font-size="15" letter-spacing="0em"><tspan x="641.933" y="132.515">World-Class</tspan></text>
</g>
</g>
<g id="bubble-Unacceptable">
<g id="Union" filter="url(#filter1_d_49_4)">
<mask id="path-12-inside-1_49_4" fill="white">
<path d="M90.3337 102.512C86.3036 104.593 81.5148 104.593 77.4847 102.512L40.5755 83.4488C35.9226 81.0456 33 76.2467 33 71.0099V21C33 13.268 39.268 7 47 7H120.818C128.55 7 134.818 13.268 134.818 21V71.0099C134.818 76.2467 131.896 81.0456 127.243 83.4488L90.3337 102.512Z"/>
</mask>
<path d="M90.3337 102.512C86.3036 104.593 81.5148 104.593 77.4847 102.512L40.5755 83.4488C35.9226 81.0456 33 76.2467 33 71.0099V21C33 13.268 39.268 7 47 7H120.818C128.55 7 134.818 13.268 134.818 21V71.0099C134.818 76.2467 131.896 81.0456 127.243 83.4488L90.3337 102.512Z" fill="#C4212A"/>
<path d="M127.243 83.4488L123.572 76.3408L127.243 83.4488ZM40.5755 83.4488L44.2466 76.3408L40.5755 83.4488ZM90.3337 102.512L86.6625 95.404L90.3337 102.512ZM77.4847 102.512L81.1558 95.404L44.2466 76.3408L40.5755 83.4488L36.9043 90.5567L73.8135 109.62L77.4847 102.512ZM33 71.0099H41V21H33H25V71.0099H33ZM47 7V15H120.818V7V-1H47V7ZM134.818 21H126.818V71.0099H134.818H142.818V21H134.818ZM127.243 83.4488L123.572 76.3408L86.6625 95.404L90.3337 102.512L94.0049 109.62L130.914 90.5567L127.243 83.4488ZM134.818 71.0099H126.818C126.818 73.2542 125.566 75.3109 123.572 76.3408L127.243 83.4488L130.914 90.5567C138.226 86.7803 142.818 79.2391 142.818 71.0099H134.818ZM120.818 7V15C124.132 15 126.818 17.6863 126.818 21H134.818H142.818C142.818 8.84974 132.969 -1 120.818 -1V7ZM33 21H41C41 17.6863 43.6863 15 47 15V7V-1C34.8497 -1 25 8.84973 25 21H33ZM40.5755 83.4488L44.2466 76.3408C42.2526 75.3109 41 73.2542 41 71.0099H33H25C25 79.2391 29.5927 86.7804 36.9043 90.5567L40.5755 83.4488ZM77.4847 102.512L73.8135 109.62C80.1465 112.891 87.6718 112.891 94.0049 109.62L90.3337 102.512L86.6625 95.404C84.9354 96.296 82.883 96.296 81.1558 95.404L77.4847 102.512Z" fill="white" mask="url(#path-12-inside-1_49_4)"/>
</g>
<text id="score" fill="white" xml:space="preserve" style="white-space: pre" font-family="Arial Rounded MT Bold" font-size="36" letter-spacing="0em"><tspan x="48" y="56.1968">*sc*</tspan></text>
</g>
<g id="bubble-Good">
<g id="Union_2" filter="url(#filter2_d_49_4)">
<mask id="path-15-inside-2_49_4" fill="white">
<path d="M241.334 102.512C237.304 104.593 232.515 104.593 228.485 102.512L191.575 83.4488C186.923 81.0456 184 76.2467 184 71.0099V21C184 13.268 190.268 7 198 7H271.818C279.55 7 285.818 13.268 285.818 21V71.0099C285.818 76.2467 282.896 81.0456 278.243 83.4488L241.334 102.512Z"/>
</mask>
<path d="M241.334 102.512C237.304 104.593 232.515 104.593 228.485 102.512L191.575 83.4488C186.923 81.0456 184 76.2467 184 71.0099V21C184 13.268 190.268 7 198 7H271.818C279.55 7 285.818 13.268 285.818 21V71.0099C285.818 76.2467 282.896 81.0456 278.243 83.4488L241.334 102.512Z" fill="#F06D44"/>
<path d="M278.243 83.4488L274.572 76.3408L278.243 83.4488ZM191.575 83.4488L195.247 76.3408L191.575 83.4488ZM241.334 102.512L237.663 95.404L241.334 102.512ZM228.485 102.512L232.156 95.404L195.247 76.3408L191.575 83.4488L187.904 90.5567L224.814 109.62L228.485 102.512ZM184 71.0099H192V21H184H176V71.0099H184ZM198 7V15H271.818V7V-1H198V7ZM285.818 21H277.818V71.0099H285.818H293.818V21H285.818ZM278.243 83.4488L274.572 76.3408L237.663 95.404L241.334 102.512L245.005 109.62L281.914 90.5567L278.243 83.4488ZM285.818 71.0099H277.818C277.818 73.2542 276.566 75.3109 274.572 76.3408L278.243 83.4488L281.914 90.5567C289.226 86.7803 293.818 79.2391 293.818 71.0099H285.818ZM271.818 7V15C275.132 15 277.818 17.6863 277.818 21H285.818H293.818C293.818 8.84974 283.969 -1 271.818 -1V7ZM184 21H192C192 17.6863 194.686 15 198 15V7V-1C185.85 -1 176 8.84973 176 21H184ZM191.575 83.4488L195.247 76.3408C193.253 75.3109 192 73.2542 192 71.0099H184H176C176 79.2391 180.593 86.7804 187.904 90.5567L191.575 83.4488ZM228.485 102.512L224.814 109.62C231.147 112.891 238.672 112.891 245.005 109.62L241.334 102.512L237.663 95.404C235.935 96.296 233.883 96.296 232.156 95.404L228.485 102.512Z" fill="white" mask="url(#path-15-inside-2_49_4)"/>
</g>
<text id="score_2" fill="white" xml:space="preserve" style="white-space: pre" font-family="Arial Rounded MT Bold" font-size="36" letter-spacing="0em"><tspan x="199" y="56.1968">*sc*</tspan></text>
</g>
<g id="bubble-Favourable">
<g id="Union_3" filter="url(#filter3_d_49_4)">
<mask id="path-18-inside-3_49_4" fill="white">
<path d="M392.334 102.512C388.304 104.593 383.515 104.593 379.485 102.512L342.575 83.4488C337.923 81.0456 335 76.2467 335 71.0099V21C335 13.268 341.268 7 349 7H422.818C430.55 7 436.818 13.268 436.818 21V71.0099C436.818 76.2467 433.896 81.0456 429.243 83.4488L392.334 102.512Z"/>
</mask>
<path d="M392.334 102.512C388.304 104.593 383.515 104.593 379.485 102.512L342.575 83.4488C337.923 81.0456 335 76.2467 335 71.0099V21C335 13.268 341.268 7 349 7H422.818C430.55 7 436.818 13.268 436.818 21V71.0099C436.818 76.2467 433.896 81.0456 429.243 83.4488L392.334 102.512Z" fill="#0E8743"/>
<path d="M429.243 83.4488L425.572 76.3408L429.243 83.4488ZM342.575 83.4488L346.247 76.3408L342.575 83.4488ZM392.334 102.512L388.663 95.404L392.334 102.512ZM379.485 102.512L383.156 95.404L346.247 76.3408L342.575 83.4488L338.904 90.5567L375.814 109.62L379.485 102.512ZM335 71.0099H343V21H335H327V71.0099H335ZM349 7V15H422.818V7V-1H349V7ZM436.818 21H428.818V71.0099H436.818H444.818V21H436.818ZM429.243 83.4488L425.572 76.3408L388.663 95.404L392.334 102.512L396.005 109.62L432.914 90.5567L429.243 83.4488ZM436.818 71.0099H428.818C428.818 73.2542 427.566 75.3109 425.572 76.3408L429.243 83.4488L432.914 90.5567C440.226 86.7803 444.818 79.2391 444.818 71.0099H436.818ZM422.818 7V15C426.132 15 428.818 17.6863 428.818 21H436.818H444.818C444.818 8.84974 434.969 -1 422.818 -1V7ZM335 21H343C343 17.6863 345.686 15 349 15V7V-1C336.85 -1 327 8.84973 327 21H335ZM342.575 83.4488L346.247 76.3408C344.253 75.3109 343 73.2542 343 71.0099H335H327C327 79.2391 331.593 86.7804 338.904 90.5567L342.575 83.4488ZM379.485 102.512L375.814 109.62C382.147 112.891 389.672 112.891 396.005 109.62L392.334 102.512L388.663 95.404C386.935 96.296 384.883 96.296 383.156 95.404L379.485 102.512Z" fill="white" mask="url(#path-18-inside-3_49_4)"/>
</g>
<text id="score_3" fill="white" xml:space="preserve" style="white-space: pre" font-family="Arial Rounded MT Bold" font-size="36" letter-spacing="0em"><tspan x="350" y="56.1968">*sc*</tspan></text>
</g>
<g id="bubble-Excellent">
<g id="Union_4" filter="url(#filter4_d_49_4)">
<mask id="path-21-inside-4_49_4" fill="white">
<path d="M543.334 102.512C539.304 104.593 534.515 104.593 530.485 102.512L493.575 83.4488C488.923 81.0456 486 76.2467 486 71.0099V21C486 13.268 492.268 7 500 7H573.818C581.55 7 587.818 13.268 587.818 21V71.0099C587.818 76.2467 584.896 81.0456 580.243 83.4488L543.334 102.512Z"/>
</mask>
<path d="M543.334 102.512C539.304 104.593 534.515 104.593 530.485 102.512L493.575 83.4488C488.923 81.0456 486 76.2467 486 71.0099V21C486 13.268 492.268 7 500 7H573.818C581.55 7 587.818 13.268 587.818 21V71.0099C587.818 76.2467 584.896 81.0456 580.243 83.4488L543.334 102.512Z" fill="#0E8743"/>
<path d="M580.243 83.4488L576.572 76.3408L580.243 83.4488ZM493.575 83.4488L497.247 76.3408L493.575 83.4488ZM543.334 102.512L539.663 95.404L543.334 102.512ZM530.485 102.512L534.156 95.404L497.247 76.3408L493.575 83.4488L489.904 90.5567L526.814 109.62L530.485 102.512ZM486 71.0099H494V21H486H478V71.0099H486ZM500 7V15H573.818V7V-1H500V7ZM587.818 21H579.818V71.0099H587.818H595.818V21H587.818ZM580.243 83.4488L576.572 76.3408L539.663 95.404L543.334 102.512L547.005 109.62L583.914 90.5567L580.243 83.4488ZM587.818 71.0099H579.818C579.818 73.2542 578.566 75.3109 576.572 76.3408L580.243 83.4488L583.914 90.5567C591.226 86.7803 595.818 79.2391 595.818 71.0099H587.818ZM573.818 7V15C577.132 15 579.818 17.6863 579.818 21H587.818H595.818C595.818 8.84974 585.969 -1 573.818 -1V7ZM486 21H494C494 17.6863 496.686 15 500 15V7V-1C487.85 -1 478 8.84973 478 21H486ZM493.575 83.4488L497.247 76.3408C495.253 75.3109 494 73.2542 494 71.0099H486H478C478 79.2391 482.593 86.7804 489.904 90.5567L493.575 83.4488ZM530.485 102.512L526.814 109.62C533.147 112.891 540.672 112.891 547.005 109.62L543.334 102.512L539.663 95.404C537.935 96.296 535.883 96.296 534.156 95.404L530.485 102.512Z" fill="white" mask="url(#path-21-inside-4_49_4)"/>
</g>
<text id="score_4" fill="white" xml:space="preserve" style="white-space: pre" font-family="Arial Rounded MT Bold" font-size="36" letter-spacing="0em"><tspan x="501" y="56.1968">*sc*</tspan></text>
</g>
<g id="bubble-World-Class">
<g id="Union_5" filter="url(#filter5_d_49_4)">
<mask id="path-24-inside-5_49_4" fill="white">
<path d="M694.334 102.512C690.304 104.593 685.515 104.593 681.485 102.512L644.575 83.4488C639.923 81.0456 637 76.2467 637 71.0099V21C637 13.268 643.268 7 651 7H724.818C732.55 7 738.818 13.268 738.818 21V71.0099C738.818 76.2467 735.896 81.0456 731.243 83.4488L694.334 102.512Z"/>
</mask>
<path d="M694.334 102.512C690.304 104.593 685.515 104.593 681.485 102.512L644.575 83.4488C639.923 81.0456 637 76.2467 637 71.0099V21C637 13.268 643.268 7 651 7H724.818C732.55 7 738.818 13.268 738.818 21V71.0099C738.818 76.2467 735.896 81.0456 731.243 83.4488L694.334 102.512Z" fill="#0E8743"/>
<path d="M731.243 83.4488L727.572 76.3408L731.243 83.4488ZM644.575 83.4488L648.247 76.3408L644.575 83.4488ZM694.334 102.512L690.663 95.404L694.334 102.512ZM681.485 102.512L685.156 95.404L648.247 76.3408L644.575 83.4488L640.904 90.5567L677.814 109.62L681.485 102.512ZM637 71.0099H645V21H637H629V71.0099H637ZM651 7V15H724.818V7V-1H651V7ZM738.818 21H730.818V71.0099H738.818H746.818V21H738.818ZM731.243 83.4488L727.572 76.3408L690.663 95.404L694.334 102.512L698.005 109.62L734.914 90.5567L731.243 83.4488ZM738.818 71.0099H730.818C730.818 73.2542 729.566 75.3109 727.572 76.3408L731.243 83.4488L734.914 90.5567C742.226 86.7803 746.818 79.2391 746.818 71.0099H738.818ZM724.818 7V15C728.132 15 730.818 17.6863 730.818 21H738.818H746.818C746.818 8.84974 736.969 -1 724.818 -1V7ZM637 21H645C645 17.6863 647.686 15 651 15V7V-1C638.85 -1 629 8.84973 629 21H637ZM644.575 83.4488L648.247 76.3408C646.253 75.3109 645 73.2542 645 71.0099H637H629C629 79.2391 633.593 86.7804 640.904 90.5567L644.575 83.4488ZM681.485 102.512L677.814 109.62C684.147 112.891 691.672 112.891 698.005 109.62L694.334 102.512L690.663 95.404C688.935 96.296 686.883 96.296 685.156 95.404L681.485 102.512Z" fill="white" mask="url(#path-24-inside-5_49_4)"/>
</g>
<text id="score_5" fill="white" xml:space="preserve" style="white-space: pre" font-family="Arial Rounded MT Bold" font-size="36" letter-spacing="0em"><tspan x="652" y="56.1968">*sc*</tspan></text>
</g>
</g>
<defs>
<filter id="filter0_d_49_4" x="0" y="86" width="771" height="88" filterUnits="userSpaceOnUse" color-interpolation-filters="sRGB">
<feFlood flood-opacity="0" result="BackgroundImageFix"/>
<feColorMatrix in="SourceAlpha" type="matrix" values="0 0 0 0 0 0 0 0 0 0 0 0 0 0 0 0 0 0 127 0" result="hardAlpha"/>
<feOffset dy="3"/>
<feGaussianBlur stdDeviation="2"/>
<feComposite in2="hardAlpha" operator="out"/>
<feColorMatrix type="matrix" values="0 0 0 0 0 0 0 0 0 0 0 0 0 0 0 0 0 0 0.12 0"/>
<feBlend mode="normal" in2="BackgroundImageFix" result="effect1_dropShadow_49_4"/>
<feBlend mode="normal" in="SourceGraphic" in2="effect1_dropShadow_49_4" result="shape"/>
</filter>
<filter id="filter1_d_49_4" x="21" y="0" width="125.818" height="121.073" filterUnits="userSpaceOnUse" color-interpolation-filters="sRGB">
<feFlood flood-opacity="0" result="BackgroundImageFix"/>
<feColorMatrix in="SourceAlpha" type="matrix" values="0 0 0 0 0 0 0 0 0 0 0 0 0 0 0 0 0 0 127 0" result="hardAlpha"/>
<feOffset dy="5"/>
<feGaussianBlur stdDeviation="6"/>
<feComposite in2="hardAlpha" operator="out"/>
<feColorMatrix type="matrix" values="0 0 0 0 0 0 0 0 0 0 0 0 0 0 0 0 0 0 0.2 0"/>
<feBlend mode="normal" in2="BackgroundImageFix" result="effect1_dropShadow_49_4"/>
<feBlend mode="normal" in="SourceGraphic" in2="effect1_dropShadow_49_4" result="shape"/>
</filter>
<filter id="filter2_d_49_4" x="172" y="0" width="125.818" height="121.073" filterUnits="userSpaceOnUse" color-interpolation-filters="sRGB">
<feFlood flood-opacity="0" result="BackgroundImageFix"/>
<feColorMatrix in="SourceAlpha" type="matrix" values="0 0 0 0 0 0 0 0 0 0 0 0 0 0 0 0 0 0 127 0" result="hardAlpha"/>
<feOffset dy="5"/>
<feGaussianBlur stdDeviation="6"/>
<feComposite in2="hardAlpha" operator="out"/>
<feColorMatrix type="matrix" values="0 0 0 0 0 0 0 0 0 0 0 0 0 0 0 0 0 0 0.2 0"/>
<feBlend mode="normal" in2="BackgroundImageFix" result="effect1_dropShadow_49_4"/>
<feBlend mode="normal" in="SourceGraphic" in2="effect1_dropShadow_49_4" result="shape"/>
</filter>
<filter id="filter3_d_49_4" x="323" y="0" width="125.818" height="121.073" filterUnits="userSpaceOnUse" color-interpolation-filters="sRGB">
<feFlood flood-opacity="0" result="BackgroundImageFix"/>
<feColorMatrix in="SourceAlpha" type="matrix" values="0 0 0 0 0 0 0 0 0 0 0 0 0 0 0 0 0 0 127 0" result="hardAlpha"/>
<feOffset dy="5"/>
<feGaussianBlur stdDeviation="6"/>
<feComposite in2="hardAlpha" operator="out"/>
<feColorMatrix type="matrix" values="0 0 0 0 0 0 0 0 0 0 0 0 0 0 0 0 0 0 0.2 0"/>
<feBlend mode="normal" in2="BackgroundImageFix" result="effect1_dropShadow_49_4"/>
<feBlend mode="normal" in="SourceGraphic" in2="effect1_dropShadow_49_4" result="shape"/>
</filter>
<filter id="filter4_d_49_4" x="474" y="0" width="125.818" height="121.073" filterUnits="userSpaceOnUse" color-interpolation-filters="sRGB">
<feFlood flood-opacity="0" result="BackgroundImageFix"/>
<feColorMatrix in="SourceAlpha" type="matrix" values="0 0 0 0 0 0 0 0 0 0 0 0 0 0 0 0 0 0 127 0" result="hardAlpha"/>
<feOffset dy="5"/>
<feGaussianBlur stdDeviation="6"/>
<feComposite in2="hardAlpha" operator="out"/>
<feColorMatrix type="matrix" values="0 0 0 0 0 0 0 0 0 0 0 0 0 0 0 0 0 0 0.2 0"/>
<feBlend mode="normal" in2="BackgroundImageFix" result="effect1_dropShadow_49_4"/>
<feBlend mode="normal" in="SourceGraphic" in2="effect1_dropShadow_49_4" result="shape"/>
</filter>
<filter id="filter5_d_49_4" x="625" y="0" width="125.818" height="121.073" filterUnits="userSpaceOnUse" color-interpolation-filters="sRGB">
<feFlood flood-opacity="0" result="BackgroundImageFix"/>
<feColorMatrix in="SourceAlpha" type="matrix" values="0 0 0 0 0 0 0 0 0 0 0 0 0 0 0 0 0 0 127 0" result="hardAlpha"/>
<feOffset dy="5"/>
<feGaussianBlur stdDeviation="6"/>
<feComposite in2="hardAlpha" operator="out"/>
<feColorMatrix type="matrix" values="0 0 0 0 0 0 0 0 0 0 0 0 0 0 0 0 0 0 0.2 0"/>
<feBlend mode="normal" in2="BackgroundImageFix" result="effect1_dropShadow_49_4"/>
<feBlend mode="normal" in="SourceGraphic" in2="effect1_dropShadow_49_4" result="shape"/>
</filter>
</defs>
</svg>
