<svg width="822" height="226" viewBox="0 0 822 226" fill="none" xmlns="http://www.w3.org/2000/svg">
<g id="slider-ueqs">
<g id="Frame 1" filter="url(#filter0_d_9_138)">
<rect x="29.0909" y="87" width="763" height="80" rx="26" fill="white" shape-rendering="crispEdges"/>
<g id="frame-3">
<path d="M39.0909 113C39.0909 104.163 46.2544 97 55.0909 97H130.377C134.795 97 138.377 100.582 138.377 105V149C138.377 153.418 134.795 157 130.377 157H55.0909C46.2544 157 39.0909 149.837 39.0909 141V113Z" fill="#C4212A"/>
<text id="label" fill="white" xml:space="preserve" style="white-space: pre" font-family="Arial Rounded MT Bold" font-size="15" letter-spacing="0em"><tspan x="55.7089" y="132.515">Very Bad</tspan></text>
</g>
<g id="frame-2">
<rect x="146.377" y="97" width="99.2857" height="60" rx="8" fill="#C4212A"/>
<text id="label_2" fill="white" xml:space="preserve" style="white-space: pre" font-family="Arial Rounded MT Bold" font-size="15" letter-spacing="0em"><tspan x="181.474" y="132.515">Bad</tspan></text>
</g>
<g id="frame-1">
<rect x="253.662" y="97" width="99.2857" height="60" rx="8" fill="#C4212A"/>
<text id="label_3" fill="white" xml:space="preserve" style="white-space: pre" font-family="Arial Rounded MT Bold" font-size="15" letter-spacing="0em"><tspan x="262.876" y="132.515">Below Avg.</tspan></text>
</g>
<g id="frame0">
<rect x="360.948" y="97" width="99.2857" height="60" rx="8" fill="#F06D44"/>
<text id="label2" fill="white" xml:space="preserve" style="white-space: pre" font-family="Arial Rounded MT Bold" font-size="15" letter-spacing="0em"><tspan x="383.645" y="132.515">Neutral</tspan></text>
</g>
<g id="frame1">
<rect x="468.234" y="97" width="99.2857" height="60" rx="8" fill="#0E8743"/>
<text id="label3" fill="white" xml:space="preserve" style="white-space: pre" font-family="Arial Rounded MT Bold" font-size="15" letter-spacing="0em"><tspan x="477.037" y="132.515">Above Avg.</tspan></text>
</g>
<g id="frame2">
<rect x="575.519" y="97" width="99.2857" height="60" rx="8" fill="#0E8743"/>
<text id="label3_2" fill="white" xml:space="preserve" style="white-space: pre" font-family="Arial Rounded MT Bold" font-size="15" letter-spacing="0em"><tspan x="605.468" y="132.515">Good</tspan></text>
</g>
<g id="frame3">
<path d="M682.805 105C682.805 100.582 686.387 97 690.805 97H766.091C774.927 97 782.091 104.163 782.091 113V141C782.091 149.837 774.927 157 766.091 157H690.805C686.387 157 682.805 153.418 682.805 149V105Z" fill="#0E8743"/>
<text id="label3_3" fill="white" xml:space="preserve" style="white-space: pre" font-family="Arial Rounded MT Bold" font-size="15" letter-spacing="0em"><tspan x="699.079" y="132.515">Excellent</tspan></text>
</g>
</g>
<g id="bubble-3">
<g id="Union" filter="url(#filter1_d_9_138)">
<mask id="path-16-inside-1_9_138" fill="white">
<path d="M98.4246 102.512C94.3945 104.593 89.6057 104.593 85.5756 102.512L48.6664 83.4488C44.0136 81.0456 41.0909 76.2467 41.0909 71.0099V21C41.0909 13.268 47.3589 7 55.0909 7H128.909C136.641 7 142.909 13.268 142.909 21V71.0099C142.909 76.2467 139.987 81.0456 135.334 83.4488L98.4246 102.512Z"/>
</mask>
<path d="M98.4246 102.512C94.3945 104.593 89.6057 104.593 85.5756 102.512L48.6664 83.4488C44.0136 81.0456 41.0909 76.2467 41.0909 71.0099V21C41.0909 13.268 47.3589 7 55.0909 7H128.909C136.641 7 142.909 13.268 142.909 21V71.0099C142.909 76.2467 139.987 81.0456 135.334 83.4488L98.4246 102.512Z" fill="#C4212A"/>
<path d="M135.334 83.4488L131.663 76.3408L135.334 83.4488ZM48.6664 83.4488L52.3375 76.3409L48.6664 83.4488ZM98.4246 102.512L94.7535 95.404L98.4246 102.512ZM85.5756 102.512L89.2467 95.404L52.3375 76.3409L48.6664 83.4488L44.9952 90.5567L81.9044 109.62L85.5756 102.512ZM41.0909 71.0099H49.0909V21H41.0909H33.0909V71.0099H41.0909ZM55.0909 7V15H128.909V7V-1H55.0909V7ZM142.909 21H134.909V71.0099H142.909H150.909V21H142.909ZM135.334 83.4488L131.663 76.3408L94.7535 95.404L98.4246 102.512L102.096 109.62L139.005 90.5567L135.334 83.4488ZM142.909 71.0099H134.909C134.909 73.2542 133.657 75.3109 131.663 76.3408L135.334 83.4488L139.005 90.5567C146.317 86.7803 150.909 79.2391 150.909 71.0099H142.909ZM128.909 7V15C132.223 15 134.909 17.6863 134.909 21H142.909H150.909C150.909 8.84974 141.06 -1 128.909 -1V7ZM41.0909 21H49.0909C49.0909 17.6863 51.7772 15 55.0909 15V7V-1C42.9406 -1 33.0909 8.84973 33.0909 21H41.0909ZM48.6664 83.4488L52.3375 76.3409C50.3435 75.3109 49.0909 73.2542 49.0909 71.0099H41.0909H33.0909C33.0909 79.2391 37.6836 86.7803 44.9952 90.5567L48.6664 83.4488ZM85.5756 102.512L81.9044 109.62C88.2375 112.891 95.7627 112.891 102.096 109.62L98.4246 102.512L94.7535 95.404C93.0263 96.296 90.9739 96.296 89.2467 95.404L85.5756 102.512Z" fill="white" mask="url(#path-16-inside-1_9_138)"/>
</g>
<text id="score" fill="white" xml:space="preserve" style="white-space: pre" font-family="Arial Rounded MT Bold" font-size="46" letter-spacing="0em"><tspan x="75.0909" y="65.3736">*sc*</tspan></text>
</g>
<g id="bubble-2">
<g id="Union_2" filter="url(#filter2_d_9_138)">
<mask id="path-19-inside-2_9_138" fill="white">
<path d="M205.425 102.512C201.394 104.593 196.606 104.593 192.576 102.512L155.666 83.4488C151.014 81.0456 148.091 76.2467 148.091 71.0099V21C148.091 13.268 154.359 7 162.091 7H235.909C243.641 7 249.909 13.268 249.909 21V71.0099C249.909 76.2467 246.987 81.0456 242.334 83.4488L205.425 102.512Z"/>
</mask>
<path d="M205.425 102.512C201.394 104.593 196.606 104.593 192.576 102.512L155.666 83.4488C151.014 81.0456 148.091 76.2467 148.091 71.0099V21C148.091 13.268 154.359 7 162.091 7H235.909C243.641 7 249.909 13.268 249.909 21V71.0099C249.909 76.2467 246.987 81.0456 242.334 83.4488L205.425 102.512Z" fill="#C4212A"/>
<path d="M242.334 83.4488L238.663 76.3408L242.334 83.4488ZM155.666 83.4488L159.338 76.3409L155.666 83.4488ZM205.425 102.512L201.753 95.404L205.425 102.512ZM192.576 102.512L196.247 95.404L159.338 76.3409L155.666 83.4488L151.995 90.5567L188.904 109.62L192.576 102.512ZM148.091 71.0099H156.091V21H148.091H140.091V71.0099H148.091ZM162.091 7V15H235.909V7V-1H162.091V7ZM249.909 21H241.909V71.0099H249.909H257.909V21H249.909ZM242.334 83.4488L238.663 76.3408L201.753 95.404L205.425 102.512L209.096 109.62L246.005 90.5567L242.334 83.4488ZM249.909 71.0099H241.909C241.909 73.2542 240.657 75.3109 238.663 76.3408L242.334 83.4488L246.005 90.5567C253.317 86.7803 257.909 79.2391 257.909 71.0099H249.909ZM235.909 7V15C239.223 15 241.909 17.6863 241.909 21H249.909H257.909C257.909 8.84974 248.06 -1 235.909 -1V7ZM148.091 21H156.091C156.091 17.6863 158.777 15 162.091 15V7V-1C149.941 -1 140.091 8.84973 140.091 21H148.091ZM155.666 83.4488L159.338 76.3409C157.343 75.3109 156.091 73.2542 156.091 71.0099H148.091H140.091C140.091 79.2391 144.684 86.7803 151.995 90.5567L155.666 83.4488ZM192.576 102.512L188.904 109.62C195.237 112.891 202.763 112.891 209.096 109.62L205.425 102.512L201.753 95.404C200.026 96.296 197.974 96.296 196.247 95.404L192.576 102.512Z" fill="white" mask="url(#path-19-inside-2_9_138)"/>
</g>
<text id="score_2" fill="white" xml:space="preserve" style="white-space: pre" font-family="Arial Rounded MT Bold" font-size="46" letter-spacing="0em"><tspan x="182.091" y="65.3736">*sc*</tspan></text>
</g>
<g id="bubble-1">
<g id="Union_3" filter="url(#filter3_d_9_138)">
<mask id="path-22-inside-3_9_138" fill="white">
<path d="M312.425 102.512C308.394 104.593 303.606 104.593 299.576 102.512L262.666 83.4488C258.014 81.0456 255.091 76.2467 255.091 71.0099V21C255.091 13.268 261.359 7 269.091 7H342.909C350.641 7 356.909 13.268 356.909 21V71.0099C356.909 76.2467 353.987 81.0456 349.334 83.4488L312.425 102.512Z"/>
</mask>
<path d="M312.425 102.512C308.394 104.593 303.606 104.593 299.576 102.512L262.666 83.4488C258.014 81.0456 255.091 76.2467 255.091 71.0099V21C255.091 13.268 261.359 7 269.091 7H342.909C350.641 7 356.909 13.268 356.909 21V71.0099C356.909 76.2467 353.987 81.0456 349.334 83.4488L312.425 102.512Z" fill="#C4212A"/>
<path d="M349.334 83.4488L345.663 76.3408L349.334 83.4488ZM262.666 83.4488L266.338 76.3409L262.666 83.4488ZM312.425 102.512L308.753 95.404L312.425 102.512ZM299.576 102.512L303.247 95.404L266.338 76.3409L262.666 83.4488L258.995 90.5567L295.904 109.62L299.576 102.512ZM255.091 71.0099H263.091V21H255.091H247.091V71.0099H255.091ZM269.091 7V15H342.909V7V-1H269.091V7ZM356.909 21H348.909V71.0099H356.909H364.909V21H356.909ZM349.334 83.4488L345.663 76.3408L308.753 95.404L312.425 102.512L316.096 109.62L353.005 90.5567L349.334 83.4488ZM356.909 71.0099H348.909C348.909 73.2542 347.657 75.3109 345.663 76.3408L349.334 83.4488L353.005 90.5567C360.317 86.7803 364.909 79.2391 364.909 71.0099H356.909ZM342.909 7V15C346.223 15 348.909 17.6863 348.909 21H356.909H364.909C364.909 8.84974 355.06 -1 342.909 -1V7ZM255.091 21H263.091C263.091 17.6863 265.777 15 269.091 15V7V-1C256.941 -1 247.091 8.84973 247.091 21H255.091ZM262.666 83.4488L266.338 76.3409C264.343 75.3109 263.091 73.2542 263.091 71.0099H255.091H247.091C247.091 79.2391 251.684 86.7803 258.995 90.5567L262.666 83.4488ZM299.576 102.512L295.904 109.62C302.237 112.891 309.763 112.891 316.096 109.62L312.425 102.512L308.753 95.404C307.026 96.296 304.974 96.296 303.247 95.404L299.576 102.512Z" fill="white" mask="url(#path-22-inside-3_9_138)"/>
</g>
<text id="score_3" fill="white" xml:space="preserve" style="white-space: pre" font-family="Arial Rounded MT Bold" font-size="46" letter-spacing="0em"><tspan x="289.091" y="65.3736">*sc*</tspan></text>
</g>
<g id="bubble0">
<g id="Union_4" filter="url(#filter4_d_9_138)">
<mask id="path-25-inside-4_9_138" fill="white">
<path d="M419.425 102.512C415.394 104.593 410.606 104.593 406.576 102.512L369.666 83.4488C365.014 81.0456 362.091 76.2467 362.091 71.0099V21C362.091 13.268 368.359 7 376.091 7H449.909C457.641 7 463.909 13.268 463.909 21V71.0099C463.909 76.2467 460.987 81.0456 456.334 83.4488L419.425 102.512Z"/>
</mask>
<path d="M419.425 102.512C415.394 104.593 410.606 104.593 406.576 102.512L369.666 83.4488C365.014 81.0456 362.091 76.2467 362.091 71.0099V21C362.091 13.268 368.359 7 376.091 7H449.909C457.641 7 463.909 13.268 463.909 21V71.0099C463.909 76.2467 460.987 81.0456 456.334 83.4488L419.425 102.512Z" fill="#F06D44"/>
<path d="M456.334 83.4488L452.663 76.3408L456.334 83.4488ZM369.666 83.4488L373.338 76.3409L369.666 83.4488ZM419.425 102.512L415.753 95.404L419.425 102.512ZM406.576 102.512L410.247 95.404L373.338 76.3409L369.666 83.4488L365.995 90.5567L402.904 109.62L406.576 102.512ZM362.091 71.0099H370.091V21H362.091H354.091V71.0099H362.091ZM376.091 7V15H449.909V7V-1H376.091V7ZM463.909 21H455.909V71.0099H463.909H471.909V21H463.909ZM456.334 83.4488L452.663 76.3408L415.753 95.404L419.425 102.512L423.096 109.62L460.005 90.5567L456.334 83.4488ZM463.909 71.0099H455.909C455.909 73.2542 454.657 75.3109 452.663 76.3408L456.334 83.4488L460.005 90.5567C467.317 86.7803 471.909 79.2391 471.909 71.0099H463.909ZM449.909 7V15C453.223 15 455.909 17.6863 455.909 21H463.909H471.909C471.909 8.84974 462.06 -1 449.909 -1V7ZM362.091 21H370.091C370.091 17.6863 372.777 15 376.091 15V7V-1C363.941 -1 354.091 8.84973 354.091 21H362.091ZM369.666 83.4488L373.338 76.3409C371.343 75.3109 370.091 73.2542 370.091 71.0099H362.091H354.091C354.091 79.2391 358.684 86.7803 365.995 90.5567L369.666 83.4488ZM406.576 102.512L402.904 109.62C409.237 112.891 416.763 112.891 423.096 109.62L419.425 102.512L415.753 95.404C414.026 96.296 411.974 96.296 410.247 95.404L406.576 102.512Z" fill="white" mask="url(#path-25-inside-4_9_138)"/>
</g>
<text id="score_4" fill="white" xml:space="preserve" style="white-space: pre" font-family="Arial Rounded MT Bold" font-size="46" letter-spacing="0em"><tspan x="396.091" y="65.3736">*sc*</tspan></text>
</g>
<g id="bubble1">
<g id="Union_5" filter="url(#filter5_d_9_138)">
<mask id="path-28-inside-5_9_138" fill="white">
<path d="M526.425 102.512C522.394 104.593 517.606 104.593 513.576 102.512L476.666 83.4488C472.014 81.0456 469.091 76.2467 469.091 71.0099V21C469.091 13.268 475.359 7 483.091 7H556.909C564.641 7 570.909 13.268 570.909 21V71.0099C570.909 76.2467 567.987 81.0456 563.334 83.4488L526.425 102.512Z"/>
</mask>
<path d="M526.425 102.512C522.394 104.593 517.606 104.593 513.576 102.512L476.666 83.4488C472.014 81.0456 469.091 76.2467 469.091 71.0099V21C469.091 13.268 475.359 7 483.091 7H556.909C564.641 7 570.909 13.268 570.909 21V71.0099C570.909 76.2467 567.987 81.0456 563.334 83.4488L526.425 102.512Z" fill="#0E8743"/>
<path d="M563.334 83.4488L559.663 76.3408L563.334 83.4488ZM476.666 83.4488L480.338 76.3409L476.666 83.4488ZM526.425 102.512L522.753 95.404L526.425 102.512ZM513.576 102.512L517.247 95.404L480.338 76.3409L476.666 83.4488L472.995 90.5567L509.904 109.62L513.576 102.512ZM469.091 71.0099H477.091V21H469.091H461.091V71.0099H469.091ZM483.091 7V15H556.909V7V-1H483.091V7ZM570.909 21H562.909V71.0099H570.909H578.909V21H570.909ZM563.334 83.4488L559.663 76.3408L522.753 95.404L526.425 102.512L530.096 109.62L567.005 90.5567L563.334 83.4488ZM570.909 71.0099H562.909C562.909 73.2542 561.657 75.3109 559.663 76.3408L563.334 83.4488L567.005 90.5567C574.317 86.7803 578.909 79.2391 578.909 71.0099H570.909ZM556.909 7V15C560.223 15 562.909 17.6863 562.909 21H570.909H578.909C578.909 8.84974 569.06 -1 556.909 -1V7ZM469.091 21H477.091C477.091 17.6863 479.777 15 483.091 15V7V-1C470.941 -1 461.091 8.84973 461.091 21H469.091ZM476.666 83.4488L480.338 76.3409C478.343 75.3109 477.091 73.2542 477.091 71.0099H469.091H461.091C461.091 79.2391 465.684 86.7803 472.995 90.5567L476.666 83.4488ZM513.576 102.512L509.904 109.62C516.237 112.891 523.763 112.891 530.096 109.62L526.425 102.512L522.753 95.404C521.026 96.296 518.974 96.296 517.247 95.404L513.576 102.512Z" fill="white" mask="url(#path-28-inside-5_9_138)"/>
</g>
<text id="score_5" fill="white" xml:space="preserve" style="white-space: pre" font-family="Arial Rounded MT Bold" font-size="46" letter-spacing="0em"><tspan x="503.091" y="65.3736">*sc*</tspan></text>
</g>
<g id="bubble2">
<g id="Union_6" filter="url(#filter6_d_9_138)">
<mask id="path-31-inside-6_9_138" fill="white">
<path d="M633.425 102.512C629.394 104.593 624.606 104.593 620.576 102.512L583.666 83.4488C579.014 81.0456 576.091 76.2467 576.091 71.0099V21C576.091 13.268 582.359 7 590.091 7H663.909C671.641 7 677.909 13.268 677.909 21V71.0099C677.909 76.2467 674.987 81.0456 670.334 83.4488L633.425 102.512Z"/>
</mask>
<path d="M633.425 102.512C629.394 104.593 624.606 104.593 620.576 102.512L583.666 83.4488C579.014 81.0456 576.091 76.2467 576.091 71.0099V21C576.091 13.268 582.359 7 590.091 7H663.909C671.641 7 677.909 13.268 677.909 21V71.0099C677.909 76.2467 674.987 81.0456 670.334 83.4488L633.425 102.512Z" fill="#0E8743"/>
<path d="M670.334 83.4488L666.663 76.3408L670.334 83.4488ZM583.666 83.4488L587.338 76.3409L583.666 83.4488ZM633.425 102.512L629.753 95.404L633.425 102.512ZM620.576 102.512L624.247 95.404L587.338 76.3409L583.666 83.4488L579.995 90.5567L616.904 109.62L620.576 102.512ZM576.091 71.0099H584.091V21H576.091H568.091V71.0099H576.091ZM590.091 7V15H663.909V7V-1H590.091V7ZM677.909 21H669.909V71.0099H677.909H685.909V21H677.909ZM670.334 83.4488L666.663 76.3408L629.753 95.404L633.425 102.512L637.096 109.62L674.005 90.5567L670.334 83.4488ZM677.909 71.0099H669.909C669.909 73.2542 668.657 75.3109 666.663 76.3408L670.334 83.4488L674.005 90.5567C681.317 86.7803 685.909 79.2391 685.909 71.0099H677.909ZM663.909 7V15C667.223 15 669.909 17.6863 669.909 21H677.909H685.909C685.909 8.84974 676.06 -1 663.909 -1V7ZM576.091 21H584.091C584.091 17.6863 586.777 15 590.091 15V7V-1C577.941 -1 568.091 8.84973 568.091 21H576.091ZM583.666 83.4488L587.338 76.3409C585.343 75.3109 584.091 73.2542 584.091 71.0099H576.091H568.091C568.091 79.2391 572.684 86.7803 579.995 90.5567L583.666 83.4488ZM620.576 102.512L616.904 109.62C623.237 112.891 630.763 112.891 637.096 109.62L633.425 102.512L629.753 95.404C628.026 96.296 625.974 96.296 624.247 95.404L620.576 102.512Z" fill="white" mask="url(#path-31-inside-6_9_138)"/>
</g>
<text id="score_6" fill="white" xml:space="preserve" style="white-space: pre" font-family="Arial Rounded MT Bold" font-size="46" letter-spacing="0em"><tspan x="610.091" y="65.3736">*sc*</tspan></text>
</g>
<g id="bubble3">
<g id="Union_7" filter="url(#filter7_d_9_138)">
<mask id="path-34-inside-7_9_138" fill="white">
<path d="M740.425 102.512C736.394 104.593 731.606 104.593 727.576 102.512L690.666 83.4488C686.014 81.0456 683.091 76.2467 683.091 71.0099V21C683.091 13.268 689.359 7 697.091 7H770.909C778.641 7 784.909 13.268 784.909 21V71.0099C784.909 76.2467 781.987 81.0456 777.334 83.4488L740.425 102.512Z"/>
</mask>
<path d="M740.425 102.512C736.394 104.593 731.606 104.593 727.576 102.512L690.666 83.4488C686.014 81.0456 683.091 76.2467 683.091 71.0099V21C683.091 13.268 689.359 7 697.091 7H770.909C778.641 7 784.909 13.268 784.909 21V71.0099C784.909 76.2467 781.987 81.0456 777.334 83.4488L740.425 102.512Z" fill="#0E8743"/>
<path d="M777.334 83.4488L773.663 76.3408L777.334 83.4488ZM690.666 83.4488L694.338 76.3409L690.666 83.4488ZM740.425 102.512L736.753 95.404L740.425 102.512ZM727.576 102.512L731.247 95.404L694.338 76.3409L690.666 83.4488L686.995 90.5567L723.904 109.62L727.576 102.512ZM683.091 71.0099H691.091V21H683.091H675.091V71.0099H683.091ZM697.091 7V15H770.909V7V-1H697.091V7ZM784.909 21H776.909V71.0099H784.909H792.909V21H784.909ZM777.334 83.4488L773.663 76.3408L736.753 95.404L740.425 102.512L744.096 109.62L781.005 90.5567L777.334 83.4488ZM784.909 71.0099H776.909C776.909 73.2542 775.657 75.3109 773.663 76.3408L777.334 83.4488L781.005 90.5567C788.317 86.7803 792.909 79.2391 792.909 71.0099H784.909ZM770.909 7V15C774.223 15 776.909 17.6863 776.909 21H784.909H792.909C792.909 8.84974 783.06 -1 770.909 -1V7ZM683.091 21H691.091C691.091 17.6863 693.777 15 697.091 15V7V-1C684.941 -1 675.091 8.84973 675.091 21H683.091ZM690.666 83.4488L694.338 76.3409C692.343 75.3109 691.091 73.2542 691.091 71.0099H683.091H675.091C675.091 79.2391 679.684 86.7803 686.995 90.5567L690.666 83.4488ZM727.576 102.512L723.904 109.62C730.237 112.891 737.763 112.891 744.096 109.62L740.425 102.512L736.753 95.404C735.026 96.296 732.974 96.296 731.247 95.404L727.576 102.512Z" fill="white" mask="url(#path-34-inside-7_9_138)"/>
</g>
<text id="score_7" fill="white" xml:space="preserve" style="white-space: pre" font-family="Arial Rounded MT Bold" font-size="46" letter-spacing="0em"><tspan x="717.091" y="65.3736">*sc*</tspan></text>
</g>
</g>
<defs>
<filter id="filter0_d_9_138" x="0" y="87" width="821.182" height="138.182" filterUnits="userSpaceOnUse" color-interpolation-filters="sRGB">
<feFlood flood-opacity="0" result="BackgroundImageFix"/>
<feColorMatrix in="SourceAlpha" type="matrix" values="0 0 0 0 0 0 0 0 0 0 0 0 0 0 0 0 0 0 127 0" result="hardAlpha"/>
<feOffset dy="29.0909"/>
<feGaussianBlur stdDeviation="14.5455"/>
<feComposite in2="hardAlpha" operator="out"/>
<feColorMatrix type="matrix" values="0 0 0 0 0 0 0 0 0 0 0 0 0 0 0 0 0 0 0.12 0"/>
<feBlend mode="normal" in2="BackgroundImageFix" result="effect1_dropShadow_9_138"/>
<feBlend mode="normal" in="SourceGraphic" in2="effect1_dropShadow_9_138" result="shape"/>
</filter>
<filter id="filter1_d_9_138" x="29.0909" y="0" width="125.818" height="121.073" filterUnits="userSpaceOnUse" color-interpolation-filters="sRGB">
<feFlood flood-opacity="0" result="BackgroundImageFix"/>
<feColorMatrix in="SourceAlpha" type="matrix" values="0 0 0 0 0 0 0 0 0 0 0 0 0 0 0 0 0 0 127 0" result="hardAlpha"/>
<feOffset dy="5"/>
<feGaussianBlur stdDeviation="6"/>
<feComposite in2="hardAlpha" operator="out"/>
<feColorMatrix type="matrix" values="0 0 0 0 0 0 0 0 0 0 0 0 0 0 0 0 0 0 0.2 0"/>
<feBlend mode="normal" in2="BackgroundImageFix" result="effect1_dropShadow_9_138"/>
<feBlend mode="normal" in="SourceGraphic" in2="effect1_dropShadow_9_138" result="shape"/>
</filter>
<filter id="filter2_d_9_138" x="136.091" y="0" width="125.818" height="121.073" filterUnits="userSpaceOnUse" color-interpolation-filters="sRGB">
<feFlood flood-opacity="0" result="BackgroundImageFix"/>
<feColorMatrix in="SourceAlpha" type="matrix" values="0 0 0 0 0 0 0 0 0 0 0 0 0 0 0 0 0 0 127 0" result="hardAlpha"/>
<feOffset dy="5"/>
<feGaussianBlur stdDeviation="6"/>
<feComposite in2="hardAlpha" operator="out"/>
<feColorMatrix type="matrix" values="0 0 0 0 0 0 0 0 0 0 0 0 0 0 0 0 0 0 0.2 0"/>
<feBlend mode="normal" in2="BackgroundImageFix" result="effect1_dropShadow_9_138"/>
<feBlend mode="normal" in="SourceGraphic" in2="effect1_dropShadow_9_138" result="shape"/>
</filter>
<filter id="filter3_d_9_138" x="243.091" y="0" width="125.818" height="121.073" filterUnits="userSpaceOnUse" color-interpolation-filters="sRGB">
<feFlood flood-opacity="0" result="BackgroundImageFix"/>
<feColorMatrix in="SourceAlpha" type="matrix" values="0 0 0 0 0 0 0 0 0 0 0 0 0 0 0 0 0 0 127 0" result="hardAlpha"/>
<feOffset dy="5"/>
<feGaussianBlur stdDeviation="6"/>
<feComposite in2="hardAlpha" operator="out"/>
<feColorMatrix type="matrix" values="0 0 0 0 0 0 0 0 0 0 0 0 0 0 0 0 0 0 0.2 0"/>
<feBlend mode="normal" in2="BackgroundImageFix" result="effect1_dropShadow_9_138"/>
<feBlend mode="normal" in="SourceGraphic" in2="effect1_dropShadow_9_138" result="shape"/>
</filter>
<filter id="filter4_d_9_138" x="350.091" y="0" width="125.818" height="121.073" filterUnits="userSpaceOnUse" color-interpolation-filters="sRGB">
<feFlood flood-opacity="0" result="BackgroundImageFix"/>
<feColorMatrix in="SourceAlpha" type="matrix" values="0 0 0 0 0 0 0 0 0 0 0 0 0 0 0 0 0 0 127 0" result="hardAlpha"/>
<feOffset dy="5"/>
<feGaussianBlur stdDeviation="6"/>
<feComposite in2="hardAlpha" operator="out"/>
<feColorMatrix type="matrix" values="0 0 0 0 0 0 0 0 0 0 0 0 0 0 0 0 0 0 0.2 0"/>
<feBlend mode="normal" in2="BackgroundImageFix" result="effect1_dropShadow_9_138"/>
<feBlend mode="normal" in="SourceGraphic" in2="effect1_dropShadow_9_138" result="shape"/>
</filter>
<filter id="filter5_d_9_138" x="457.091" y="0" width="125.818" height="121.073" filterUnits="userSpaceOnUse" color-interpolation-filters="sRGB">
<feFlood flood-opacity="0" result="BackgroundImageFix"/>
<feColorMatrix in="SourceAlpha" type="matrix" values="0 0 0 0 0 0 0 0 0 0 0 0 0 0 0 0 0 0 127 0" result="hardAlpha"/>
<feOffset dy="5"/>
<feGaussianBlur stdDeviation="6"/>
<feComposite in2="hardAlpha" operator="out"/>
<feColorMatrix type="matrix" values="0 0 0 0 0 0 0 0 0 0 0 0 0 0 0 0 0 0 0.2 0"/>
<feBlend mode="normal" in2="BackgroundImageFix" result="effect1_dropShadow_9_138"/>
<feBlend mode="normal" in="SourceGraphic" in2="effect1_dropShadow_9_138" result="shape"/>
</filter>
<filter id="filter6_d_9_138" x="564.091" y="0" width="125.818" height="121.073" filterUnits="userSpaceOnUse" color-interpolation-filters="sRGB">
<feFlood flood-opacity="0" result="BackgroundImageFix"/>
<feColorMatrix in="SourceAlpha" type="matrix" values="0 0 0 0 0 0 0 0 0 0 0 0 0 0 0 0 0 0 127 0" result="hardAlpha"/>
<feOffset dy="5"/>
<feGaussianBlur stdDeviation="6"/>
<feComposite in2="hardAlpha" operator="out"/>
<feColorMatrix type="matrix" values="0 0 0 0 0 0 0 0 0 0 0 0 0 0 0 0 0 0 0.2 0"/>
<feBlend mode="normal" in2="BackgroundImageFix" result="effect1_dropShadow_9_138"/>
<feBlend mode="normal" in="SourceGraphic" in2="effect1_dropShadow_9_138" result="shape"/>
</filter>
<filter id="filter7_d_9_138" x="671.091" y="0" width="125.818" height="121.073" filterUnits="userSpaceOnUse" color-interpolation-filters="sRGB">
<feFlood flood-opacity="0" result="BackgroundImageFix"/>
<feColorMatrix in="SourceAlpha" type="matrix" values="0 0 0 0 0 0 0 0 0 0 0 0 0 0 0 0 0 0 127 0" result="hardAlpha"/>
<feOffset dy="5"/>
<feGaussianBlur stdDeviation="6"/>
<feComposite in2="hardAlpha" operator="out"/>
<feColorMatrix type="matrix" values="0 0 0 0 0 0 0 0 0 0 0 0 0 0 0 0 0 0 0.2 0"/>
<feBlend mode="normal" in2="BackgroundImageFix" result="effect1_dropShadow_9_138"/>
<feBlend mode="normal" in="SourceGraphic" in2="effect1_dropShadow_9_138" result="shape"/>
</filter>
</defs>
</svg>
