<svg width="805" height="183" viewBox="0 0 805 183" fill="none" xmlns="http://www.w3.org/2000/svg">
<g id="slider-ueqs">
<g id="Frame 1" filter="url(#filter0_d_9_138)">
<rect x="4.09731" y="91.1703" width="781.562" height="84" rx="26.6325" fill="white" shape-rendering="crispEdges"/>
<g id="frame-3">
<path d="M14.3406 117.803C14.3406 108.751 21.6783 101.414 30.7298 101.414H107.847C112.373 101.414 116.042 105.082 116.042 109.608V156.732C116.042 161.258 112.373 164.927 107.847 164.927H30.7298C21.6783 164.927 14.3406 157.589 14.3406 148.538V117.803Z" fill="#C4212A"/>
<text id="label" fill="white" xml:space="preserve" style="white-space: pre" font-family="Arial Rounded MT Bold" font-size="15.3649" letter-spacing="0em"><tspan x="31.3628" y="138.82">Very Bad</tspan></text>
</g>
<g id="frame-2">
<rect x="124.236" y="101.414" width="101.701" height="63.5134" rx="8.19462" fill="#C4212A"/>
<text id="label_2" fill="white" xml:space="preserve" style="white-space: pre" font-family="Arial Rounded MT Bold" font-size="15.3649" letter-spacing="0em"><tspan x="160.187" y="138.82">Bad</tspan></text>
</g>
<g id="frame-1">
<rect x="234.132" y="101.414" width="101.701" height="63.5134" rx="8.19462" fill="#C4212A"/>
<text id="label_3" fill="white" xml:space="preserve" style="white-space: pre" font-family="Arial Rounded MT Bold" font-size="15.3649" letter-spacing="0em"><tspan x="243.569" y="138.82">Below Avg.</tspan></text>
</g>
<g id="frame0">
<rect x="344.028" y="101.414" width="101.701" height="63.5134" rx="8.19462" fill="#D74011"/>
<text id="label2" fill="white" xml:space="preserve" style="white-space: pre" font-family="Arial Rounded MT Bold" font-size="15.3649" letter-spacing="0em"><tspan x="367.277" y="138.82">Neutral</tspan></text>
</g>
<g id="frame1">
<rect x="453.924" y="101.414" width="101.701" height="63.5134" rx="8.19462" fill="#0E8743"/>
<text id="label3" fill="white" xml:space="preserve" style="white-space: pre" font-family="Arial Rounded MT Bold" font-size="15.3649" letter-spacing="0em"><tspan x="462.941" y="138.82">Above Avg.</tspan></text>
</g>
<g id="frame2">
<rect x="563.819" y="101.414" width="101.701" height="63.5134" rx="8.19462" fill="#0E8743"/>
<text id="label3_2" fill="white" xml:space="preserve" style="white-space: pre" font-family="Arial Rounded MT Bold" font-size="15.3649" letter-spacing="0em"><tspan x="594.496" y="138.82">Good</tspan></text>
</g>
<g id="frame3">
<path d="M673.715 109.608C673.715 105.082 677.384 101.414 681.91 101.414H759.027C768.078 101.414 775.416 108.751 775.416 117.803V148.538C775.416 157.589 768.078 164.927 759.027 164.927H681.91C677.384 164.927 673.715 161.258 673.715 156.732V109.608Z" fill="#0E8743"/>
<text id="label3_3" fill="white" xml:space="preserve" style="white-space: pre" font-family="Arial Rounded MT Bold" font-size="15.3649" letter-spacing="0em"><tspan x="690.385" y="138.82">Excellent</tspan></text>
</g>
</g>
<g id="bubble-3">
<g id="Union" filter="url(#filter1_d_9_138)">
<mask id="path-16-inside-1_9_138" fill="white">
<path d="M75.2469 107.389C71.0494 109.611 66.024 109.611 61.8266 107.389L24.0197 87.3723C19.3253 84.8869 16.3892 80.0102 16.3892 74.6985V21.5109C16.3892 13.5908 22.8097 7.17029 30.7298 7.17029H106.344C114.264 7.17029 120.684 13.5908 120.684 21.5109V74.6985C120.684 80.0102 117.748 84.8869 113.054 87.3723L75.2469 107.389Z"/>
</mask>
<path d="M75.2469 107.389C71.0494 109.611 66.024 109.611 61.8266 107.389L24.0197 87.3723C19.3253 84.8869 16.3892 80.0102 16.3892 74.6985V21.5109C16.3892 13.5908 22.8097 7.17029 30.7298 7.17029H106.344C114.264 7.17029 120.684 13.5908 120.684 21.5109V74.6985C120.684 80.0102 117.748 84.8869 113.054 87.3723L75.2469 107.389Z" fill="#C4212A"/>
<path d="M113.054 87.3723L116.888 94.6145L113.054 87.3723ZM24.0197 87.3723L27.8541 80.1301L24.0197 87.3723ZM61.8266 107.389L65.6609 100.147L27.8541 80.1301L24.0197 87.3723L20.1853 94.6145L57.9922 114.631L61.8266 107.389ZM16.3892 74.6985H24.5839V21.5109H16.3892H8.19462V74.6985H16.3892ZM30.7298 7.17029V15.3649H106.344V7.17029V-1.02433H30.7298V7.17029ZM120.684 21.5109H112.49V74.6985H120.684H128.879V21.5109H120.684ZM113.054 87.3723L109.219 80.1301L71.4125 100.147L75.2469 107.389L79.0812 114.631L116.888 94.6145L113.054 87.3723ZM120.684 74.6985H112.49C112.49 76.9749 111.231 79.0649 109.219 80.1301L113.054 87.3723L116.888 94.6145C124.265 90.7088 128.879 83.0455 128.879 74.6985H120.684ZM106.344 7.17029V15.3649C109.738 15.3649 112.49 18.1166 112.49 21.5109H120.684H128.879C128.879 9.06502 118.789 -1.02433 106.344 -1.02433V7.17029ZM16.3892 21.5109H24.5839C24.5839 18.1166 27.3355 15.3649 30.7298 15.3649V7.17029V-1.02433C18.284 -1.02433 8.19462 9.06502 8.19462 21.5109H16.3892ZM24.0197 87.3723L27.8541 80.1301C25.8422 79.0649 24.5839 76.9749 24.5839 74.6985H16.3892H8.19462C8.19462 83.0455 12.8084 90.7088 20.1853 94.6145L24.0197 87.3723ZM61.8266 107.389L57.9922 114.631C64.5881 118.124 72.4853 118.124 79.0812 114.631L75.2469 107.389L71.4125 100.147C69.6136 101.099 67.4598 101.099 65.6609 100.147L61.8266 107.389Z" fill="white" mask="url(#path-16-inside-1_9_138)"/>
</g>
<text id="score" fill="white" xml:space="preserve" style="white-space: pre" font-family="Arial Rounded MT Bold" font-size="47.1191" letter-spacing="0em"><tspan x="51.2164" y="67.7034">*sc*</tspan></text>
</g>
<g id="bubble-2">
<g id="Union_2" filter="url(#filter2_d_9_138)">
<mask id="path-19-inside-2_9_138" fill="white">
<path d="M184.85 107.389C180.652 109.611 175.627 109.611 171.43 107.389L133.623 87.3723C128.928 84.8869 125.992 80.0102 125.992 74.6985V21.5109C125.992 13.5908 132.413 7.17029 140.333 7.17029H215.947C223.867 7.17029 230.287 13.5908 230.287 21.5109V74.6985C230.287 80.0102 227.351 84.8869 222.657 87.3723L184.85 107.389Z"/>
</mask>
<path d="M184.85 107.389C180.652 109.611 175.627 109.611 171.43 107.389L133.623 87.3723C128.928 84.8869 125.992 80.0102 125.992 74.6985V21.5109C125.992 13.5908 132.413 7.17029 140.333 7.17029H215.947C223.867 7.17029 230.287 13.5908 230.287 21.5109V74.6985C230.287 80.0102 227.351 84.8869 222.657 87.3723L184.85 107.389Z" fill="#C4212A"/>
<path d="M222.657 87.3723L226.491 94.6145L222.657 87.3723ZM133.623 87.3723L137.457 80.1301L133.623 87.3723ZM171.43 107.389L175.264 100.147L137.457 80.1301L133.623 87.3723L129.788 94.6145L167.595 114.631L171.43 107.389ZM125.992 74.6985H134.187V21.5109H125.992H117.798V74.6985H125.992ZM140.333 7.17029V15.3649H215.947V7.17029V-1.02433H140.333V7.17029ZM230.287 21.5109H222.093V74.6985H230.287H238.482V21.5109H230.287ZM222.657 87.3723L218.822 80.1301L181.016 100.147L184.85 107.389L188.684 114.631L226.491 94.6145L222.657 87.3723ZM230.287 74.6985H222.093C222.093 76.9749 220.834 79.0649 218.822 80.1301L222.657 87.3723L226.491 94.6145C233.868 90.7088 238.482 83.0455 238.482 74.6985H230.287ZM215.947 7.17029V15.3649C219.341 15.3649 222.093 18.1166 222.093 21.5109H230.287H238.482C238.482 9.06502 228.392 -1.02433 215.947 -1.02433V7.17029ZM125.992 21.5109H134.187C134.187 18.1166 136.939 15.3649 140.333 15.3649V7.17029V-1.02433C127.887 -1.02433 117.798 9.06502 117.798 21.5109H125.992ZM133.623 87.3723L137.457 80.1301C135.445 79.0649 134.187 76.9749 134.187 74.6985H125.992H117.798C117.798 83.0455 122.411 90.7088 129.788 94.6145L133.623 87.3723ZM171.43 107.389L167.595 114.631C174.191 118.124 182.088 118.124 188.684 114.631L184.85 107.389L181.016 100.147C179.217 101.099 177.063 101.099 175.264 100.147L171.43 107.389Z" fill="white" mask="url(#path-19-inside-2_9_138)"/>
</g>
<text id="score_2" fill="white" xml:space="preserve" style="white-space: pre" font-family="Arial Rounded MT Bold" font-size="47.1191" letter-spacing="0em"><tspan x="160.819" y="67.7034">*sc*</tspan></text>
</g>
<g id="bubble-1">
<g id="Union_3" filter="url(#filter3_d_9_138)">
<mask id="path-22-inside-3_9_138" fill="white">
<path d="M294.453 107.389C290.256 109.611 285.23 109.611 281.033 107.389L243.226 87.3723C238.531 84.8869 235.595 80.0102 235.595 74.6985V21.5109C235.595 13.5908 242.016 7.17029 249.936 7.17029H325.55C333.47 7.17029 339.89 13.5908 339.89 21.5109V74.6985C339.89 80.0102 336.954 84.8869 332.26 87.3723L294.453 107.389Z"/>
</mask>
<path d="M294.453 107.389C290.256 109.611 285.23 109.611 281.033 107.389L243.226 87.3723C238.531 84.8869 235.595 80.0102 235.595 74.6985V21.5109C235.595 13.5908 242.016 7.17029 249.936 7.17029H325.55C333.47 7.17029 339.89 13.5908 339.89 21.5109V74.6985C339.89 80.0102 336.954 84.8869 332.26 87.3723L294.453 107.389Z" fill="#C4212A"/>
<path d="M332.26 87.3723L336.094 94.6145L332.26 87.3723ZM243.226 87.3723L247.06 80.1301L243.226 87.3723ZM281.033 107.389L284.867 100.147L247.06 80.1301L243.226 87.3723L239.391 94.6145L277.198 114.631L281.033 107.389ZM235.595 74.6985H243.79V21.5109H235.595H227.401V74.6985H235.595ZM249.936 7.17029V15.3649H325.55V7.17029V-1.02433H249.936V7.17029ZM339.89 21.5109H331.696V74.6985H339.89H348.085V21.5109H339.89ZM332.26 87.3723L328.425 80.1301L290.619 100.147L294.453 107.389L298.287 114.631L336.094 94.6145L332.26 87.3723ZM339.89 74.6985H331.696C331.696 76.9749 330.437 79.0649 328.425 80.1301L332.26 87.3723L336.094 94.6145C343.471 90.7088 348.085 83.0455 348.085 74.6985H339.89ZM325.55 7.17029V15.3649C328.944 15.3649 331.696 18.1166 331.696 21.5109H339.89H348.085C348.085 9.06502 337.996 -1.02433 325.55 -1.02433V7.17029ZM235.595 21.5109H243.79C243.79 18.1166 246.542 15.3649 249.936 15.3649V7.17029V-1.02433C237.49 -1.02433 227.401 9.06502 227.401 21.5109H235.595ZM243.226 87.3723L247.06 80.1301C245.048 79.0649 243.79 76.9749 243.79 74.6985H235.595H227.401C227.401 83.0455 232.015 90.7088 239.391 94.6145L243.226 87.3723ZM281.033 107.389L277.198 114.631C283.794 118.124 291.691 118.124 298.287 114.631L294.453 107.389L290.619 100.147C288.82 101.099 286.666 101.099 284.867 100.147L281.033 107.389Z" fill="white" mask="url(#path-22-inside-3_9_138)"/>
</g>
<text id="score_3" fill="white" xml:space="preserve" style="white-space: pre" font-family="Arial Rounded MT Bold" font-size="47.1191" letter-spacing="0em"><tspan x="270.423" y="67.7034">*sc*</tspan></text>
</g>
<g id="bubble0">
<g id="Union_4" filter="url(#filter4_d_9_138)">
<mask id="path-25-inside-4_9_138" fill="white">
<path d="M404.056 107.389C399.859 109.611 394.833 109.611 390.636 107.389L352.829 87.3723C348.135 84.8869 345.198 80.0102 345.198 74.6985V21.5109C345.198 13.5908 351.619 7.17029 359.539 7.17029H435.153C443.073 7.17029 449.493 13.5908 449.493 21.5109V74.6985C449.493 80.0102 446.557 84.8869 441.863 87.3723L404.056 107.389Z"/>
</mask>
<path d="M404.056 107.389C399.859 109.611 394.833 109.611 390.636 107.389L352.829 87.3723C348.135 84.8869 345.198 80.0102 345.198 74.6985V21.5109C345.198 13.5908 351.619 7.17029 359.539 7.17029H435.153C443.073 7.17029 449.493 13.5908 449.493 21.5109V74.6985C449.493 80.0102 446.557 84.8869 441.863 87.3723L404.056 107.389Z" fill="#D74011"/>
<path d="M441.863 87.3723L445.697 94.6145L441.863 87.3723ZM352.829 87.3723L356.663 80.1301L352.829 87.3723ZM390.636 107.389L394.47 100.147L356.663 80.1301L352.829 87.3723L348.995 94.6145L386.801 114.631L390.636 107.389ZM345.198 74.6985H353.393V21.5109H345.198H337.004V74.6985H345.198ZM359.539 7.17029V15.3649H435.153V7.17029V-1.02433H359.539V7.17029ZM449.493 21.5109H441.299V74.6985H449.493H457.688V21.5109H449.493ZM441.863 87.3723L438.029 80.1301L400.222 100.147L404.056 107.389L407.89 114.631L445.697 94.6145L441.863 87.3723ZM449.493 74.6985H441.299C441.299 76.9749 440.04 79.0649 438.029 80.1301L441.863 87.3723L445.697 94.6145C453.074 90.7088 457.688 83.0455 457.688 74.6985H449.493ZM435.153 7.17029V15.3649C438.547 15.3649 441.299 18.1166 441.299 21.5109H449.493H457.688C457.688 9.06502 447.599 -1.02433 435.153 -1.02433V7.17029ZM345.198 21.5109H353.393C353.393 18.1166 356.145 15.3649 359.539 15.3649V7.17029V-1.02433C347.093 -1.02433 337.004 9.06502 337.004 21.5109H345.198ZM352.829 87.3723L356.663 80.1301C354.651 79.0649 353.393 76.9749 353.393 74.6985H345.198H337.004C337.004 83.0455 341.618 90.7088 348.995 94.6145L352.829 87.3723ZM390.636 107.389L386.801 114.631C393.397 118.124 401.294 118.124 407.89 114.631L404.056 107.389L400.222 100.147C398.423 101.099 396.269 101.099 394.47 100.147L390.636 107.389Z" fill="white" mask="url(#path-25-inside-4_9_138)"/>
</g>
<text id="score_4" fill="white" xml:space="preserve" style="white-space: pre" font-family="Arial Rounded MT Bold" font-size="47.1191" letter-spacing="0em"><tspan x="380.026" y="67.7034">*sc*</tspan></text>
</g>
<g id="bubble1">
<g id="Union_5" filter="url(#filter5_d_9_138)">
<mask id="path-28-inside-5_9_138" fill="white">
<path d="M513.659 107.389C509.462 109.611 504.436 109.611 500.239 107.389L462.432 87.3723C457.738 84.8869 454.802 80.0102 454.802 74.6985V21.5109C454.802 13.5908 461.222 7.17029 469.142 7.17029H544.756C552.676 7.17029 559.096 13.5908 559.096 21.5109V74.6985C559.096 80.0102 556.16 84.8869 551.466 87.3723L513.659 107.389Z"/>
</mask>
<path d="M513.659 107.389C509.462 109.611 504.436 109.611 500.239 107.389L462.432 87.3723C457.738 84.8869 454.802 80.0102 454.802 74.6985V21.5109C454.802 13.5908 461.222 7.17029 469.142 7.17029H544.756C552.676 7.17029 559.096 13.5908 559.096 21.5109V74.6985C559.096 80.0102 556.16 84.8869 551.466 87.3723L513.659 107.389Z" fill="#0E8743"/>
<path d="M551.466 87.3723L555.3 94.6145L551.466 87.3723ZM462.432 87.3723L466.266 80.1301L462.432 87.3723ZM500.239 107.389L504.073 100.147L466.266 80.1301L462.432 87.3723L458.598 94.6145L496.404 114.631L500.239 107.389ZM454.802 74.6985H462.996V21.5109H454.802H446.607V74.6985H454.802ZM469.142 7.17029V15.3649H544.756V7.17029V-1.02433H469.142V7.17029ZM559.096 21.5109H550.902V74.6985H559.096H567.291V21.5109H559.096ZM551.466 87.3723L547.632 80.1301L509.825 100.147L513.659 107.389L517.494 114.631L555.3 94.6145L551.466 87.3723ZM559.096 74.6985H550.902C550.902 76.9749 549.644 79.0649 547.632 80.1301L551.466 87.3723L555.3 94.6145C562.677 90.7088 567.291 83.0455 567.291 74.6985H559.096ZM544.756 7.17029V15.3649C548.15 15.3649 550.902 18.1166 550.902 21.5109H559.096H567.291C567.291 9.06502 557.202 -1.02433 544.756 -1.02433V7.17029ZM454.802 21.5109H462.996C462.996 18.1166 465.748 15.3649 469.142 15.3649V7.17029V-1.02433C456.696 -1.02433 446.607 9.06502 446.607 21.5109H454.802ZM462.432 87.3723L466.266 80.1301C464.254 79.0649 462.996 76.9749 462.996 74.6985H454.802H446.607C446.607 83.0455 451.221 90.7088 458.598 94.6145L462.432 87.3723ZM500.239 107.389L496.404 114.631C503 118.124 510.898 118.124 517.494 114.631L513.659 107.389L509.825 100.147C508.026 101.099 505.872 101.099 504.073 100.147L500.239 107.389Z" fill="white" mask="url(#path-28-inside-5_9_138)"/>
</g>
<text id="score_5" fill="white" xml:space="preserve" style="white-space: pre" font-family="Arial Rounded MT Bold" font-size="47.1191" letter-spacing="0em"><tspan x="489.629" y="67.7034">*sc*</tspan></text>
</g>
<g id="bubble2">
<g id="Union_6" filter="url(#filter6_d_9_138)">
<mask id="path-31-inside-6_9_138" fill="white">
<path d="M623.262 107.389C619.065 109.611 614.039 109.611 609.842 107.389L572.035 87.3723C567.341 84.8869 564.405 80.0102 564.405 74.6985V21.5109C564.405 13.5908 570.825 7.17029 578.745 7.17029H654.359C662.279 7.17029 668.7 13.5908 668.7 21.5109V74.6985C668.7 80.0102 665.763 84.8869 661.069 87.3723L623.262 107.389Z"/>
</mask>
<path d="M623.262 107.389C619.065 109.611 614.039 109.611 609.842 107.389L572.035 87.3723C567.341 84.8869 564.405 80.0102 564.405 74.6985V21.5109C564.405 13.5908 570.825 7.17029 578.745 7.17029H654.359C662.279 7.17029 668.7 13.5908 668.7 21.5109V74.6985C668.7 80.0102 665.763 84.8869 661.069 87.3723L623.262 107.389Z" fill="#0E8743"/>
<path d="M661.069 87.3723L664.903 94.6145L661.069 87.3723ZM572.035 87.3723L575.869 80.1301L572.035 87.3723ZM609.842 107.389L613.676 100.147L575.869 80.1301L572.035 87.3723L568.201 94.6145L606.008 114.631L609.842 107.389ZM564.405 74.6985H572.599V21.5109H564.405H556.21V74.6985H564.405ZM578.745 7.17029V15.3649H654.359V7.17029V-1.02433H578.745V7.17029ZM668.7 21.5109H660.505V74.6985H668.7H676.894V21.5109H668.7ZM661.069 87.3723L657.235 80.1301L619.428 100.147L623.262 107.389L627.097 114.631L664.903 94.6145L661.069 87.3723ZM668.7 74.6985H660.505C660.505 76.9749 659.247 79.0649 657.235 80.1301L661.069 87.3723L664.903 94.6145C672.28 90.7088 676.894 83.0455 676.894 74.6985H668.7ZM654.359 7.17029V15.3649C657.753 15.3649 660.505 18.1166 660.505 21.5109H668.7H676.894C676.894 9.06502 666.805 -1.02433 654.359 -1.02433V7.17029ZM564.405 21.5109H572.599C572.599 18.1166 575.351 15.3649 578.745 15.3649V7.17029V-1.02433C566.299 -1.02433 556.21 9.06502 556.21 21.5109H564.405ZM572.035 87.3723L575.869 80.1301C573.858 79.0649 572.599 76.9749 572.599 74.6985H564.405H556.21C556.21 83.0455 560.824 90.7088 568.201 94.6145L572.035 87.3723ZM609.842 107.389L606.008 114.631C612.604 118.124 620.501 118.124 627.097 114.631L623.262 107.389L619.428 100.147C617.629 101.099 615.475 101.099 613.676 100.147L609.842 107.389Z" fill="white" mask="url(#path-31-inside-6_9_138)"/>
</g>
<text id="score_6" fill="white" xml:space="preserve" style="white-space: pre" font-family="Arial Rounded MT Bold" font-size="47.1191" letter-spacing="0em"><tspan x="599.232" y="67.7034">*sc*</tspan></text>
</g>
<g id="bubble3">
<g id="Union_7" filter="url(#filter7_d_9_138)">
<mask id="path-34-inside-7_9_138" fill="white">
<path d="M732.865 107.389C728.668 109.611 723.642 109.611 719.445 107.389L681.638 87.3723C676.944 84.8869 674.008 80.0102 674.008 74.6985V21.5109C674.008 13.5908 680.428 7.17029 688.348 7.17029H763.962C771.882 7.17029 778.303 13.5908 778.303 21.5109V74.6985C778.303 80.0102 775.367 84.8869 770.672 87.3723L732.865 107.389Z"/>
</mask>
<path d="M732.865 107.389C728.668 109.611 723.642 109.611 719.445 107.389L681.638 87.3723C676.944 84.8869 674.008 80.0102 674.008 74.6985V21.5109C674.008 13.5908 680.428 7.17029 688.348 7.17029H763.962C771.882 7.17029 778.303 13.5908 778.303 21.5109V74.6985C778.303 80.0102 775.367 84.8869 770.672 87.3723L732.865 107.389Z" fill="#0E8743"/>
<path d="M770.672 87.3723L774.507 94.6145L770.672 87.3723ZM681.638 87.3723L685.473 80.1301L681.638 87.3723ZM719.445 107.389L723.279 100.147L685.473 80.1301L681.638 87.3723L677.804 94.6145L715.611 114.631L719.445 107.389ZM674.008 74.6985H682.202V21.5109H674.008H665.813V74.6985H674.008ZM688.348 7.17029V15.3649H763.962V7.17029V-1.02433H688.348V7.17029ZM778.303 21.5109H770.108V74.6985H778.303H786.497V21.5109H778.303ZM770.672 87.3723L766.838 80.1301L729.031 100.147L732.865 107.389L736.7 114.631L774.507 94.6145L770.672 87.3723ZM778.303 74.6985H770.108C770.108 76.9749 768.85 79.0649 766.838 80.1301L770.672 87.3723L774.507 94.6145C781.883 90.7088 786.497 83.0455 786.497 74.6985H778.303ZM763.962 7.17029V15.3649C767.356 15.3649 770.108 18.1166 770.108 21.5109H778.303H786.497C786.497 9.06502 776.408 -1.02433 763.962 -1.02433V7.17029ZM674.008 21.5109H682.202C682.202 18.1166 684.954 15.3649 688.348 15.3649V7.17029V-1.02433C675.902 -1.02433 665.813 9.06502 665.813 21.5109H674.008ZM681.638 87.3723L685.473 80.1301C683.461 79.0649 682.202 76.9749 682.202 74.6985H674.008H665.813C665.813 83.0455 670.427 90.7088 677.804 94.6145L681.638 87.3723ZM719.445 107.389L715.611 114.631C722.207 118.124 730.104 118.124 736.7 114.631L732.865 107.389L729.031 100.147C727.232 101.099 725.078 101.099 723.279 100.147L719.445 107.389Z" fill="white" mask="url(#path-34-inside-7_9_138)"/>
</g>
<text id="score_7" fill="white" xml:space="preserve" style="white-space: pre" font-family="Arial Rounded MT Bold" font-size="47.1191" letter-spacing="0em"><tspan x="708.835" y="67.7034">*sc*</tspan></text>
</g>
</g>
<defs>
<filter id="filter0_d_9_138" x="0" y="90.146" width="789.757" height="92.1946" filterUnits="userSpaceOnUse" color-interpolation-filters="sRGB">
<feFlood flood-opacity="0" result="BackgroundImageFix"/>
<feColorMatrix in="SourceAlpha" type="matrix" values="0 0 0 0 0 0 0 0 0 0 0 0 0 0 0 0 0 0 127 0" result="hardAlpha"/>
<feOffset dy="3.07298"/>
<feGaussianBlur stdDeviation="2.04866"/>
<feComposite in2="hardAlpha" operator="out"/>
<feColorMatrix type="matrix" values="0 0 0 0 0 0 0 0 0 0 0 0 0 0 0 0 0 0 0.12 0"/>
<feBlend mode="normal" in2="BackgroundImageFix" result="effect1_dropShadow_9_138"/>
<feBlend mode="normal" in="SourceGraphic" in2="effect1_dropShadow_9_138" result="shape"/>
</filter>
<filter id="filter1_d_9_138" x="4.09731" y="-6.19888e-06" width="128.879" height="126.469" filterUnits="userSpaceOnUse" color-interpolation-filters="sRGB">
<feFlood flood-opacity="0" result="BackgroundImageFix"/>
<feColorMatrix in="SourceAlpha" type="matrix" values="0 0 0 0 0 0 0 0 0 0 0 0 0 0 0 0 0 0 127 0" result="hardAlpha"/>
<feOffset dy="5.12164"/>
<feGaussianBlur stdDeviation="6.14597"/>
<feComposite in2="hardAlpha" operator="out"/>
<feColorMatrix type="matrix" values="0 0 0 0 0 0 0 0 0 0 0 0 0 0 0 0 0 0 0.2 0"/>
<feBlend mode="normal" in2="BackgroundImageFix" result="effect1_dropShadow_9_138"/>
<feBlend mode="normal" in="SourceGraphic" in2="effect1_dropShadow_9_138" result="shape"/>
</filter>
<filter id="filter2_d_9_138" x="113.7" y="-6.19888e-06" width="128.879" height="126.469" filterUnits="userSpaceOnUse" color-interpolation-filters="sRGB">
<feFlood flood-opacity="0" result="BackgroundImageFix"/>
<feColorMatrix in="SourceAlpha" type="matrix" values="0 0 0 0 0 0 0 0 0 0 0 0 0 0 0 0 0 0 127 0" result="hardAlpha"/>
<feOffset dy="5.12164"/>
<feGaussianBlur stdDeviation="6.14597"/>
<feComposite in2="hardAlpha" operator="out"/>
<feColorMatrix type="matrix" values="0 0 0 0 0 0 0 0 0 0 0 0 0 0 0 0 0 0 0.2 0"/>
<feBlend mode="normal" in2="BackgroundImageFix" result="effect1_dropShadow_9_138"/>
<feBlend mode="normal" in="SourceGraphic" in2="effect1_dropShadow_9_138" result="shape"/>
</filter>
<filter id="filter3_d_9_138" x="223.303" y="-6.19888e-06" width="128.879" height="126.469" filterUnits="userSpaceOnUse" color-interpolation-filters="sRGB">
<feFlood flood-opacity="0" result="BackgroundImageFix"/>
<feColorMatrix in="SourceAlpha" type="matrix" values="0 0 0 0 0 0 0 0 0 0 0 0 0 0 0 0 0 0 127 0" result="hardAlpha"/>
<feOffset dy="5.12164"/>
<feGaussianBlur stdDeviation="6.14597"/>
<feComposite in2="hardAlpha" operator="out"/>
<feColorMatrix type="matrix" values="0 0 0 0 0 0 0 0 0 0 0 0 0 0 0 0 0 0 0.2 0"/>
<feBlend mode="normal" in2="BackgroundImageFix" result="effect1_dropShadow_9_138"/>
<feBlend mode="normal" in="SourceGraphic" in2="effect1_dropShadow_9_138" result="shape"/>
</filter>
<filter id="filter4_d_9_138" x="332.907" y="-6.19888e-06" width="128.879" height="126.469" filterUnits="userSpaceOnUse" color-interpolation-filters="sRGB">
<feFlood flood-opacity="0" result="BackgroundImageFix"/>
<feColorMatrix in="SourceAlpha" type="matrix" values="0 0 0 0 0 0 0 0 0 0 0 0 0 0 0 0 0 0 127 0" result="hardAlpha"/>
<feOffset dy="5.12164"/>
<feGaussianBlur stdDeviation="6.14597"/>
<feComposite in2="hardAlpha" operator="out"/>
<feColorMatrix type="matrix" values="0 0 0 0 0 0 0 0 0 0 0 0 0 0 0 0 0 0 0.2 0"/>
<feBlend mode="normal" in2="BackgroundImageFix" result="effect1_dropShadow_9_138"/>
<feBlend mode="normal" in="SourceGraphic" in2="effect1_dropShadow_9_138" result="shape"/>
</filter>
<filter id="filter5_d_9_138" x="442.51" y="-6.19888e-06" width="128.879" height="126.469" filterUnits="userSpaceOnUse" color-interpolation-filters="sRGB">
<feFlood flood-opacity="0" result="BackgroundImageFix"/>
<feColorMatrix in="SourceAlpha" type="matrix" values="0 0 0 0 0 0 0 0 0 0 0 0 0 0 0 0 0 0 127 0" result="hardAlpha"/>
<feOffset dy="5.12164"/>
<feGaussianBlur stdDeviation="6.14597"/>
<feComposite in2="hardAlpha" operator="out"/>
<feColorMatrix type="matrix" values="0 0 0 0 0 0 0 0 0 0 0 0 0 0 0 0 0 0 0.2 0"/>
<feBlend mode="normal" in2="BackgroundImageFix" result="effect1_dropShadow_9_138"/>
<feBlend mode="normal" in="SourceGraphic" in2="effect1_dropShadow_9_138" result="shape"/>
</filter>
<filter id="filter6_d_9_138" x="552.113" y="-6.19888e-06" width="128.879" height="126.469" filterUnits="userSpaceOnUse" color-interpolation-filters="sRGB">
<feFlood flood-opacity="0" result="BackgroundImageFix"/>
<feColorMatrix in="SourceAlpha" type="matrix" values="0 0 0 0 0 0 0 0 0 0 0 0 0 0 0 0 0 0 127 0" result="hardAlpha"/>
<feOffset dy="5.12164"/>
<feGaussianBlur stdDeviation="6.14597"/>
<feComposite in2="hardAlpha" operator="out"/>
<feColorMatrix type="matrix" values="0 0 0 0 0 0 0 0 0 0 0 0 0 0 0 0 0 0 0.2 0"/>
<feBlend mode="normal" in2="BackgroundImageFix" result="effect1_dropShadow_9_138"/>
<feBlend mode="normal" in="SourceGraphic" in2="effect1_dropShadow_9_138" result="shape"/>
</filter>
<filter id="filter7_d_9_138" x="661.716" y="-6.19888e-06" width="128.879" height="126.469" filterUnits="userSpaceOnUse" color-interpolation-filters="sRGB">
<feFlood flood-opacity="0" result="BackgroundImageFix"/>
<feColorMatrix in="SourceAlpha" type="matrix" values="0 0 0 0 0 0 0 0 0 0 0 0 0 0 0 0 0 0 127 0" result="hardAlpha"/>
<feOffset dy="5.12164"/>
<feGaussianBlur stdDeviation="6.14597"/>
<feComposite in2="hardAlpha" operator="out"/>
<feColorMatrix type="matrix" values="0 0 0 0 0 0 0 0 0 0 0 0 0 0 0 0 0 0 0.2 0"/>
<feBlend mode="normal" in2="BackgroundImageFix" result="effect1_dropShadow_9_138"/>
<feBlend mode="normal" in="SourceGraphic" in2="effect1_dropShadow_9_138" result="shape"/>
</filter>
</defs>
</svg>
