<svg width="809" height="183" viewBox="0 0 809 183" fill="none" xmlns="http://www.w3.org/2000/svg">
<g id="slider-csuq_short">
<g id="Frame 1" filter="url(#filter0_d_62_56)">
<rect x="4.19397" y="91.3395" width="800" height="84" rx="27.2608" fill="white" shape-rendering="crispEdges"/>
<g id="frame-Low-Satisfaction">
<path d="M14.6789 118.6C14.6789 109.335 22.1897 101.824 31.4548 101.824H260.376C265.008 101.824 268.764 105.58 268.764 110.212V156.467C268.764 161.099 265.008 164.855 260.376 164.855H31.4548C22.1897 164.855 14.6789 157.344 14.6789 148.079V118.6Z" fill="#C4212A"/>
<text id="label" fill="white" xml:space="preserve" style="white-space: pre" font-family="Arial Rounded MT Bold" font-size="25.1638" letter-spacing="0em"><tspan x="116.275" y="142.592">Low</tspan></text>
</g>
<g id="frame-Moderate-Satisfaction">
<rect x="277.152" y="101.824" width="254.085" height="63.0301" rx="8.38794" fill="#D74011"/>
<text id="label2" fill="white" xml:space="preserve" style="white-space: pre" font-family="Arial Rounded MT Bold" font-size="25.1638" letter-spacing="0em"><tspan x="346.457" y="142.592">Moderate</tspan></text>
</g>
<g id="frame-High-Satisfaction">
<path d="M539.624 110.212C539.624 105.58 543.38 101.824 548.012 101.824H776.933C786.198 101.824 793.709 109.335 793.709 118.6V148.079C793.709 157.344 786.198 164.855 776.933 164.855H548.012C543.38 164.855 539.624 161.099 539.624 156.467V110.212Z" fill="#0E8743"/>
<text id="label3" fill="white" xml:space="preserve" style="white-space: pre" font-family="Arial Rounded MT Bold" font-size="25.1638" letter-spacing="0em"><tspan x="638.222" y="142.592">High</tspan></text>
</g>
</g>
<g id="bubble-Low-Satisfaction">
<g id="Union" filter="url(#filter1_d_62_56)">
<mask id="path-8-inside-1_62_56" fill="white">
<path d="M149.244 107.623C145.014 109.811 139.986 109.811 135.756 107.623L97.057 87.6059C92.1828 85.0848 89.1219 80.0555 89.1219 74.5679V22.0184C89.1219 13.9114 95.6939 7.33948 103.801 7.33948H181.199C189.306 7.33948 195.878 13.9114 195.878 22.0184V74.5679C195.878 80.0555 192.817 85.0848 187.943 87.6059L149.244 107.623Z"/>
</mask>
<path d="M149.244 107.623C145.014 109.811 139.986 109.811 135.756 107.623L97.057 87.6059C92.1828 85.0848 89.1219 80.0555 89.1219 74.5679V22.0184C89.1219 13.9114 95.6939 7.33948 103.801 7.33948H181.199C189.306 7.33948 195.878 13.9114 195.878 22.0184V74.5679C195.878 80.0555 192.817 85.0848 187.943 87.6059L149.244 107.623Z" fill="#C4212A"/>
<path d="M187.943 87.6059L184.089 80.1556L187.943 87.6059ZM97.057 87.6059L100.911 80.1556L97.057 87.6059ZM135.756 107.623L139.61 100.172L135.756 107.623ZM149.244 107.623L145.39 100.172L149.244 107.623ZM135.756 107.623L139.61 100.172L100.911 80.1556L97.057 87.6059L93.2033 95.0563L131.902 115.073L135.756 107.623ZM89.1219 74.5679H97.5098V22.0184H89.1219H80.7339V74.5679H89.1219ZM103.801 7.33948V15.7274H181.199V7.33948V-1.04846H103.801V7.33948ZM195.878 22.0184H187.49V74.5679H195.878H204.266V22.0184H195.878ZM187.943 87.6059L184.089 80.1556L145.39 100.172L149.244 107.623L153.097 115.073L191.796 95.0563L187.943 87.6059ZM195.878 74.5679H187.49C187.49 76.9197 186.178 79.0751 184.089 80.1556L187.943 87.6059L191.796 95.0563C199.456 91.0945 204.266 83.1912 204.266 74.5679H195.878ZM181.199 7.33948V15.7274C184.673 15.7274 187.49 18.544 187.49 22.0184H195.878H204.266C204.266 9.27891 193.938 -1.04846 181.199 -1.04846V7.33948ZM89.1219 22.0184H97.5098C97.5098 18.544 100.326 15.7274 103.801 15.7274V7.33948V-1.04846C91.0613 -1.04846 80.7339 9.27891 80.7339 22.0184H89.1219ZM97.057 87.6059L100.911 80.1556C98.8216 79.0751 97.5098 76.9197 97.5098 74.5679H89.1219H80.7339C80.7339 83.1913 85.5439 91.0945 93.2033 95.0563L97.057 87.6059ZM135.756 107.623L131.902 115.073C138.549 118.511 146.451 118.511 153.097 115.073L149.244 107.623L145.39 100.172C143.577 101.11 141.422 101.11 139.61 100.172L135.756 107.623Z" fill="white" mask="url(#path-8-inside-1_62_56)"/>
</g>
<text id="score" fill="white" xml:space="preserve" style="white-space: pre" font-family="Arial Rounded MT Bold" font-size="41.9397" letter-spacing="0em"><tspan x="111.14" y="62.9682">*sc*</tspan></text>
</g>
<g id="bubble-Moderate-Satisfaction">
<g id="Union_2" filter="url(#filter2_d_62_56)">
<mask id="path-11-inside-2_62_56" fill="white">
<path d="M411.367 107.623C407.137 109.811 402.109 109.811 397.879 107.623L359.18 87.6059C354.306 85.0848 351.245 80.0555 351.245 74.5679V22.0184C351.245 13.9114 357.817 7.33948 365.924 7.33948H443.322C451.429 7.33948 458.001 13.9114 458.001 22.0184V74.5679C458.001 80.0555 454.94 85.0848 450.066 87.6059L411.367 107.623Z"/>
</mask>
<path d="M411.367 107.623C407.137 109.811 402.109 109.811 397.879 107.623L359.18 87.6059C354.306 85.0848 351.245 80.0555 351.245 74.5679V22.0184C351.245 13.9114 357.817 7.33948 365.924 7.33948H443.322C451.429 7.33948 458.001 13.9114 458.001 22.0184V74.5679C458.001 80.0555 454.94 85.0848 450.066 87.6059L411.367 107.623Z" fill="#D74011"/>
<path d="M450.066 87.6059L446.212 80.1556L450.066 87.6059ZM359.18 87.6059L363.034 80.1556L359.18 87.6059ZM397.879 107.623L401.733 100.172L397.879 107.623ZM411.367 107.623L407.513 100.172L411.367 107.623ZM397.879 107.623L401.733 100.172L363.034 80.1556L359.18 87.6059L355.327 95.0563L394.026 115.073L397.879 107.623ZM351.245 74.5679H359.633V22.0184H351.245H342.857V74.5679H351.245ZM365.924 7.33948V15.7274H443.322V7.33948V-1.04846H365.924V7.33948ZM458.001 22.0184H449.613V74.5679H458.001H466.389V22.0184H458.001ZM450.066 87.6059L446.212 80.1556L407.513 100.172L411.367 107.623L415.22 115.073L453.92 95.0563L450.066 87.6059ZM458.001 74.5679H449.613C449.613 76.9197 448.301 79.0751 446.212 80.1556L450.066 87.6059L453.92 95.0563C461.579 91.0945 466.389 83.1912 466.389 74.5679H458.001ZM443.322 7.33948V15.7274C446.796 15.7274 449.613 18.544 449.613 22.0184H458.001H466.389C466.389 9.27891 456.062 -1.04846 443.322 -1.04846V7.33948ZM351.245 22.0184H359.633C359.633 18.544 362.45 15.7274 365.924 15.7274V7.33948V-1.04846C353.185 -1.04846 342.857 9.27891 342.857 22.0184H351.245ZM359.18 87.6059L363.034 80.1556C360.945 79.0751 359.633 76.9197 359.633 74.5679H351.245H342.857C342.857 83.1913 347.667 91.0945 355.327 95.0563L359.18 87.6059ZM397.879 107.623L394.026 115.073C400.672 118.511 408.574 118.511 415.22 115.073L411.367 107.623L407.513 100.172C405.7 101.11 403.546 101.11 401.733 100.172L397.879 107.623Z" fill="white" mask="url(#path-11-inside-2_62_56)"/>
</g>
<text id="score_2" fill="white" xml:space="preserve" style="white-space: pre" font-family="Arial Rounded MT Bold" font-size="41.9397" letter-spacing="0em"><tspan x="373.263" y="62.9682">*sc*</tspan></text>
</g>
<g id="bubble-High-Satisfaction">
<g id="Union_3" filter="url(#filter3_d_62_56)">
<mask id="path-14-inside-3_62_56" fill="white">
<path d="M674.539 107.623C670.309 109.811 665.281 109.811 661.051 107.623L622.352 87.6059C617.478 85.0848 614.417 80.0555 614.417 74.5679V22.0184C614.417 13.9114 620.989 7.33948 629.096 7.33948H706.494C714.601 7.33948 721.173 13.9114 721.173 22.0184V74.5679C721.173 80.0555 718.112 85.0848 713.238 87.6059L674.539 107.623Z"/>
</mask>
<path d="M674.539 107.623C670.309 109.811 665.281 109.811 661.051 107.623L622.352 87.6059C617.478 85.0848 614.417 80.0555 614.417 74.5679V22.0184C614.417 13.9114 620.989 7.33948 629.096 7.33948H706.494C714.601 7.33948 721.173 13.9114 721.173 22.0184V74.5679C721.173 80.0555 718.112 85.0848 713.238 87.6059L674.539 107.623Z" fill="#0E8743"/>
<path d="M713.238 87.6059L709.384 80.1556L713.238 87.6059ZM622.352 87.6059L626.205 80.1556L622.352 87.6059ZM661.051 107.623L664.904 100.172L661.051 107.623ZM674.539 107.623L670.685 100.172L674.539 107.623ZM661.051 107.623L664.904 100.172L626.205 80.1556L622.352 87.6059L618.498 95.0563L657.197 115.073L661.051 107.623ZM614.417 74.5679H622.805V22.0184H614.417H606.029V74.5679H614.417ZM629.096 7.33948V15.7274H706.494V7.33948V-1.04846H629.096V7.33948ZM721.173 22.0184H712.785V74.5679H721.173H729.561V22.0184H721.173ZM713.238 87.6059L709.384 80.1556L670.685 100.172L674.539 107.623L678.392 115.073L717.091 95.0563L713.238 87.6059ZM721.173 74.5679H712.785C712.785 76.9197 711.473 79.0751 709.384 80.1556L713.238 87.6059L717.091 95.0563C724.751 91.0945 729.561 83.1912 729.561 74.5679H721.173ZM706.494 7.33948V15.7274C709.968 15.7274 712.785 18.544 712.785 22.0184H721.173H729.561C729.561 9.27891 719.233 -1.04846 706.494 -1.04846V7.33948ZM614.417 22.0184H622.805C622.805 18.544 625.621 15.7274 629.096 15.7274V7.33948V-1.04846C616.356 -1.04846 606.029 9.27891 606.029 22.0184H614.417ZM622.352 87.6059L626.205 80.1556C624.117 79.0751 622.805 76.9197 622.805 74.5679H614.417H606.029C606.029 83.1913 610.839 91.0945 618.498 95.0563L622.352 87.6059ZM661.051 107.623L657.197 115.073C663.844 118.511 671.745 118.511 678.392 115.073L674.539 107.623L670.685 100.172C668.872 101.11 666.717 101.11 664.904 100.172L661.051 107.623Z" fill="white" mask="url(#path-14-inside-3_62_56)"/>
</g>
<text id="score_3" fill="white" xml:space="preserve" style="white-space: pre" font-family="Arial Rounded MT Bold" font-size="41.9397" letter-spacing="0em"><tspan x="636.435" y="62.9682">*sc*</tspan></text>
</g>
</g>
<defs>
<filter id="filter0_d_62_56" x="0" y="90.291" width="808.388" height="92.3879" filterUnits="userSpaceOnUse" color-interpolation-filters="sRGB">
<feFlood flood-opacity="0" result="BackgroundImageFix"/>
<feColorMatrix in="SourceAlpha" type="matrix" values="0 0 0 0 0 0 0 0 0 0 0 0 0 0 0 0 0 0 127 0" result="hardAlpha"/>
<feOffset dy="3.14548"/>
<feGaussianBlur stdDeviation="2.09699"/>
<feComposite in2="hardAlpha" operator="out"/>
<feColorMatrix type="matrix" values="0 0 0 0 0 0 0 0 0 0 0 0 0 0 0 0 0 0 0.12 0"/>
<feBlend mode="normal" in2="BackgroundImageFix" result="effect1_dropShadow_62_56"/>
<feBlend mode="normal" in="SourceGraphic" in2="effect1_dropShadow_62_56" result="shape"/>
</filter>
<filter id="filter1_d_62_56" x="76.54" y="2.86102e-05" width="131.92" height="127.088" filterUnits="userSpaceOnUse" color-interpolation-filters="sRGB">
<feFlood flood-opacity="0" result="BackgroundImageFix"/>
<feColorMatrix in="SourceAlpha" type="matrix" values="0 0 0 0 0 0 0 0 0 0 0 0 0 0 0 0 0 0 127 0" result="hardAlpha"/>
<feOffset dy="5.24246"/>
<feGaussianBlur stdDeviation="6.29096"/>
<feComposite in2="hardAlpha" operator="out"/>
<feColorMatrix type="matrix" values="0 0 0 0 0 0 0 0 0 0 0 0 0 0 0 0 0 0 0.2 0"/>
<feBlend mode="normal" in2="BackgroundImageFix" result="effect1_dropShadow_62_56"/>
<feBlend mode="normal" in="SourceGraphic" in2="effect1_dropShadow_62_56" result="shape"/>
</filter>
<filter id="filter2_d_62_56" x="338.663" y="2.86102e-05" width="131.92" height="127.088" filterUnits="userSpaceOnUse" color-interpolation-filters="sRGB">
<feFlood flood-opacity="0" result="BackgroundImageFix"/>
<feColorMatrix in="SourceAlpha" type="matrix" values="0 0 0 0 0 0 0 0 0 0 0 0 0 0 0 0 0 0 127 0" result="hardAlpha"/>
<feOffset dy="5.24246"/>
<feGaussianBlur stdDeviation="6.29096"/>
<feComposite in2="hardAlpha" operator="out"/>
<feColorMatrix type="matrix" values="0 0 0 0 0 0 0 0 0 0 0 0 0 0 0 0 0 0 0.2 0"/>
<feBlend mode="normal" in2="BackgroundImageFix" result="effect1_dropShadow_62_56"/>
<feBlend mode="normal" in="SourceGraphic" in2="effect1_dropShadow_62_56" result="shape"/>
</filter>
<filter id="filter3_d_62_56" x="601.835" y="2.86102e-05" width="131.92" height="127.088" filterUnits="userSpaceOnUse" color-interpolation-filters="sRGB">
<feFlood flood-opacity="0" result="BackgroundImageFix"/>
<feColorMatrix in="SourceAlpha" type="matrix" values="0 0 0 0 0 0 0 0 0 0 0 0 0 0 0 0 0 0 127 0" result="hardAlpha"/>
<feOffset dy="5.24246"/>
<feGaussianBlur stdDeviation="6.29096"/>
<feComposite in2="hardAlpha" operator="out"/>
<feColorMatrix type="matrix" values="0 0 0 0 0 0 0 0 0 0 0 0 0 0 0 0 0 0 0.2 0"/>
<feBlend mode="normal" in2="BackgroundImageFix" result="effect1_dropShadow_62_56"/>
<feBlend mode="normal" in="SourceGraphic" in2="effect1_dropShadow_62_56" result="shape"/>
</filter>
</defs>
</svg>
