<svg width="771" height="174" viewBox="0 0 771 174" fill="none" xmlns="http://www.w3.org/2000/svg">
<g id="slider-sus">
<g id="Frame 1" filter="url(#filter0_d_8_76)">
<rect x="4" y="87" width="763" height="80" rx="26" fill="white" shape-rendering="crispEdges"/>
<g id="frame-Not-Acceptable">
<path d="M14 113C14 104.163 21.1634 97 30 97H384C388.418 97 392 100.582 392 105V149C392 153.418 388.418 157 384 157H30C21.1635 157 14 149.837 14 141V113Z" fill="#C4212A"/>
<text id="label" fill="white" xml:space="preserve" style="white-space: pre" font-family="Arial Rounded MT Bold" font-size="21.8182" letter-spacing="0em"><tspan x="121.214" y="135.022">Not Acceptable</tspan></text>
</g>
<g id="frame-Marginal">
<rect x="400" y="97" width="138" height="60" rx="8" fill="#F06D44"/>
<text id="label2" fill="white" xml:space="preserve" style="white-space: pre" font-family="Arial Rounded MT Bold" font-size="21.8182" letter-spacing="0em"><tspan x="423.094" y="135.022">Marginal</tspan></text>
</g>
<g id="frame-Acceptable">
<path d="M546 105C546 100.582 549.582 97 554 97H741C749.837 97 757 104.163 757 113V141C757 149.837 749.837 157 741 157H554C549.582 157 546 153.418 546 149V105Z" fill="#0E8743"/>
<text id="label3" fill="white" xml:space="preserve" style="white-space: pre" font-family="Arial Rounded MT Bold" font-size="21.8182" letter-spacing="0em"><tspan x="591.191" y="135.022">Acceptable</tspan></text>
</g>
</g>
<g id="Not-Acceptable">
<g id="Union" filter="url(#filter1_d_8_76)">
<mask id="path-8-inside-1_8_76" fill="white">
<path d="M209.334 102.512C205.304 104.593 200.515 104.593 196.485 102.512L159.575 83.4488C154.923 81.0456 152 76.2467 152 71.0099V21C152 13.268 158.268 7 166 7H239.818C247.55 7 253.818 13.268 253.818 21V71.0099C253.818 76.2467 250.896 81.0456 246.243 83.4488L209.334 102.512Z"/>
</mask>
<path d="M209.334 102.512C205.304 104.593 200.515 104.593 196.485 102.512L159.575 83.4488C154.923 81.0456 152 76.2467 152 71.0099V21C152 13.268 158.268 7 166 7H239.818C247.55 7 253.818 13.268 253.818 21V71.0099C253.818 76.2467 250.896 81.0456 246.243 83.4488L209.334 102.512Z" fill="#C4212A"/>
<path d="M246.243 83.4488L242.572 76.3408L246.243 83.4488ZM159.575 83.4488L163.247 76.3409L159.575 83.4488ZM209.334 102.512L205.663 95.404L209.334 102.512ZM196.485 102.512L200.156 95.404L163.247 76.3409L159.575 83.4488L155.904 90.5567L192.814 109.62L196.485 102.512ZM152 71.0099H160V21H152H144V71.0099H152ZM166 7V15H239.818V7V-1H166V7ZM253.818 21H245.818V71.0099H253.818H261.818V21H253.818ZM246.243 83.4488L242.572 76.3408L205.663 95.404L209.334 102.512L213.005 109.62L249.914 90.5567L246.243 83.4488ZM253.818 71.0099H245.818C245.818 73.2542 244.566 75.3109 242.572 76.3408L246.243 83.4488L249.914 90.5567C257.226 86.7803 261.818 79.2391 261.818 71.0099H253.818ZM239.818 7V15C243.132 15 245.818 17.6863 245.818 21H253.818H261.818C261.818 8.84974 251.969 -1 239.818 -1V7ZM152 21H160C160 17.6863 162.686 15 166 15V7V-1C153.85 -1 144 8.84973 144 21H152ZM159.575 83.4488L163.247 76.3409C161.253 75.3109 160 73.2542 160 71.0099H152H144C144 79.2391 148.593 86.7803 155.904 90.5567L159.575 83.4488ZM196.485 102.512L192.814 109.62C199.147 112.891 206.672 112.891 213.005 109.62L209.334 102.512L205.663 95.404C203.935 96.296 201.883 96.296 200.156 95.404L196.485 102.512Z" fill="white" mask="url(#path-8-inside-1_8_76)"/>
</g>
<text id="score" fill="white" xml:space="preserve" style="white-space: pre" font-family="Arial Rounded MT Bold" font-size="46" letter-spacing="0em"><tspan x="175" y="65.3736">*sc*</tspan></text>
</g>
<g id="Marginal">
<g id="Union_2" filter="url(#filter2_d_8_76)">
<mask id="path-11-inside-2_8_76" fill="white">
<path d="M475.334 102.512C471.304 104.593 466.515 104.593 462.485 102.512L425.575 83.4488C420.923 81.0456 418 76.2467 418 71.0099V21C418 13.268 424.268 7 432 7H505.818C513.55 7 519.818 13.268 519.818 21V71.0099C519.818 76.2467 516.896 81.0456 512.243 83.4488L475.334 102.512Z"/>
</mask>
<path d="M475.334 102.512C471.304 104.593 466.515 104.593 462.485 102.512L425.575 83.4488C420.923 81.0456 418 76.2467 418 71.0099V21C418 13.268 424.268 7 432 7H505.818C513.55 7 519.818 13.268 519.818 21V71.0099C519.818 76.2467 516.896 81.0456 512.243 83.4488L475.334 102.512Z" fill="#F06D44"/>
<path d="M512.243 83.4488L508.572 76.3408L512.243 83.4488ZM425.575 83.4488L429.247 76.3409L425.575 83.4488ZM475.334 102.512L471.663 95.404L475.334 102.512ZM462.485 102.512L466.156 95.404L429.247 76.3409L425.575 83.4488L421.904 90.5567L458.814 109.62L462.485 102.512ZM418 71.0099H426V21H418H410V71.0099H418ZM432 7V15H505.818V7V-1H432V7ZM519.818 21H511.818V71.0099H519.818H527.818V21H519.818ZM512.243 83.4488L508.572 76.3408L471.663 95.404L475.334 102.512L479.005 109.62L515.914 90.5567L512.243 83.4488ZM519.818 71.0099H511.818C511.818 73.2542 510.566 75.3109 508.572 76.3408L512.243 83.4488L515.914 90.5567C523.226 86.7803 527.818 79.2391 527.818 71.0099H519.818ZM505.818 7V15C509.132 15 511.818 17.6863 511.818 21H519.818H527.818C527.818 8.84974 517.969 -1 505.818 -1V7ZM418 21H426C426 17.6863 428.686 15 432 15V7V-1C419.85 -1 410 8.84973 410 21H418ZM425.575 83.4488L429.247 76.3409C427.253 75.3109 426 73.2542 426 71.0099H418H410C410 79.2391 414.593 86.7803 421.904 90.5567L425.575 83.4488ZM462.485 102.512L458.814 109.62C465.147 112.891 472.672 112.891 479.005 109.62L475.334 102.512L471.663 95.404C469.935 96.296 467.883 96.296 466.156 95.404L462.485 102.512Z" fill="white" mask="url(#path-11-inside-2_8_76)"/>
</g>
<text id="score_2" fill="white" xml:space="preserve" style="white-space: pre" font-family="Arial Rounded MT Bold" font-size="46" letter-spacing="0em"><tspan x="441" y="65.3736">*sc*</tspan></text>
</g>
<g id="Acceptable">
<g id="Union_3" filter="url(#filter3_d_8_76)">
<mask id="path-14-inside-3_8_76" fill="white">
<path d="M658.334 102.512C654.304 104.593 649.515 104.593 645.485 102.512L608.575 83.4488C603.923 81.0456 601 76.2467 601 71.0099V21C601 13.268 607.268 7 615 7H688.818C696.55 7 702.818 13.268 702.818 21V71.0099C702.818 76.2467 699.896 81.0456 695.243 83.4488L658.334 102.512Z"/>
</mask>
<path d="M658.334 102.512C654.304 104.593 649.515 104.593 645.485 102.512L608.575 83.4488C603.923 81.0456 601 76.2467 601 71.0099V21C601 13.268 607.268 7 615 7H688.818C696.55 7 702.818 13.268 702.818 21V71.0099C702.818 76.2467 699.896 81.0456 695.243 83.4488L658.334 102.512Z" fill="#0E8743"/>
<path d="M695.243 83.4488L691.572 76.3408L695.243 83.4488ZM608.575 83.4488L612.247 76.3409L608.575 83.4488ZM658.334 102.512L654.663 95.404L658.334 102.512ZM645.485 102.512L649.156 95.404L612.247 76.3409L608.575 83.4488L604.904 90.5567L641.814 109.62L645.485 102.512ZM601 71.0099H609V21H601H593V71.0099H601ZM615 7V15H688.818V7V-1H615V7ZM702.818 21H694.818V71.0099H702.818H710.818V21H702.818ZM695.243 83.4488L691.572 76.3408L654.663 95.404L658.334 102.512L662.005 109.62L698.914 90.5567L695.243 83.4488ZM702.818 71.0099H694.818C694.818 73.2542 693.566 75.3109 691.572 76.3408L695.243 83.4488L698.914 90.5567C706.226 86.7803 710.818 79.2391 710.818 71.0099H702.818ZM688.818 7V15C692.132 15 694.818 17.6863 694.818 21H702.818H710.818C710.818 8.84974 700.969 -1 688.818 -1V7ZM601 21H609C609 17.6863 611.686 15 615 15V7V-1C602.85 -1 593 8.84973 593 21H601ZM608.575 83.4488L612.247 76.3409C610.253 75.3109 609 73.2542 609 71.0099H601H593C593 79.2391 597.593 86.7803 604.904 90.5567L608.575 83.4488ZM645.485 102.512L641.814 109.62C648.147 112.891 655.672 112.891 662.005 109.62L658.334 102.512L654.663 95.404C652.935 96.296 650.883 96.296 649.156 95.404L645.485 102.512Z" fill="white" mask="url(#path-14-inside-3_8_76)"/>
</g>
<text id="score_3" fill="white" xml:space="preserve" style="white-space: pre" font-family="Arial Rounded MT Bold" font-size="46" letter-spacing="0em"><tspan x="624" y="65.3736">*sc*</tspan></text>
</g>
</g>
<defs>
<filter id="filter0_d_8_76" x="0" y="86" width="771" height="88" filterUnits="userSpaceOnUse" color-interpolation-filters="sRGB">
<feFlood flood-opacity="0" result="BackgroundImageFix"/>
<feColorMatrix in="SourceAlpha" type="matrix" values="0 0 0 0 0 0 0 0 0 0 0 0 0 0 0 0 0 0 127 0" result="hardAlpha"/>
<feOffset dy="3"/>
<feGaussianBlur stdDeviation="2"/>
<feComposite in2="hardAlpha" operator="out"/>
<feColorMatrix type="matrix" values="0 0 0 0 0 0 0 0 0 0 0 0 0 0 0 0 0 0 0.12 0"/>
<feBlend mode="normal" in2="BackgroundImageFix" result="effect1_dropShadow_8_76"/>
<feBlend mode="normal" in="SourceGraphic" in2="effect1_dropShadow_8_76" result="shape"/>
</filter>
<filter id="filter1_d_8_76" x="140" y="0" width="125.818" height="121.073" filterUnits="userSpaceOnUse" color-interpolation-filters="sRGB">
<feFlood flood-opacity="0" result="BackgroundImageFix"/>
<feColorMatrix in="SourceAlpha" type="matrix" values="0 0 0 0 0 0 0 0 0 0 0 0 0 0 0 0 0 0 127 0" result="hardAlpha"/>
<feOffset dy="5"/>
<feGaussianBlur stdDeviation="6"/>
<feComposite in2="hardAlpha" operator="out"/>
<feColorMatrix type="matrix" values="0 0 0 0 0 0 0 0 0 0 0 0 0 0 0 0 0 0 0.2 0"/>
<feBlend mode="normal" in2="BackgroundImageFix" result="effect1_dropShadow_8_76"/>
<feBlend mode="normal" in="SourceGraphic" in2="effect1_dropShadow_8_76" result="shape"/>
</filter>
<filter id="filter2_d_8_76" x="406" y="0" width="125.818" height="121.073" filterUnits="userSpaceOnUse" color-interpolation-filters="sRGB">
<feFlood flood-opacity="0" result="BackgroundImageFix"/>
<feColorMatrix in="SourceAlpha" type="matrix" values="0 0 0 0 0 0 0 0 0 0 0 0 0 0 0 0 0 0 127 0" result="hardAlpha"/>
<feOffset dy="5"/>
<feGaussianBlur stdDeviation="6"/>
<feComposite in2="hardAlpha" operator="out"/>
<feColorMatrix type="matrix" values="0 0 0 0 0 0 0 0 0 0 0 0 0 0 0 0 0 0 0.2 0"/>
<feBlend mode="normal" in2="BackgroundImageFix" result="effect1_dropShadow_8_76"/>
<feBlend mode="normal" in="SourceGraphic" in2="effect1_dropShadow_8_76" result="shape"/>
</filter>
<filter id="filter3_d_8_76" x="589" y="0" width="125.818" height="121.073" filterUnits="userSpaceOnUse" color-interpolation-filters="sRGB">
<feFlood flood-opacity="0" result="BackgroundImageFix"/>
<feColorMatrix in="SourceAlpha" type="matrix" values="0 0 0 0 0 0 0 0 0 0 0 0 0 0 0 0 0 0 127 0" result="hardAlpha"/>
<feOffset dy="5"/>
<feGaussianBlur stdDeviation="6"/>
<feComposite in2="hardAlpha" operator="out"/>
<feColorMatrix type="matrix" values="0 0 0 0 0 0 0 0 0 0 0 0 0 0 0 0 0 0 0.2 0"/>
<feBlend mode="normal" in2="BackgroundImageFix" result="effect1_dropShadow_8_76"/>
<feBlend mode="normal" in="SourceGraphic" in2="effect1_dropShadow_8_76" result="shape"/>
</filter>
</defs>
</svg>
