<svg width="771" height="174" viewBox="0 0 771 174" fill="none" xmlns="http://www.w3.org/2000/svg">
<g id="slider-csuq_short">
<g id="Frame 1" filter="url(#filter0_d_62_56)">
<rect x="4" y="87" width="763" height="80" rx="26" fill="white" shape-rendering="crispEdges"/>
<g id="frame-Low-Satisfaction">
<path d="M14 113C14 104.163 21.1634 97 30 97H248.333C252.752 97 256.333 100.582 256.333 105V149C256.333 153.418 252.752 157 248.333 157H30C21.1634 157 14 149.837 14 141V113Z" fill="#C4212A"/>
<text id="label" fill="white" xml:space="preserve" style="white-space: pre" font-family="Arial Rounded MT Bold" font-size="24" letter-spacing="0em"><tspan x="110.897" y="135.824">Low</tspan></text>
</g>
<g id="frame-Moderate-Satisfaction">
<rect x="264.333" y="97" width="242.333" height="60" rx="8" fill="#F06D44"/>
<text id="label2" fill="white" xml:space="preserve" style="white-space: pre" font-family="Arial Rounded MT Bold" font-size="24" letter-spacing="0em"><tspan x="330.434" y="135.824">Moderate</tspan></text>
</g>
<g id="frame-High-Satisfaction">
<path d="M514.667 105C514.667 100.582 518.248 97 522.667 97H741C749.837 97 757 104.163 757 113V141C757 149.837 749.837 157 741 157H522.667C518.248 157 514.667 153.418 514.667 149V105Z" fill="#0E8743"/>
<text id="label3" fill="white" xml:space="preserve" style="white-space: pre" font-family="Arial Rounded MT Bold" font-size="24" letter-spacing="0em"><tspan x="608.704" y="135.824">High</tspan></text>
</g>
</g>
<g id="bubble-Low-Satisfaction">
<g id="Union" filter="url(#filter1_d_62_56)">
<mask id="path-8-inside-1_62_56" fill="white">
<path d="M142.334 102.512C138.304 104.593 133.515 104.593 129.485 102.512L92.5755 83.4488C87.9226 81.0456 85 76.2467 85 71.0099V21C85 13.268 91.268 7 99 7H172.818C180.55 7 186.818 13.268 186.818 21V71.0099C186.818 76.2467 183.896 81.0456 179.243 83.4488L142.334 102.512Z"/>
</mask>
<path d="M142.334 102.512C138.304 104.593 133.515 104.593 129.485 102.512L92.5755 83.4488C87.9226 81.0456 85 76.2467 85 71.0099V21C85 13.268 91.268 7 99 7H172.818C180.55 7 186.818 13.268 186.818 21V71.0099C186.818 76.2467 183.896 81.0456 179.243 83.4488L142.334 102.512Z" fill="#C4212A"/>
<path d="M179.243 83.4488L175.572 76.3408L179.243 83.4488ZM92.5755 83.4488L96.2466 76.3408L92.5755 83.4488ZM142.334 102.512L138.663 95.404L142.334 102.512ZM129.485 102.512L133.156 95.404L96.2466 76.3408L92.5755 83.4488L88.9043 90.5567L125.814 109.62L129.485 102.512ZM85 71.0099H93V21H85H77V71.0099H85ZM99 7V15H172.818V7V-1H99V7ZM186.818 21H178.818V71.0099H186.818H194.818V21H186.818ZM179.243 83.4488L175.572 76.3408L138.663 95.404L142.334 102.512L146.005 109.62L182.914 90.5567L179.243 83.4488ZM186.818 71.0099H178.818C178.818 73.2542 177.566 75.3109 175.572 76.3408L179.243 83.4488L182.914 90.5567C190.226 86.7803 194.818 79.2391 194.818 71.0099H186.818ZM172.818 7V15C176.132 15 178.818 17.6863 178.818 21H186.818H194.818C194.818 8.84974 184.969 -1 172.818 -1V7ZM85 21H93C93 17.6863 95.6863 15 99 15V7V-1C86.8497 -1 77 8.84973 77 21H85ZM92.5755 83.4488L96.2466 76.3408C94.2526 75.3109 93 73.2542 93 71.0099H85H77C77 79.2391 81.5927 86.7804 88.9043 90.5567L92.5755 83.4488ZM129.485 102.512L125.814 109.62C132.147 112.891 139.672 112.891 146.005 109.62L142.334 102.512L138.663 95.404C136.935 96.296 134.883 96.296 133.156 95.404L129.485 102.512Z" fill="white" mask="url(#path-8-inside-1_62_56)"/>
</g>
<text id="score" fill="white" xml:space="preserve" style="white-space: pre" font-family="Arial Rounded MT Bold" font-size="40" letter-spacing="0em"><tspan x="106" y="59.6675">*sc*</tspan></text>
</g>
<g id="bubble-Moderate-Satisfaction">
<g id="Union_2" filter="url(#filter2_d_62_56)">
<mask id="path-11-inside-2_62_56" fill="white">
<path d="M392.334 102.512C388.304 104.593 383.515 104.593 379.485 102.512L342.575 83.4488C337.923 81.0456 335 76.2467 335 71.0099V21C335 13.268 341.268 7 349 7H422.818C430.55 7 436.818 13.268 436.818 21V71.0099C436.818 76.2467 433.896 81.0456 429.243 83.4488L392.334 102.512Z"/>
</mask>
<path d="M392.334 102.512C388.304 104.593 383.515 104.593 379.485 102.512L342.575 83.4488C337.923 81.0456 335 76.2467 335 71.0099V21C335 13.268 341.268 7 349 7H422.818C430.55 7 436.818 13.268 436.818 21V71.0099C436.818 76.2467 433.896 81.0456 429.243 83.4488L392.334 102.512Z" fill="#F06D44"/>
<path d="M429.243 83.4488L425.572 76.3408L429.243 83.4488ZM342.575 83.4488L346.247 76.3408L342.575 83.4488ZM392.334 102.512L388.663 95.404L392.334 102.512ZM379.485 102.512L383.156 95.404L346.247 76.3408L342.575 83.4488L338.904 90.5567L375.814 109.62L379.485 102.512ZM335 71.0099H343V21H335H327V71.0099H335ZM349 7V15H422.818V7V-1H349V7ZM436.818 21H428.818V71.0099H436.818H444.818V21H436.818ZM429.243 83.4488L425.572 76.3408L388.663 95.404L392.334 102.512L396.005 109.62L432.914 90.5567L429.243 83.4488ZM436.818 71.0099H428.818C428.818 73.2542 427.566 75.3109 425.572 76.3408L429.243 83.4488L432.914 90.5567C440.226 86.7803 444.818 79.2391 444.818 71.0099H436.818ZM422.818 7V15C426.132 15 428.818 17.6863 428.818 21H436.818H444.818C444.818 8.84974 434.969 -1 422.818 -1V7ZM335 21H343C343 17.6863 345.686 15 349 15V7V-1C336.85 -1 327 8.84973 327 21H335ZM342.575 83.4488L346.247 76.3408C344.253 75.3109 343 73.2542 343 71.0099H335H327C327 79.2391 331.593 86.7804 338.904 90.5567L342.575 83.4488ZM379.485 102.512L375.814 109.62C382.147 112.891 389.672 112.891 396.005 109.62L392.334 102.512L388.663 95.404C386.935 96.296 384.883 96.296 383.156 95.404L379.485 102.512Z" fill="white" mask="url(#path-11-inside-2_62_56)"/>
</g>
<text id="score_2" fill="white" xml:space="preserve" style="white-space: pre" font-family="Arial Rounded MT Bold" font-size="40" letter-spacing="0em"><tspan x="356" y="59.6675">*sc*</tspan></text>
</g>
<g id="bubble-High-Satisfaction">
<g id="Union_3" filter="url(#filter3_d_62_56)">
<mask id="path-14-inside-3_62_56" fill="white">
<path d="M643.334 102.512C639.304 104.593 634.515 104.593 630.485 102.512L593.575 83.4488C588.923 81.0456 586 76.2467 586 71.0099V21C586 13.268 592.268 7 600 7H673.818C681.55 7 687.818 13.268 687.818 21V71.0099C687.818 76.2467 684.896 81.0456 680.243 83.4488L643.334 102.512Z"/>
</mask>
<path d="M643.334 102.512C639.304 104.593 634.515 104.593 630.485 102.512L593.575 83.4488C588.923 81.0456 586 76.2467 586 71.0099V21C586 13.268 592.268 7 600 7H673.818C681.55 7 687.818 13.268 687.818 21V71.0099C687.818 76.2467 684.896 81.0456 680.243 83.4488L643.334 102.512Z" fill="#0E8743"/>
<path d="M680.243 83.4488L676.572 76.3408L680.243 83.4488ZM593.575 83.4488L597.247 76.3408L593.575 83.4488ZM643.334 102.512L639.663 95.404L643.334 102.512ZM630.485 102.512L634.156 95.404L597.247 76.3408L593.575 83.4488L589.904 90.5567L626.814 109.62L630.485 102.512ZM586 71.0099H594V21H586H578V71.0099H586ZM600 7V15H673.818V7V-1H600V7ZM687.818 21H679.818V71.0099H687.818H695.818V21H687.818ZM680.243 83.4488L676.572 76.3408L639.663 95.404L643.334 102.512L647.005 109.62L683.914 90.5567L680.243 83.4488ZM687.818 71.0099H679.818C679.818 73.2542 678.566 75.3109 676.572 76.3408L680.243 83.4488L683.914 90.5567C691.226 86.7803 695.818 79.2391 695.818 71.0099H687.818ZM673.818 7V15C677.132 15 679.818 17.6863 679.818 21H687.818H695.818C695.818 8.84974 685.969 -1 673.818 -1V7ZM586 21H594C594 17.6863 596.686 15 600 15V7V-1C587.85 -1 578 8.84973 578 21H586ZM593.575 83.4488L597.247 76.3408C595.253 75.3109 594 73.2542 594 71.0099H586H578C578 79.2391 582.593 86.7804 589.904 90.5567L593.575 83.4488ZM630.485 102.512L626.814 109.62C633.147 112.891 640.672 112.891 647.005 109.62L643.334 102.512L639.663 95.404C637.935 96.296 635.883 96.296 634.156 95.404L630.485 102.512Z" fill="white" mask="url(#path-14-inside-3_62_56)"/>
</g>
<text id="score_3" fill="white" xml:space="preserve" style="white-space: pre" font-family="Arial Rounded MT Bold" font-size="40" letter-spacing="0em"><tspan x="607" y="59.6675">*sc*</tspan></text>
</g>
</g>
<defs>
<filter id="filter0_d_62_56" x="0" y="86" width="771" height="88" filterUnits="userSpaceOnUse" color-interpolation-filters="sRGB">
<feFlood flood-opacity="0" result="BackgroundImageFix"/>
<feColorMatrix in="SourceAlpha" type="matrix" values="0 0 0 0 0 0 0 0 0 0 0 0 0 0 0 0 0 0 127 0" result="hardAlpha"/>
<feOffset dy="3"/>
<feGaussianBlur stdDeviation="2"/>
<feComposite in2="hardAlpha" operator="out"/>
<feColorMatrix type="matrix" values="0 0 0 0 0 0 0 0 0 0 0 0 0 0 0 0 0 0 0.12 0"/>
<feBlend mode="normal" in2="BackgroundImageFix" result="effect1_dropShadow_62_56"/>
<feBlend mode="normal" in="SourceGraphic" in2="effect1_dropShadow_62_56" result="shape"/>
</filter>
<filter id="filter1_d_62_56" x="73" y="0" width="125.818" height="121.073" filterUnits="userSpaceOnUse" color-interpolation-filters="sRGB">
<feFlood flood-opacity="0" result="BackgroundImageFix"/>
<feColorMatrix in="SourceAlpha" type="matrix" values="0 0 0 0 0 0 0 0 0 0 0 0 0 0 0 0 0 0 127 0" result="hardAlpha"/>
<feOffset dy="5"/>
<feGaussianBlur stdDeviation="6"/>
<feComposite in2="hardAlpha" operator="out"/>
<feColorMatrix type="matrix" values="0 0 0 0 0 0 0 0 0 0 0 0 0 0 0 0 0 0 0.2 0"/>
<feBlend mode="normal" in2="BackgroundImageFix" result="effect1_dropShadow_62_56"/>
<feBlend mode="normal" in="SourceGraphic" in2="effect1_dropShadow_62_56" result="shape"/>
</filter>
<filter id="filter2_d_62_56" x="323" y="0" width="125.818" height="121.073" filterUnits="userSpaceOnUse" color-interpolation-filters="sRGB">
<feFlood flood-opacity="0" result="BackgroundImageFix"/>
<feColorMatrix in="SourceAlpha" type="matrix" values="0 0 0 0 0 0 0 0 0 0 0 0 0 0 0 0 0 0 127 0" result="hardAlpha"/>
<feOffset dy="5"/>
<feGaussianBlur stdDeviation="6"/>
<feComposite in2="hardAlpha" operator="out"/>
<feColorMatrix type="matrix" values="0 0 0 0 0 0 0 0 0 0 0 0 0 0 0 0 0 0 0.2 0"/>
<feBlend mode="normal" in2="BackgroundImageFix" result="effect1_dropShadow_62_56"/>
<feBlend mode="normal" in="SourceGraphic" in2="effect1_dropShadow_62_56" result="shape"/>
</filter>
<filter id="filter3_d_62_56" x="574" y="0" width="125.818" height="121.073" filterUnits="userSpaceOnUse" color-interpolation-filters="sRGB">
<feFlood flood-opacity="0" result="BackgroundImageFix"/>
<feColorMatrix in="SourceAlpha" type="matrix" values="0 0 0 0 0 0 0 0 0 0 0 0 0 0 0 0 0 0 127 0" result="hardAlpha"/>
<feOffset dy="5"/>
<feGaussianBlur stdDeviation="6"/>
<feComposite in2="hardAlpha" operator="out"/>
<feColorMatrix type="matrix" values="0 0 0 0 0 0 0 0 0 0 0 0 0 0 0 0 0 0 0.2 0"/>
<feBlend mode="normal" in2="BackgroundImageFix" result="effect1_dropShadow_62_56"/>
<feBlend mode="normal" in="SourceGraphic" in2="effect1_dropShadow_62_56" result="shape"/>
</filter>
</defs>
</svg>
