<svg width="809" height="183" viewBox="0 0 809 183" fill="none" xmlns="http://www.w3.org/2000/svg">
<g id="slider-suprq">
<g id="Frame 1" filter="url(#filter0_d_77_93)">
<rect x="4.19397" y="91.3395" width="800" height="84" rx="27.2608" fill="white" shape-rendering="crispEdges"/>
<g id="frame-1">
<path d="M14.6789 118.6C14.6789 109.335 22.1897 101.824 31.4548 101.824H155.387C160.019 101.824 163.775 105.58 163.775 110.212V156.467C163.775 161.099 160.019 164.855 155.387 164.855H31.4548C22.1897 164.855 14.6789 157.344 14.6789 148.079V118.6Z" fill="#C4212A"/>
<text id="label" fill="white" xml:space="preserve" style="white-space: pre" font-family="Arial Rounded MT Bold" font-size="20" letter-spacing="0em"><tspan x="83.2795" y="140.693">1</tspan></text>
</g>
<g id="frame-2">
<rect x="172.163" y="101.824" width="149.096" height="63.0301" rx="8.38794" fill="#C4212A"/>
<text id="label2" fill="white" xml:space="preserve" style="white-space: pre" font-family="Arial Rounded MT Bold" font-size="20" letter-spacing="0em"><tspan x="240.763" y="140.693">2</tspan></text>
</g>
<g id="frame-3">
<rect x="329.646" y="101.824" width="149.096" height="63.0301" rx="8.38794" fill="#D74011"/>
<text id="label3" fill="white" xml:space="preserve" style="white-space: pre" font-family="Arial Rounded MT Bold" font-size="20" letter-spacing="0em"><tspan x="398.247" y="140.693">3</tspan></text>
</g>
<g id="frame-4">
<rect x="487.13" y="101.824" width="149.096" height="63.0301" rx="8.38794" fill="#0E8743"/>
<text id="label3_2" fill="white" xml:space="preserve" style="white-space: pre" font-family="Arial Rounded MT Bold" font-size="20" letter-spacing="0em"><tspan x="555.73" y="140.693">4</tspan></text>
</g>
<g id="frame-5">
<path d="M644.613 110.212C644.613 105.58 648.369 101.824 653.001 101.824H776.933C786.198 101.824 793.709 109.335 793.709 118.6V148.079C793.709 157.344 786.198 164.855 776.933 164.855H653.001C648.369 164.855 644.613 161.099 644.613 156.467V110.212Z" fill="#0E8743"/>
<text id="label3_3" fill="white" xml:space="preserve" style="white-space: pre" font-family="Arial Rounded MT Bold" font-size="20" letter-spacing="0em"><tspan x="713.214" y="140.693">5</tspan></text>
</g>
</g>
<g id="bubble-1">
<g id="Union" filter="url(#filter1_d_77_93)">
<mask id="path-12-inside-1_77_93" fill="white">
<path d="M94.722 107.623C90.4923 109.811 85.4641 109.811 81.2343 107.623L42.5353 87.6059C37.6612 85.0848 34.6003 80.0555 34.6003 74.5679V22.0184C34.6003 13.9114 41.1722 7.33948 49.2792 7.33948H126.677C134.784 7.33948 141.356 13.9114 141.356 22.0184V74.5679C141.356 80.0555 138.295 85.0848 133.421 87.6059L94.722 107.623Z"/>
</mask>
<path d="M94.722 107.623C90.4923 109.811 85.4641 109.811 81.2343 107.623L42.5353 87.6059C37.6612 85.0848 34.6003 80.0555 34.6003 74.5679V22.0184C34.6003 13.9114 41.1722 7.33948 49.2792 7.33948H126.677C134.784 7.33948 141.356 13.9114 141.356 22.0184V74.5679C141.356 80.0555 138.295 85.0848 133.421 87.6059L94.722 107.623Z" fill="#C4212A"/>
<path d="M133.421 87.6059L129.567 80.1556L133.421 87.6059ZM42.5353 87.6059L46.3889 80.1556L42.5353 87.6059ZM81.2343 107.623L85.088 100.172L81.2343 107.623ZM94.722 107.623L90.8684 100.172L94.722 107.623ZM81.2343 107.623L85.088 100.172L46.3889 80.1556L42.5353 87.6059L38.6817 95.0563L77.3807 115.073L81.2343 107.623ZM34.6003 74.5679H42.9882V22.0184H34.6003H26.2123V74.5679H34.6003ZM49.2792 7.33948V15.7274H126.677V7.33948V-1.04846H49.2792V7.33948ZM141.356 22.0184H132.968V74.5679H141.356H149.744V22.0184H141.356ZM133.421 87.6059L129.567 80.1556L90.8684 100.172L94.722 107.623L98.5757 115.073L137.275 95.0563L133.421 87.6059ZM141.356 74.5679H132.968C132.968 76.9197 131.656 79.0751 129.567 80.1556L133.421 87.6059L137.275 95.0563C144.934 91.0945 149.744 83.1912 149.744 74.5679H141.356ZM126.677 7.33948V15.7274C130.152 15.7274 132.968 18.544 132.968 22.0184H141.356H149.744C149.744 9.27891 139.417 -1.04846 126.677 -1.04846V7.33948ZM34.6003 22.0184H42.9882C42.9882 18.544 45.8048 15.7274 49.2792 15.7274V7.33948V-1.04846C36.5397 -1.04846 26.2123 9.27891 26.2123 22.0184H34.6003ZM42.5353 87.6059L46.3889 80.1556C44.3 79.0751 42.9882 76.9197 42.9882 74.5679H34.6003H26.2123C26.2123 83.1913 31.0223 91.0945 38.6817 95.0563L42.5353 87.6059ZM81.2343 107.623L77.3807 115.073C84.0275 118.511 91.9289 118.511 98.5757 115.073L94.722 107.623L90.8684 100.172C89.0557 101.11 86.9007 101.11 85.088 100.172L81.2343 107.623Z" fill="white" mask="url(#path-12-inside-1_77_93)"/>
</g>
<text id="score" fill="white" xml:space="preserve" style="white-space: pre" font-family="Arial Rounded MT Bold" font-size="37.7457" letter-spacing="0em"><tspan x="60.3277" y="58.9262">*sc*</tspan></text>
</g>
<g id="bubble-2">
<g id="Union_2" filter="url(#filter2_d_77_93)">
<mask id="path-15-inside-2_77_93" fill="white">
<path d="M253.044 107.623C248.815 109.811 243.786 109.811 239.557 107.623L200.858 87.6059C195.984 85.0848 192.923 80.0555 192.923 74.5679V22.0184C192.923 13.9114 199.495 7.33948 207.602 7.33948H285C293.107 7.33948 299.679 13.9114 299.679 22.0184V74.5679C299.679 80.0555 296.618 85.0848 291.743 87.6059L253.044 107.623Z"/>
</mask>
<path d="M253.044 107.623C248.815 109.811 243.786 109.811 239.557 107.623L200.858 87.6059C195.984 85.0848 192.923 80.0555 192.923 74.5679V22.0184C192.923 13.9114 199.495 7.33948 207.602 7.33948H285C293.107 7.33948 299.679 13.9114 299.679 22.0184V74.5679C299.679 80.0555 296.618 85.0848 291.743 87.6059L253.044 107.623Z" fill="#C4212A"/>
<path d="M291.743 87.6059L287.89 80.1556L291.743 87.6059ZM200.858 87.6059L204.711 80.1556L200.858 87.6059ZM239.557 107.623L243.41 100.172L239.557 107.623ZM253.044 107.623L249.191 100.172L253.044 107.623ZM239.557 107.623L243.41 100.172L204.711 80.1556L200.858 87.6059L197.004 95.0563L235.703 115.073L239.557 107.623ZM192.923 74.5679H201.311V22.0184H192.923H184.535V74.5679H192.923ZM207.602 7.33948V15.7274H285V7.33948V-1.04846H207.602V7.33948ZM299.679 22.0184H291.291V74.5679H299.679H308.066V22.0184H299.679ZM291.743 87.6059L287.89 80.1556L249.191 100.172L253.044 107.623L256.898 115.073L295.597 95.0563L291.743 87.6059ZM299.679 74.5679H291.291C291.291 76.9197 289.979 79.0751 287.89 80.1556L291.743 87.6059L295.597 95.0563C303.257 91.0945 308.066 83.1912 308.066 74.5679H299.679ZM285 7.33948V15.7274C288.474 15.7274 291.291 18.544 291.291 22.0184H299.679H308.066C308.066 9.27891 297.739 -1.04846 285 -1.04846V7.33948ZM192.923 22.0184H201.311C201.311 18.544 204.127 15.7274 207.602 15.7274V7.33948V-1.04846C194.862 -1.04846 184.535 9.27891 184.535 22.0184H192.923ZM200.858 87.6059L204.711 80.1556C202.622 79.0751 201.311 76.9197 201.311 74.5679H192.923H184.535C184.535 83.1913 189.345 91.0945 197.004 95.0563L200.858 87.6059ZM239.557 107.623L235.703 115.073C242.35 118.511 250.251 118.511 256.898 115.073L253.044 107.623L249.191 100.172C247.378 101.11 245.223 101.11 243.41 100.172L239.557 107.623Z" fill="white" mask="url(#path-15-inside-2_77_93)"/>
</g>
<text id="score_2" fill="white" xml:space="preserve" style="white-space: pre" font-family="Arial Rounded MT Bold" font-size="37.7457" letter-spacing="0em"><tspan x="218.65" y="58.9262">*sc*</tspan></text>
</g>
<g id="bubble-3">
<g id="Union_3" filter="url(#filter3_d_77_93)">
<mask id="path-18-inside-3_77_93" fill="white">
<path d="M411.367 107.623C407.137 109.811 402.109 109.811 397.879 107.623L359.18 87.6059C354.306 85.0848 351.245 80.0555 351.245 74.5679V22.0184C351.245 13.9114 357.817 7.33948 365.924 7.33948H443.322C451.429 7.33948 458.001 13.9114 458.001 22.0184V74.5679C458.001 80.0555 454.94 85.0848 450.066 87.6059L411.367 107.623Z"/>
</mask>
<path d="M411.367 107.623C407.137 109.811 402.109 109.811 397.879 107.623L359.18 87.6059C354.306 85.0848 351.245 80.0555 351.245 74.5679V22.0184C351.245 13.9114 357.817 7.33948 365.924 7.33948H443.322C451.429 7.33948 458.001 13.9114 458.001 22.0184V74.5679C458.001 80.0555 454.94 85.0848 450.066 87.6059L411.367 107.623Z" fill="#D74011"/>
<path d="M450.066 87.6059L446.212 80.1556L450.066 87.6059ZM359.18 87.6059L363.034 80.1556L359.18 87.6059ZM397.879 107.623L401.733 100.172L397.879 107.623ZM411.367 107.623L407.513 100.172L411.367 107.623ZM397.879 107.623L401.733 100.172L363.034 80.1556L359.18 87.6059L355.327 95.0563L394.026 115.073L397.879 107.623ZM351.245 74.5679H359.633V22.0184H351.245H342.857V74.5679H351.245ZM365.924 7.33948V15.7274H443.322V7.33948V-1.04846H365.924V7.33948ZM458.001 22.0184H449.613V74.5679H458.001H466.389V22.0184H458.001ZM450.066 87.6059L446.212 80.1556L407.513 100.172L411.367 107.623L415.22 115.073L453.92 95.0563L450.066 87.6059ZM458.001 74.5679H449.613C449.613 76.9197 448.301 79.0751 446.212 80.1556L450.066 87.6059L453.92 95.0563C461.579 91.0945 466.389 83.1912 466.389 74.5679H458.001ZM443.322 7.33948V15.7274C446.796 15.7274 449.613 18.544 449.613 22.0184H458.001H466.389C466.389 9.27891 456.062 -1.04846 443.322 -1.04846V7.33948ZM351.245 22.0184H359.633C359.633 18.544 362.45 15.7274 365.924 15.7274V7.33948V-1.04846C353.185 -1.04846 342.857 9.27891 342.857 22.0184H351.245ZM359.18 87.6059L363.034 80.1556C360.945 79.0751 359.633 76.9197 359.633 74.5679H351.245H342.857C342.857 83.1913 347.667 91.0945 355.327 95.0563L359.18 87.6059ZM397.879 107.623L394.026 115.073C400.672 118.511 408.574 118.511 415.22 115.073L411.367 107.623L407.513 100.172C405.7 101.11 403.546 101.11 401.733 100.172L397.879 107.623Z" fill="white" mask="url(#path-18-inside-3_77_93)"/>
</g>
<text id="score_3" fill="white" xml:space="preserve" style="white-space: pre" font-family="Arial Rounded MT Bold" font-size="37.7457" letter-spacing="0em"><tspan x="376.972" y="58.9262">*sc*</tspan></text>
</g>
<g id="bubble-4">
<g id="Union_4" filter="url(#filter4_d_77_93)">
<mask id="path-21-inside-4_77_93" fill="white">
<path d="M569.689 107.623C565.46 109.811 560.431 109.811 556.202 107.623L517.503 87.6059C512.628 85.0848 509.568 80.0555 509.568 74.5679V22.0184C509.568 13.9114 516.139 7.33948 524.246 7.33948H601.644C609.751 7.33948 616.323 13.9114 616.323 22.0184V74.5679C616.323 80.0555 613.262 85.0848 608.388 87.6059L569.689 107.623Z"/>
</mask>
<path d="M569.689 107.623C565.46 109.811 560.431 109.811 556.202 107.623L517.503 87.6059C512.628 85.0848 509.568 80.0555 509.568 74.5679V22.0184C509.568 13.9114 516.139 7.33948 524.246 7.33948H601.644C609.751 7.33948 616.323 13.9114 616.323 22.0184V74.5679C616.323 80.0555 613.262 85.0848 608.388 87.6059L569.689 107.623Z" fill="#0E8743"/>
<path d="M608.388 87.6059L604.535 80.1556L608.388 87.6059ZM517.503 87.6059L521.356 80.1556L517.503 87.6059ZM556.202 107.623L560.055 100.172L556.202 107.623ZM569.689 107.623L565.836 100.172L569.689 107.623ZM556.202 107.623L560.055 100.172L521.356 80.1556L517.503 87.6059L513.649 95.0563L552.348 115.073L556.202 107.623ZM509.568 74.5679H517.955V22.0184H509.568H501.18V74.5679H509.568ZM524.246 7.33948V15.7274H601.644V7.33948V-1.04846H524.246V7.33948ZM616.323 22.0184H607.935V74.5679H616.323H624.711V22.0184H616.323ZM608.388 87.6059L604.535 80.1556L565.836 100.172L569.689 107.623L573.543 115.073L612.242 95.0563L608.388 87.6059ZM616.323 74.5679H607.935C607.935 76.9197 606.624 79.0751 604.535 80.1556L608.388 87.6059L612.242 95.0563C619.901 91.0945 624.711 83.1912 624.711 74.5679H616.323ZM601.644 7.33948V15.7274C605.119 15.7274 607.935 18.544 607.935 22.0184H616.323H624.711C624.711 9.27891 614.384 -1.04846 601.644 -1.04846V7.33948ZM509.568 22.0184H517.955C517.955 18.544 520.772 15.7274 524.246 15.7274V7.33948V-1.04846C511.507 -1.04846 501.18 9.27891 501.18 22.0184H509.568ZM517.503 87.6059L521.356 80.1556C519.267 79.0751 517.955 76.9197 517.955 74.5679H509.568H501.18C501.18 83.1913 505.99 91.0945 513.649 95.0563L517.503 87.6059ZM556.202 107.623L552.348 115.073C558.995 118.511 566.896 118.511 573.543 115.073L569.689 107.623L565.836 100.172C564.023 101.11 561.868 101.11 560.055 100.172L556.202 107.623Z" fill="white" mask="url(#path-21-inside-4_77_93)"/>
</g>
<text id="score_4" fill="white" xml:space="preserve" style="white-space: pre" font-family="Arial Rounded MT Bold" font-size="37.7457" letter-spacing="0em"><tspan x="535.295" y="58.9262">*sc*</tspan></text>
</g>
<g id="bubble-5">
<g id="Union_5" filter="url(#filter5_d_77_93)">
<mask id="path-24-inside-5_77_93" fill="white">
<path d="M728.012 107.623C723.782 109.811 718.754 109.811 714.524 107.623L675.825 87.6059C670.951 85.0848 667.89 80.0555 667.89 74.5679V22.0184C667.89 13.9114 674.462 7.33948 682.569 7.33948H759.967C768.074 7.33948 774.646 13.9114 774.646 22.0184V74.5679C774.646 80.0555 771.585 85.0848 766.711 87.6059L728.012 107.623Z"/>
</mask>
<path d="M728.012 107.623C723.782 109.811 718.754 109.811 714.524 107.623L675.825 87.6059C670.951 85.0848 667.89 80.0555 667.89 74.5679V22.0184C667.89 13.9114 674.462 7.33948 682.569 7.33948H759.967C768.074 7.33948 774.646 13.9114 774.646 22.0184V74.5679C774.646 80.0555 771.585 85.0848 766.711 87.6059L728.012 107.623Z" fill="#0E8743"/>
<path d="M766.711 87.6059L762.857 80.1556L766.711 87.6059ZM675.825 87.6059L679.679 80.1556L675.825 87.6059ZM714.524 107.623L718.378 100.172L714.524 107.623ZM728.012 107.623L724.158 100.172L728.012 107.623ZM714.524 107.623L718.378 100.172L679.679 80.1556L675.825 87.6059L671.971 95.0563L710.67 115.073L714.524 107.623ZM667.89 74.5679H676.278V22.0184H667.89H659.502V74.5679H667.89ZM682.569 7.33948V15.7274H759.967V7.33948V-1.04846H682.569V7.33948ZM774.646 22.0184H766.258V74.5679H774.646H783.034V22.0184H774.646ZM766.711 87.6059L762.857 80.1556L724.158 100.172L728.012 107.623L731.865 115.073L770.564 95.0563L766.711 87.6059ZM774.646 74.5679H766.258C766.258 76.9197 764.946 79.0751 762.857 80.1556L766.711 87.6059L770.564 95.0563C778.224 91.0945 783.034 83.1912 783.034 74.5679H774.646ZM759.967 7.33948V15.7274C763.441 15.7274 766.258 18.544 766.258 22.0184H774.646H783.034C783.034 9.27891 772.706 -1.04846 759.967 -1.04846V7.33948ZM667.89 22.0184H676.278C676.278 18.544 679.094 15.7274 682.569 15.7274V7.33948V-1.04846C669.829 -1.04846 659.502 9.27891 659.502 22.0184H667.89ZM675.825 87.6059L679.679 80.1556C677.59 79.0751 676.278 76.9197 676.278 74.5679H667.89H659.502C659.502 83.1913 664.312 91.0945 671.971 95.0563L675.825 87.6059ZM714.524 107.623L710.67 115.073C717.317 118.511 725.219 118.511 731.865 115.073L728.012 107.623L724.158 100.172C722.345 101.11 720.19 101.11 718.378 100.172L714.524 107.623Z" fill="white" mask="url(#path-24-inside-5_77_93)"/>
</g>
<text id="score_5" fill="white" xml:space="preserve" style="white-space: pre" font-family="Arial Rounded MT Bold" font-size="37.7457" letter-spacing="0em"><tspan x="693.617" y="58.9262">*sc*</tspan></text>
</g>
</g>
<defs>
<filter id="filter0_d_77_93" x="0" y="90.291" width="808.388" height="92.3879" filterUnits="userSpaceOnUse" color-interpolation-filters="sRGB">
<feFlood flood-opacity="0" result="BackgroundImageFix"/>
<feColorMatrix in="SourceAlpha" type="matrix" values="0 0 0 0 0 0 0 0 0 0 0 0 0 0 0 0 0 0 127 0" result="hardAlpha"/>
<feOffset dy="3.14548"/>
<feGaussianBlur stdDeviation="2.09699"/>
<feComposite in2="hardAlpha" operator="out"/>
<feColorMatrix type="matrix" values="0 0 0 0 0 0 0 0 0 0 0 0 0 0 0 0 0 0 0.12 0"/>
<feBlend mode="normal" in2="BackgroundImageFix" result="effect1_dropShadow_77_93"/>
<feBlend mode="normal" in="SourceGraphic" in2="effect1_dropShadow_77_93" result="shape"/>
</filter>
<filter id="filter1_d_77_93" x="22.0183" y="2.86102e-05" width="131.92" height="127.088" filterUnits="userSpaceOnUse" color-interpolation-filters="sRGB">
<feFlood flood-opacity="0" result="BackgroundImageFix"/>
<feColorMatrix in="SourceAlpha" type="matrix" values="0 0 0 0 0 0 0 0 0 0 0 0 0 0 0 0 0 0 127 0" result="hardAlpha"/>
<feOffset dy="5.24246"/>
<feGaussianBlur stdDeviation="6.29096"/>
<feComposite in2="hardAlpha" operator="out"/>
<feColorMatrix type="matrix" values="0 0 0 0 0 0 0 0 0 0 0 0 0 0 0 0 0 0 0.2 0"/>
<feBlend mode="normal" in2="BackgroundImageFix" result="effect1_dropShadow_77_93"/>
<feBlend mode="normal" in="SourceGraphic" in2="effect1_dropShadow_77_93" result="shape"/>
</filter>
<filter id="filter2_d_77_93" x="180.341" y="2.86102e-05" width="131.92" height="127.088" filterUnits="userSpaceOnUse" color-interpolation-filters="sRGB">
<feFlood flood-opacity="0" result="BackgroundImageFix"/>
<feColorMatrix in="SourceAlpha" type="matrix" values="0 0 0 0 0 0 0 0 0 0 0 0 0 0 0 0 0 0 127 0" result="hardAlpha"/>
<feOffset dy="5.24246"/>
<feGaussianBlur stdDeviation="6.29096"/>
<feComposite in2="hardAlpha" operator="out"/>
<feColorMatrix type="matrix" values="0 0 0 0 0 0 0 0 0 0 0 0 0 0 0 0 0 0 0.2 0"/>
<feBlend mode="normal" in2="BackgroundImageFix" result="effect1_dropShadow_77_93"/>
<feBlend mode="normal" in="SourceGraphic" in2="effect1_dropShadow_77_93" result="shape"/>
</filter>
<filter id="filter3_d_77_93" x="338.663" y="2.86102e-05" width="131.92" height="127.088" filterUnits="userSpaceOnUse" color-interpolation-filters="sRGB">
<feFlood flood-opacity="0" result="BackgroundImageFix"/>
<feColorMatrix in="SourceAlpha" type="matrix" values="0 0 0 0 0 0 0 0 0 0 0 0 0 0 0 0 0 0 127 0" result="hardAlpha"/>
<feOffset dy="5.24246"/>
<feGaussianBlur stdDeviation="6.29096"/>
<feComposite in2="hardAlpha" operator="out"/>
<feColorMatrix type="matrix" values="0 0 0 0 0 0 0 0 0 0 0 0 0 0 0 0 0 0 0.2 0"/>
<feBlend mode="normal" in2="BackgroundImageFix" result="effect1_dropShadow_77_93"/>
<feBlend mode="normal" in="SourceGraphic" in2="effect1_dropShadow_77_93" result="shape"/>
</filter>
<filter id="filter4_d_77_93" x="496.986" y="2.86102e-05" width="131.92" height="127.088" filterUnits="userSpaceOnUse" color-interpolation-filters="sRGB">
<feFlood flood-opacity="0" result="BackgroundImageFix"/>
<feColorMatrix in="SourceAlpha" type="matrix" values="0 0 0 0 0 0 0 0 0 0 0 0 0 0 0 0 0 0 127 0" result="hardAlpha"/>
<feOffset dy="5.24246"/>
<feGaussianBlur stdDeviation="6.29096"/>
<feComposite in2="hardAlpha" operator="out"/>
<feColorMatrix type="matrix" values="0 0 0 0 0 0 0 0 0 0 0 0 0 0 0 0 0 0 0.2 0"/>
<feBlend mode="normal" in2="BackgroundImageFix" result="effect1_dropShadow_77_93"/>
<feBlend mode="normal" in="SourceGraphic" in2="effect1_dropShadow_77_93" result="shape"/>
</filter>
<filter id="filter5_d_77_93" x="655.308" y="2.86102e-05" width="131.92" height="127.088" filterUnits="userSpaceOnUse" color-interpolation-filters="sRGB">
<feFlood flood-opacity="0" result="BackgroundImageFix"/>
<feColorMatrix in="SourceAlpha" type="matrix" values="0 0 0 0 0 0 0 0 0 0 0 0 0 0 0 0 0 0 127 0" result="hardAlpha"/>
<feOffset dy="5.24246"/>
<feGaussianBlur stdDeviation="6.29096"/>
<feComposite in2="hardAlpha" operator="out"/>
<feColorMatrix type="matrix" values="0 0 0 0 0 0 0 0 0 0 0 0 0 0 0 0 0 0 0.2 0"/>
<feBlend mode="normal" in2="BackgroundImageFix" result="effect1_dropShadow_77_93"/>
<feBlend mode="normal" in="SourceGraphic" in2="effect1_dropShadow_77_93" result="shape"/>
</filter>
</defs>
</svg>
