<svg width="822" height="226" viewBox="0 0 822 226" fill="none" xmlns="http://www.w3.org/2000/svg">
<g id="slider-sus">
<g id="Frame 1" filter="url(#filter0_d_8_76)">
<rect x="29.0909" y="87" width="763" height="80" rx="26" fill="white" shape-rendering="crispEdges"/>
<g id="frame-Not-Acceptable">
<path d="M39.0909 113C39.0909 104.163 46.2544 97 55.0909 97H409.091C413.509 97 417.091 100.582 417.091 105V149C417.091 153.418 413.509 157 409.091 157H55.0909C46.2544 157 39.0909 149.837 39.0909 141V113Z" fill="#C4212A"/>
<text id="label" fill="white" xml:space="preserve" style="white-space: pre" font-family="Arial Rounded MT Bold" font-size="21.8182" letter-spacing="0em"><tspan x="146.305" y="135.022">Not Acceptable</tspan></text>
</g>
<g id="frame-Marginal">
<rect x="425.091" y="97" width="138" height="60" rx="8" fill="#F06D44"/>
<text id="label2" fill="white" xml:space="preserve" style="white-space: pre" font-family="Arial Rounded MT Bold" font-size="21.8182" letter-spacing="0em"><tspan x="448.185" y="135.022">Marginal</tspan></text>
</g>
<g id="frame-Acceptable">
<path d="M571.091 105C571.091 100.582 574.673 97 579.091 97H766.091C774.927 97 782.091 104.163 782.091 113V141C782.091 149.837 774.927 157 766.091 157H579.091C574.673 157 571.091 153.418 571.091 149V105Z" fill="#0E8743"/>
<text id="label3" fill="white" xml:space="preserve" style="white-space: pre" font-family="Arial Rounded MT Bold" font-size="21.8182" letter-spacing="0em"><tspan x="616.282" y="135.022">Acceptable</tspan></text>
</g>
</g>
<g id="Not-Acceptable">
<g id="Union" filter="url(#filter1_d_8_76)">
<mask id="path-8-inside-1_8_76" fill="white">
<path d="M234.425 102.512C230.394 104.593 225.606 104.593 221.576 102.512L184.666 83.4488C180.014 81.0456 177.091 76.2467 177.091 71.0099V21C177.091 13.268 183.359 7 191.091 7H264.909C272.641 7 278.909 13.268 278.909 21V71.0099C278.909 76.2467 275.987 81.0456 271.334 83.4488L234.425 102.512Z"/>
</mask>
<path d="M234.425 102.512C230.394 104.593 225.606 104.593 221.576 102.512L184.666 83.4488C180.014 81.0456 177.091 76.2467 177.091 71.0099V21C177.091 13.268 183.359 7 191.091 7H264.909C272.641 7 278.909 13.268 278.909 21V71.0099C278.909 76.2467 275.987 81.0456 271.334 83.4488L234.425 102.512Z" fill="#C4212A"/>
<path d="M271.334 83.4488L267.663 76.3408L271.334 83.4488ZM184.666 83.4488L188.338 76.3409L184.666 83.4488ZM234.425 102.512L230.753 95.404L234.425 102.512ZM221.576 102.512L225.247 95.404L188.338 76.3409L184.666 83.4488L180.995 90.5567L217.904 109.62L221.576 102.512ZM177.091 71.0099H185.091V21H177.091H169.091V71.0099H177.091ZM191.091 7V15H264.909V7V-1H191.091V7ZM278.909 21H270.909V71.0099H278.909H286.909V21H278.909ZM271.334 83.4488L267.663 76.3408L230.753 95.404L234.425 102.512L238.096 109.62L275.005 90.5567L271.334 83.4488ZM278.909 71.0099H270.909C270.909 73.2542 269.657 75.3109 267.663 76.3408L271.334 83.4488L275.005 90.5567C282.317 86.7803 286.909 79.2391 286.909 71.0099H278.909ZM264.909 7V15C268.223 15 270.909 17.6863 270.909 21H278.909H286.909C286.909 8.84974 277.06 -1 264.909 -1V7ZM177.091 21H185.091C185.091 17.6863 187.777 15 191.091 15V7V-1C178.941 -1 169.091 8.84973 169.091 21H177.091ZM184.666 83.4488L188.338 76.3409C186.343 75.3109 185.091 73.2542 185.091 71.0099H177.091H169.091C169.091 79.2391 173.684 86.7803 180.995 90.5567L184.666 83.4488ZM221.576 102.512L217.904 109.62C224.237 112.891 231.763 112.891 238.096 109.62L234.425 102.512L230.753 95.404C229.026 96.296 226.974 96.296 225.247 95.404L221.576 102.512Z" fill="white" mask="url(#path-8-inside-1_8_76)"/>
</g>
<text id="score" fill="white" xml:space="preserve" style="white-space: pre" font-family="Arial Rounded MT Bold" font-size="46" letter-spacing="0em"><tspan x="200.091" y="65.3736">*sc*</tspan></text>
</g>
<g id="Marginal">
<g id="Union_2" filter="url(#filter2_d_8_76)">
<mask id="path-11-inside-2_8_76" fill="white">
<path d="M500.425 102.512C496.394 104.593 491.606 104.593 487.576 102.512L450.666 83.4488C446.014 81.0456 443.091 76.2467 443.091 71.0099V21C443.091 13.268 449.359 7 457.091 7H530.909C538.641 7 544.909 13.268 544.909 21V71.0099C544.909 76.2467 541.987 81.0456 537.334 83.4488L500.425 102.512Z"/>
</mask>
<path d="M500.425 102.512C496.394 104.593 491.606 104.593 487.576 102.512L450.666 83.4488C446.014 81.0456 443.091 76.2467 443.091 71.0099V21C443.091 13.268 449.359 7 457.091 7H530.909C538.641 7 544.909 13.268 544.909 21V71.0099C544.909 76.2467 541.987 81.0456 537.334 83.4488L500.425 102.512Z" fill="#F06D44"/>
<path d="M537.334 83.4488L533.663 76.3408L537.334 83.4488ZM450.666 83.4488L454.338 76.3409L450.666 83.4488ZM500.425 102.512L496.753 95.404L500.425 102.512ZM487.576 102.512L491.247 95.404L454.338 76.3409L450.666 83.4488L446.995 90.5567L483.904 109.62L487.576 102.512ZM443.091 71.0099H451.091V21H443.091H435.091V71.0099H443.091ZM457.091 7V15H530.909V7V-1H457.091V7ZM544.909 21H536.909V71.0099H544.909H552.909V21H544.909ZM537.334 83.4488L533.663 76.3408L496.753 95.404L500.425 102.512L504.096 109.62L541.005 90.5567L537.334 83.4488ZM544.909 71.0099H536.909C536.909 73.2542 535.657 75.3109 533.663 76.3408L537.334 83.4488L541.005 90.5567C548.317 86.7803 552.909 79.2391 552.909 71.0099H544.909ZM530.909 7V15C534.223 15 536.909 17.6863 536.909 21H544.909H552.909C552.909 8.84974 543.06 -1 530.909 -1V7ZM443.091 21H451.091C451.091 17.6863 453.777 15 457.091 15V7V-1C444.941 -1 435.091 8.84973 435.091 21H443.091ZM450.666 83.4488L454.338 76.3409C452.343 75.3109 451.091 73.2542 451.091 71.0099H443.091H435.091C435.091 79.2391 439.684 86.7803 446.995 90.5567L450.666 83.4488ZM487.576 102.512L483.904 109.62C490.237 112.891 497.763 112.891 504.096 109.62L500.425 102.512L496.753 95.404C495.026 96.296 492.974 96.296 491.247 95.404L487.576 102.512Z" fill="white" mask="url(#path-11-inside-2_8_76)"/>
</g>
<text id="score_2" fill="white" xml:space="preserve" style="white-space: pre" font-family="Arial Rounded MT Bold" font-size="46" letter-spacing="0em"><tspan x="466.091" y="65.3736">*sc*</tspan></text>
</g>
<g id="Acceptable">
<g id="Union_3" filter="url(#filter3_d_8_76)">
<mask id="path-14-inside-3_8_76" fill="white">
<path d="M683.425 102.512C679.394 104.593 674.606 104.593 670.576 102.512L633.666 83.4488C629.014 81.0456 626.091 76.2467 626.091 71.0099V21C626.091 13.268 632.359 7 640.091 7H713.909C721.641 7 727.909 13.268 727.909 21V71.0099C727.909 76.2467 724.987 81.0456 720.334 83.4488L683.425 102.512Z"/>
</mask>
<path d="M683.425 102.512C679.394 104.593 674.606 104.593 670.576 102.512L633.666 83.4488C629.014 81.0456 626.091 76.2467 626.091 71.0099V21C626.091 13.268 632.359 7 640.091 7H713.909C721.641 7 727.909 13.268 727.909 21V71.0099C727.909 76.2467 724.987 81.0456 720.334 83.4488L683.425 102.512Z" fill="#0E8743"/>
<path d="M720.334 83.4488L716.663 76.3408L720.334 83.4488ZM633.666 83.4488L637.338 76.3409L633.666 83.4488ZM683.425 102.512L679.753 95.404L683.425 102.512ZM670.576 102.512L674.247 95.404L637.338 76.3409L633.666 83.4488L629.995 90.5567L666.904 109.62L670.576 102.512ZM626.091 71.0099H634.091V21H626.091H618.091V71.0099H626.091ZM640.091 7V15H713.909V7V-1H640.091V7ZM727.909 21H719.909V71.0099H727.909H735.909V21H727.909ZM720.334 83.4488L716.663 76.3408L679.753 95.404L683.425 102.512L687.096 109.62L724.005 90.5567L720.334 83.4488ZM727.909 71.0099H719.909C719.909 73.2542 718.657 75.3109 716.663 76.3408L720.334 83.4488L724.005 90.5567C731.317 86.7803 735.909 79.2391 735.909 71.0099H727.909ZM713.909 7V15C717.223 15 719.909 17.6863 719.909 21H727.909H735.909C735.909 8.84974 726.06 -1 713.909 -1V7ZM626.091 21H634.091C634.091 17.6863 636.777 15 640.091 15V7V-1C627.941 -1 618.091 8.84973 618.091 21H626.091ZM633.666 83.4488L637.338 76.3409C635.343 75.3109 634.091 73.2542 634.091 71.0099H626.091H618.091C618.091 79.2391 622.684 86.7803 629.995 90.5567L633.666 83.4488ZM670.576 102.512L666.904 109.62C673.237 112.891 680.763 112.891 687.096 109.62L683.425 102.512L679.753 95.404C678.026 96.296 675.974 96.296 674.247 95.404L670.576 102.512Z" fill="white" mask="url(#path-14-inside-3_8_76)"/>
</g>
<text id="score_3" fill="white" xml:space="preserve" style="white-space: pre" font-family="Arial Rounded MT Bold" font-size="46" letter-spacing="0em"><tspan x="649.091" y="65.3736">*sc*</tspan></text>
</g>
</g>
<defs>
<filter id="filter0_d_8_76" x="0" y="87" width="821.182" height="138.182" filterUnits="userSpaceOnUse" color-interpolation-filters="sRGB">
<feFlood flood-opacity="0" result="BackgroundImageFix"/>
<feColorMatrix in="SourceAlpha" type="matrix" values="0 0 0 0 0 0 0 0 0 0 0 0 0 0 0 0 0 0 127 0" result="hardAlpha"/>
<feOffset dy="29.0909"/>
<feGaussianBlur stdDeviation="14.5455"/>
<feComposite in2="hardAlpha" operator="out"/>
<feColorMatrix type="matrix" values="0 0 0 0 0 0 0 0 0 0 0 0 0 0 0 0 0 0 0.12 0"/>
<feBlend mode="normal" in2="BackgroundImageFix" result="effect1_dropShadow_8_76"/>
<feBlend mode="normal" in="SourceGraphic" in2="effect1_dropShadow_8_76" result="shape"/>
</filter>
<filter id="filter1_d_8_76" x="165.091" y="0" width="125.818" height="121.073" filterUnits="userSpaceOnUse" color-interpolation-filters="sRGB">
<feFlood flood-opacity="0" result="BackgroundImageFix"/>
<feColorMatrix in="SourceAlpha" type="matrix" values="0 0 0 0 0 0 0 0 0 0 0 0 0 0 0 0 0 0 127 0" result="hardAlpha"/>
<feOffset dy="5"/>
<feGaussianBlur stdDeviation="6"/>
<feComposite in2="hardAlpha" operator="out"/>
<feColorMatrix type="matrix" values="0 0 0 0 0 0 0 0 0 0 0 0 0 0 0 0 0 0 0.2 0"/>
<feBlend mode="normal" in2="BackgroundImageFix" result="effect1_dropShadow_8_76"/>
<feBlend mode="normal" in="SourceGraphic" in2="effect1_dropShadow_8_76" result="shape"/>
</filter>
<filter id="filter2_d_8_76" x="431.091" y="0" width="125.818" height="121.073" filterUnits="userSpaceOnUse" color-interpolation-filters="sRGB">
<feFlood flood-opacity="0" result="BackgroundImageFix"/>
<feColorMatrix in="SourceAlpha" type="matrix" values="0 0 0 0 0 0 0 0 0 0 0 0 0 0 0 0 0 0 127 0" result="hardAlpha"/>
<feOffset dy="5"/>
<feGaussianBlur stdDeviation="6"/>
<feComposite in2="hardAlpha" operator="out"/>
<feColorMatrix type="matrix" values="0 0 0 0 0 0 0 0 0 0 0 0 0 0 0 0 0 0 0.2 0"/>
<feBlend mode="normal" in2="BackgroundImageFix" result="effect1_dropShadow_8_76"/>
<feBlend mode="normal" in="SourceGraphic" in2="effect1_dropShadow_8_76" result="shape"/>
</filter>
<filter id="filter3_d_8_76" x="614.091" y="0" width="125.818" height="121.073" filterUnits="userSpaceOnUse" color-interpolation-filters="sRGB">
<feFlood flood-opacity="0" result="BackgroundImageFix"/>
<feColorMatrix in="SourceAlpha" type="matrix" values="0 0 0 0 0 0 0 0 0 0 0 0 0 0 0 0 0 0 127 0" result="hardAlpha"/>
<feOffset dy="5"/>
<feGaussianBlur stdDeviation="6"/>
<feComposite in2="hardAlpha" operator="out"/>
<feColorMatrix type="matrix" values="0 0 0 0 0 0 0 0 0 0 0 0 0 0 0 0 0 0 0.2 0"/>
<feBlend mode="normal" in2="BackgroundImageFix" result="effect1_dropShadow_8_76"/>
<feBlend mode="normal" in="SourceGraphic" in2="effect1_dropShadow_8_76" result="shape"/>
</filter>
</defs>
</svg>
