<svg width="817" height="183" viewBox="0 0 817 183" fill="none" xmlns="http://www.w3.org/2000/svg">
<g id="slider-nasa_tlx">
<g id="Frame 1" filter="url(#filter0_d_101_131)">
<rect x="12.5819" y="91.3394" width="800" height="84" rx="27.2608" fill="white" shape-rendering="crispEdges"/>
<g id="frame-Low">
<path d="M23.0668 118.6C23.0668 109.335 30.5777 101.824 39.8427 101.824H84.6789C89.3114 101.824 93.0668 105.58 93.0668 110.212V156.466C93.0668 161.099 89.3114 164.854 84.6789 164.854H39.8427C30.5777 164.854 23.0668 157.344 23.0668 148.078V118.6Z" fill="#0E8743"/>
<text id="label" fill="white" xml:space="preserve" style="white-space: pre" font-family="Arial Rounded MT Bold" font-size="17" letter-spacing="0em"><tspan x="40.8759" y="139.59">Low</tspan></text>
</g>
<g id="frame-Medium">
<rect x="101.455" y="101.824" width="156" height="63.0301" rx="8.38794" fill="#0E8743"/>
<text id="label2" fill="white" xml:space="preserve" style="white-space: pre" font-family="Arial Rounded MT Bold" font-size="17" letter-spacing="0em"><tspan x="147.04" y="139.59">Medium</tspan></text>
</g>
<g id="frame-Somewhat-High">
<rect x="265.843" y="101.824" width="156" height="63.0301" rx="8.38794" fill="#D74011"/>
<text id="label3" fill="white" xml:space="preserve" style="white-space: pre" font-family="Arial Rounded MT Bold" font-size="17" letter-spacing="0em"><tspan x="279.329" y="139.59">Somewhat High</tspan></text>
</g>
<g id="frame-High">
<rect x="430.231" y="101.824" width="233" height="63.0301" rx="8.38794" fill="#C4212A"/>
<text id="label3_2" fill="white" xml:space="preserve" style="white-space: pre" font-family="Arial Rounded MT Bold" font-size="17" letter-spacing="0em"><tspan x="527.514" y="139.59">High</tspan></text>
</g>
<g id="frame-Very-High">
<path d="M671.619 110.212C671.619 105.58 675.374 101.824 680.007 101.824H785.321C794.586 101.824 802.097 109.335 802.097 118.6V148.078C802.097 157.344 794.586 164.854 785.321 164.854H680.007C675.374 164.854 671.619 161.099 671.619 156.466V110.212Z" fill="#C4212A"/>
<text id="label3_3" fill="white" xml:space="preserve" style="white-space: pre" font-family="Arial Rounded MT Bold" font-size="17" letter-spacing="0em"><tspan x="696.699" y="139.59">Very High</tspan></text>
</g>
</g>
<g id="bubble-Low">
<g id="Union" filter="url(#filter1_d_101_131)">
<mask id="path-12-inside-1_101_131" fill="white">
<path d="M72.7037 107.623C68.4739 109.81 63.4457 109.81 59.216 107.623L20.517 87.6058C15.6428 85.0847 12.5819 80.0554 12.5819 74.5678V22.0183C12.5819 13.9113 19.1539 7.33936 27.2608 7.33936H104.659C112.766 7.33936 119.338 13.9113 119.338 22.0183V74.5678C119.338 80.0554 116.277 85.0847 111.403 87.6058L72.7037 107.623Z"/>
</mask>
<path d="M72.7037 107.623C68.4739 109.81 63.4457 109.81 59.216 107.623L20.517 87.6058C15.6428 85.0847 12.5819 80.0554 12.5819 74.5678V22.0183C12.5819 13.9113 19.1539 7.33936 27.2608 7.33936H104.659C112.766 7.33936 119.338 13.9113 119.338 22.0183V74.5678C119.338 80.0554 116.277 85.0847 111.403 87.6058L72.7037 107.623Z" fill="#0E8743"/>
<path d="M111.403 87.6058L107.549 80.1555L111.403 87.6058ZM20.517 87.6058L24.3706 80.1555L20.517 87.6058ZM59.216 107.623L63.0696 100.172L59.216 107.623ZM72.7037 107.623L68.8501 100.172L72.7037 107.623ZM59.216 107.623L63.0696 100.172L24.3706 80.1555L20.517 87.6058L16.6634 95.0561L55.3624 115.073L59.216 107.623ZM12.5819 74.5678H20.9699V22.0183H12.5819H4.19397V74.5678H12.5819ZM27.2608 7.33936V15.7273H104.659V7.33936V-1.04859H27.2608V7.33936ZM119.338 22.0183H110.95V74.5678H119.338H127.726V22.0183H119.338ZM111.403 87.6058L107.549 80.1555L68.8501 100.172L72.7037 107.623L76.5573 115.073L115.256 95.0561L111.403 87.6058ZM119.338 74.5678H110.95C110.95 76.9196 109.638 79.075 107.549 80.1555L111.403 87.6058L115.256 95.0561C122.916 91.0944 127.726 83.1911 127.726 74.5678H119.338ZM104.659 7.33936V15.7273C108.133 15.7273 110.95 18.5439 110.95 22.0183H119.338H127.726C127.726 9.27879 117.398 -1.04859 104.659 -1.04859V7.33936ZM12.5819 22.0183H20.9699C20.9699 18.5439 23.7864 15.7273 27.2608 15.7273V7.33936V-1.04859C14.5213 -1.04859 4.19397 9.27879 4.19397 22.0183H12.5819ZM20.517 87.6058L24.3706 80.1555C22.2817 79.075 20.9699 76.9196 20.9699 74.5678H12.5819H4.19397C4.19397 83.1911 9.00395 91.0944 16.6634 95.0561L20.517 87.6058ZM59.216 107.623L55.3624 115.073C62.0091 118.511 69.9106 118.511 76.5573 115.073L72.7037 107.623L68.8501 100.172C67.0373 101.11 64.8824 101.11 63.0696 100.172L59.216 107.623Z" fill="white" mask="url(#path-12-inside-1_101_131)"/>
</g>
<text id="score" fill="white" xml:space="preserve" style="white-space: pre" font-family="Arial Rounded MT Bold" font-size="50" letter-spacing="0em"><tspan x="37.3093" y="70.4316">*sc*</tspan></text>
</g>
<g id="bubble-Medium">
<g id="Union_2" filter="url(#filter2_d_101_131)">
<mask id="path-15-inside-2_101_131" fill="white">
<path d="M184.704 107.623C180.474 109.81 175.446 109.81 171.216 107.623L132.517 87.6058C127.643 85.0847 124.582 80.0554 124.582 74.5678V22.0183C124.582 13.9113 131.154 7.33936 139.261 7.33936H216.659C224.766 7.33936 231.338 13.9113 231.338 22.0183V74.5678C231.338 80.0554 228.277 85.0847 223.403 87.6058L184.704 107.623Z"/>
</mask>
<path d="M184.704 107.623C180.474 109.81 175.446 109.81 171.216 107.623L132.517 87.6058C127.643 85.0847 124.582 80.0554 124.582 74.5678V22.0183C124.582 13.9113 131.154 7.33936 139.261 7.33936H216.659C224.766 7.33936 231.338 13.9113 231.338 22.0183V74.5678C231.338 80.0554 228.277 85.0847 223.403 87.6058L184.704 107.623Z" fill="#0E8743"/>
<path d="M223.403 87.6058L219.549 80.1555L223.403 87.6058ZM132.517 87.6058L136.371 80.1555L132.517 87.6058ZM171.216 107.623L175.07 100.172L171.216 107.623ZM184.704 107.623L180.85 100.172L184.704 107.623ZM171.216 107.623L175.07 100.172L136.371 80.1555L132.517 87.6058L128.663 95.0561L167.362 115.073L171.216 107.623ZM124.582 74.5678H132.97V22.0183H124.582H116.194V74.5678H124.582ZM139.261 7.33936V15.7273H216.659V7.33936V-1.04859H139.261V7.33936ZM231.338 22.0183H222.95V74.5678H231.338H239.726V22.0183H231.338ZM223.403 87.6058L219.549 80.1555L180.85 100.172L184.704 107.623L188.557 115.073L227.256 95.0561L223.403 87.6058ZM231.338 74.5678H222.95C222.95 76.9196 221.638 79.075 219.549 80.1555L223.403 87.6058L227.256 95.0561C234.916 91.0944 239.726 83.1911 239.726 74.5678H231.338ZM216.659 7.33936V15.7273C220.133 15.7273 222.95 18.5439 222.95 22.0183H231.338H239.726C239.726 9.27879 229.398 -1.04859 216.659 -1.04859V7.33936ZM124.582 22.0183H132.97C132.97 18.5439 135.786 15.7273 139.261 15.7273V7.33936V-1.04859C126.521 -1.04859 116.194 9.27879 116.194 22.0183H124.582ZM132.517 87.6058L136.371 80.1555C134.282 79.075 132.97 76.9196 132.97 74.5678H124.582H116.194C116.194 83.1911 121.004 91.0944 128.663 95.0561L132.517 87.6058ZM171.216 107.623L167.362 115.073C174.009 118.511 181.911 118.511 188.557 115.073L184.704 107.623L180.85 100.172C179.037 101.11 176.882 101.11 175.07 100.172L171.216 107.623Z" fill="white" mask="url(#path-15-inside-2_101_131)"/>
</g>
<text id="score_2" fill="white" xml:space="preserve" style="white-space: pre" font-family="Arial Rounded MT Bold" font-size="50" letter-spacing="0em"><tspan x="149.309" y="70.4316">*sc*</tspan></text>
</g>
<g id="bubble-Somewhat-High">
<g id="Union_3" filter="url(#filter3_d_101_131)">
<mask id="path-18-inside-3_101_131" fill="white">
<path d="M349.704 107.623C345.474 109.81 340.446 109.81 336.216 107.623L297.517 87.6058C292.643 85.0847 289.582 80.0554 289.582 74.5678V22.0183C289.582 13.9113 296.154 7.33936 304.261 7.33936H381.659C389.766 7.33936 396.338 13.9113 396.338 22.0183V74.5678C396.338 80.0554 393.277 85.0847 388.403 87.6058L349.704 107.623Z"/>
</mask>
<path d="M349.704 107.623C345.474 109.81 340.446 109.81 336.216 107.623L297.517 87.6058C292.643 85.0847 289.582 80.0554 289.582 74.5678V22.0183C289.582 13.9113 296.154 7.33936 304.261 7.33936H381.659C389.766 7.33936 396.338 13.9113 396.338 22.0183V74.5678C396.338 80.0554 393.277 85.0847 388.403 87.6058L349.704 107.623Z" fill="#D74011"/>
<path d="M388.403 87.6058L384.549 80.1555L388.403 87.6058ZM297.517 87.6058L301.371 80.1555L297.517 87.6058ZM336.216 107.623L340.07 100.172L336.216 107.623ZM349.704 107.623L345.85 100.172L349.704 107.623ZM336.216 107.623L340.07 100.172L301.371 80.1555L297.517 87.6058L293.663 95.0561L332.362 115.073L336.216 107.623ZM289.582 74.5678H297.97V22.0183H289.582H281.194V74.5678H289.582ZM304.261 7.33936V15.7273H381.659V7.33936V-1.04859H304.261V7.33936ZM396.338 22.0183H387.95V74.5678H396.338H404.726V22.0183H396.338ZM388.403 87.6058L384.549 80.1555L345.85 100.172L349.704 107.623L353.557 115.073L392.256 95.0561L388.403 87.6058ZM396.338 74.5678H387.95C387.95 76.9196 386.638 79.075 384.549 80.1555L388.403 87.6058L392.256 95.0561C399.916 91.0944 404.726 83.1911 404.726 74.5678H396.338ZM381.659 7.33936V15.7273C385.133 15.7273 387.95 18.5439 387.95 22.0183H396.338H404.726C404.726 9.27879 394.398 -1.04859 381.659 -1.04859V7.33936ZM289.582 22.0183H297.97C297.97 18.5439 300.786 15.7273 304.261 15.7273V7.33936V-1.04859C291.521 -1.04859 281.194 9.27879 281.194 22.0183H289.582ZM297.517 87.6058L301.371 80.1555C299.282 79.075 297.97 76.9196 297.97 74.5678H289.582H281.194C281.194 83.1911 286.004 91.0944 293.663 95.0561L297.517 87.6058ZM336.216 107.623L332.362 115.073C339.009 118.511 346.911 118.511 353.557 115.073L349.704 107.623L345.85 100.172C344.037 101.11 341.882 101.11 340.07 100.172L336.216 107.623Z" fill="white" mask="url(#path-18-inside-3_101_131)"/>
</g>
<text id="score_3" fill="white" xml:space="preserve" style="white-space: pre" font-family="Arial Rounded MT Bold" font-size="50" letter-spacing="0em"><tspan x="314.309" y="70.4316">*sc*</tspan></text>
</g>
<g id="bubble-High">
<g id="Union_4" filter="url(#filter4_d_101_131)">
<mask id="path-21-inside-4_101_131" fill="white">
<path d="M553.704 107.623C549.474 109.81 544.446 109.81 540.216 107.623L501.517 87.6058C496.643 85.0847 493.582 80.0554 493.582 74.5678V22.0183C493.582 13.9113 500.154 7.33936 508.261 7.33936H585.659C593.766 7.33936 600.338 13.9113 600.338 22.0183V74.5678C600.338 80.0554 597.277 85.0847 592.403 87.6058L553.704 107.623Z"/>
</mask>
<path d="M553.704 107.623C549.474 109.81 544.446 109.81 540.216 107.623L501.517 87.6058C496.643 85.0847 493.582 80.0554 493.582 74.5678V22.0183C493.582 13.9113 500.154 7.33936 508.261 7.33936H585.659C593.766 7.33936 600.338 13.9113 600.338 22.0183V74.5678C600.338 80.0554 597.277 85.0847 592.403 87.6058L553.704 107.623Z" fill="#C4212A"/>
<path d="M592.403 87.6058L588.549 80.1555L592.403 87.6058ZM501.517 87.6058L505.371 80.1555L501.517 87.6058ZM540.216 107.623L544.07 100.172L540.216 107.623ZM553.704 107.623L549.85 100.172L553.704 107.623ZM540.216 107.623L544.07 100.172L505.371 80.1555L501.517 87.6058L497.663 95.0561L536.362 115.073L540.216 107.623ZM493.582 74.5678H501.97V22.0183H493.582H485.194V74.5678H493.582ZM508.261 7.33936V15.7273H585.659V7.33936V-1.04859H508.261V7.33936ZM600.338 22.0183H591.95V74.5678H600.338H608.726V22.0183H600.338ZM592.403 87.6058L588.549 80.1555L549.85 100.172L553.704 107.623L557.557 115.073L596.256 95.0561L592.403 87.6058ZM600.338 74.5678H591.95C591.95 76.9196 590.638 79.075 588.549 80.1555L592.403 87.6058L596.256 95.0561C603.916 91.0944 608.726 83.1911 608.726 74.5678H600.338ZM585.659 7.33936V15.7273C589.133 15.7273 591.95 18.5439 591.95 22.0183H600.338H608.726C608.726 9.27879 598.398 -1.04859 585.659 -1.04859V7.33936ZM493.582 22.0183H501.97C501.97 18.5439 504.786 15.7273 508.261 15.7273V7.33936V-1.04859C495.521 -1.04859 485.194 9.27879 485.194 22.0183H493.582ZM501.517 87.6058L505.371 80.1555C503.282 79.075 501.97 76.9196 501.97 74.5678H493.582H485.194C485.194 83.1911 490.004 91.0944 497.663 95.0561L501.517 87.6058ZM540.216 107.623L536.362 115.073C543.009 118.511 550.911 118.511 557.557 115.073L553.704 107.623L549.85 100.172C548.037 101.11 545.882 101.11 544.07 100.172L540.216 107.623Z" fill="white" mask="url(#path-21-inside-4_101_131)"/>
</g>
<text id="score_4" fill="white" xml:space="preserve" style="white-space: pre" font-family="Arial Rounded MT Bold" font-size="50" letter-spacing="0em"><tspan x="518.309" y="70.4316">*sc*</tspan></text>
</g>
<g id="bubble-Very-High">
<g id="Union_5" filter="url(#filter5_d_101_131)">
<mask id="path-24-inside-5_101_131" fill="white">
<path d="M744.704 107.623C740.474 109.81 735.446 109.81 731.216 107.623L692.517 87.6058C687.643 85.0847 684.582 80.0554 684.582 74.5678V22.0183C684.582 13.9113 691.154 7.33936 699.261 7.33936H776.659C784.766 7.33936 791.338 13.9113 791.338 22.0183V74.5678C791.338 80.0554 788.277 85.0847 783.403 87.6058L744.704 107.623Z"/>
</mask>
<path d="M744.704 107.623C740.474 109.81 735.446 109.81 731.216 107.623L692.517 87.6058C687.643 85.0847 684.582 80.0554 684.582 74.5678V22.0183C684.582 13.9113 691.154 7.33936 699.261 7.33936H776.659C784.766 7.33936 791.338 13.9113 791.338 22.0183V74.5678C791.338 80.0554 788.277 85.0847 783.403 87.6058L744.704 107.623Z" fill="#C4212A"/>
<path d="M783.403 87.6058L779.549 80.1555L783.403 87.6058ZM692.517 87.6058L696.371 80.1555L692.517 87.6058ZM731.216 107.623L735.07 100.172L731.216 107.623ZM744.704 107.623L740.85 100.172L744.704 107.623ZM731.216 107.623L735.07 100.172L696.371 80.1555L692.517 87.6058L688.663 95.0561L727.362 115.073L731.216 107.623ZM684.582 74.5678H692.97V22.0183H684.582H676.194V74.5678H684.582ZM699.261 7.33936V15.7273H776.659V7.33936V-1.04859H699.261V7.33936ZM791.338 22.0183H782.95V74.5678H791.338H799.726V22.0183H791.338ZM783.403 87.6058L779.549 80.1555L740.85 100.172L744.704 107.623L748.557 115.073L787.256 95.0561L783.403 87.6058ZM791.338 74.5678H782.95C782.95 76.9196 781.638 79.075 779.549 80.1555L783.403 87.6058L787.256 95.0561C794.916 91.0944 799.726 83.1911 799.726 74.5678H791.338ZM776.659 7.33936V15.7273C780.133 15.7273 782.95 18.5439 782.95 22.0183H791.338H799.726C799.726 9.27879 789.398 -1.04859 776.659 -1.04859V7.33936ZM684.582 22.0183H692.97C692.97 18.5439 695.786 15.7273 699.261 15.7273V7.33936V-1.04859C686.521 -1.04859 676.194 9.27879 676.194 22.0183H684.582ZM692.517 87.6058L696.371 80.1555C694.282 79.075 692.97 76.9196 692.97 74.5678H684.582H676.194C676.194 83.1911 681.004 91.0944 688.663 95.0561L692.517 87.6058ZM731.216 107.623L727.362 115.073C734.009 118.511 741.911 118.511 748.557 115.073L744.704 107.623L740.85 100.172C739.037 101.11 736.882 101.11 735.07 100.172L731.216 107.623Z" fill="white" mask="url(#path-24-inside-5_101_131)"/>
</g>
<text id="score_5" fill="white" xml:space="preserve" style="white-space: pre" font-family="Arial Rounded MT Bold" font-size="50" letter-spacing="0em"><tspan x="709.309" y="70.4316">*sc*</tspan></text>
</g>
</g>
<defs>
<filter id="filter0_d_101_131" x="8.38794" y="90.2909" width="808.388" height="92.3879" filterUnits="userSpaceOnUse" color-interpolation-filters="sRGB">
<feFlood flood-opacity="0" result="BackgroundImageFix"/>
<feColorMatrix in="SourceAlpha" type="matrix" values="0 0 0 0 0 0 0 0 0 0 0 0 0 0 0 0 0 0 127 0" result="hardAlpha"/>
<feOffset dy="3.14548"/>
<feGaussianBlur stdDeviation="2.09699"/>
<feComposite in2="hardAlpha" operator="out"/>
<feColorMatrix type="matrix" values="0 0 0 0 0 0 0 0 0 0 0 0 0 0 0 0 0 0 0.12 0"/>
<feBlend mode="normal" in2="BackgroundImageFix" result="effect1_dropShadow_101_131"/>
<feBlend mode="normal" in="SourceGraphic" in2="effect1_dropShadow_101_131" result="shape"/>
</filter>
<filter id="filter1_d_101_131" x="0" y="-9.34601e-05" width="131.92" height="127.088" filterUnits="userSpaceOnUse" color-interpolation-filters="sRGB">
<feFlood flood-opacity="0" result="BackgroundImageFix"/>
<feColorMatrix in="SourceAlpha" type="matrix" values="0 0 0 0 0 0 0 0 0 0 0 0 0 0 0 0 0 0 127 0" result="hardAlpha"/>
<feOffset dy="5.24246"/>
<feGaussianBlur stdDeviation="6.29096"/>
<feComposite in2="hardAlpha" operator="out"/>
<feColorMatrix type="matrix" values="0 0 0 0 0 0 0 0 0 0 0 0 0 0 0 0 0 0 0.2 0"/>
<feBlend mode="normal" in2="BackgroundImageFix" result="effect1_dropShadow_101_131"/>
<feBlend mode="normal" in="SourceGraphic" in2="effect1_dropShadow_101_131" result="shape"/>
</filter>
<filter id="filter2_d_101_131" x="112" y="-9.34601e-05" width="131.92" height="127.088" filterUnits="userSpaceOnUse" color-interpolation-filters="sRGB">
<feFlood flood-opacity="0" result="BackgroundImageFix"/>
<feColorMatrix in="SourceAlpha" type="matrix" values="0 0 0 0 0 0 0 0 0 0 0 0 0 0 0 0 0 0 127 0" result="hardAlpha"/>
<feOffset dy="5.24246"/>
<feGaussianBlur stdDeviation="6.29096"/>
<feComposite in2="hardAlpha" operator="out"/>
<feColorMatrix type="matrix" values="0 0 0 0 0 0 0 0 0 0 0 0 0 0 0 0 0 0 0.2 0"/>
<feBlend mode="normal" in2="BackgroundImageFix" result="effect1_dropShadow_101_131"/>
<feBlend mode="normal" in="SourceGraphic" in2="effect1_dropShadow_101_131" result="shape"/>
</filter>
<filter id="filter3_d_101_131" x="277" y="-9.34601e-05" width="131.92" height="127.088" filterUnits="userSpaceOnUse" color-interpolation-filters="sRGB">
<feFlood flood-opacity="0" result="BackgroundImageFix"/>
<feColorMatrix in="SourceAlpha" type="matrix" values="0 0 0 0 0 0 0 0 0 0 0 0 0 0 0 0 0 0 127 0" result="hardAlpha"/>
<feOffset dy="5.24246"/>
<feGaussianBlur stdDeviation="6.29096"/>
<feComposite in2="hardAlpha" operator="out"/>
<feColorMatrix type="matrix" values="0 0 0 0 0 0 0 0 0 0 0 0 0 0 0 0 0 0 0.2 0"/>
<feBlend mode="normal" in2="BackgroundImageFix" result="effect1_dropShadow_101_131"/>
<feBlend mode="normal" in="SourceGraphic" in2="effect1_dropShadow_101_131" result="shape"/>
</filter>
<filter id="filter4_d_101_131" x="481" y="-9.34601e-05" width="131.92" height="127.088" filterUnits="userSpaceOnUse" color-interpolation-filters="sRGB">
<feFlood flood-opacity="0" result="BackgroundImageFix"/>
<feColorMatrix in="SourceAlpha" type="matrix" values="0 0 0 0 0 0 0 0 0 0 0 0 0 0 0 0 0 0 127 0" result="hardAlpha"/>
<feOffset dy="5.24246"/>
<feGaussianBlur stdDeviation="6.29096"/>
<feComposite in2="hardAlpha" operator="out"/>
<feColorMatrix type="matrix" values="0 0 0 0 0 0 0 0 0 0 0 0 0 0 0 0 0 0 0.2 0"/>
<feBlend mode="normal" in2="BackgroundImageFix" result="effect1_dropShadow_101_131"/>
<feBlend mode="normal" in="SourceGraphic" in2="effect1_dropShadow_101_131" result="shape"/>
</filter>
<filter id="filter5_d_101_131" x="672" y="-9.34601e-05" width="131.92" height="127.088" filterUnits="userSpaceOnUse" color-interpolation-filters="sRGB">
<feFlood flood-opacity="0" result="BackgroundImageFix"/>
<feColorMatrix in="SourceAlpha" type="matrix" values="0 0 0 0 0 0 0 0 0 0 0 0 0 0 0 0 0 0 127 0" result="hardAlpha"/>
<feOffset dy="5.24246"/>
<feGaussianBlur stdDeviation="6.29096"/>
<feComposite in2="hardAlpha" operator="out"/>
<feColorMatrix type="matrix" values="0 0 0 0 0 0 0 0 0 0 0 0 0 0 0 0 0 0 0.2 0"/>
<feBlend mode="normal" in2="BackgroundImageFix" result="effect1_dropShadow_101_131"/>
<feBlend mode="normal" in="SourceGraphic" in2="effect1_dropShadow_101_131" result="shape"/>
</filter>
</defs>
</svg>
