<svg width="785" height="174" viewBox="0 0 785 174" fill="none" xmlns="http://www.w3.org/2000/svg">
<g id="slider-ueqs">
<g id="Frame 1" filter="url(#filter0_d_9_138)">
<rect x="4" y="87" width="763" height="80" rx="26" fill="white" shape-rendering="crispEdges"/>
<g id="frame-3">
<path d="M14 113C14 104.163 21.1634 97 30 97H105.286C109.704 97 113.286 100.582 113.286 105V149C113.286 153.418 109.704 157 105.286 157H30C21.1635 157 14 149.837 14 141V113Z" fill="#C4212A"/>
<text id="label" fill="white" xml:space="preserve" style="white-space: pre" font-family="Arial Rounded MT Bold" font-size="15" letter-spacing="0em"><tspan x="30.618" y="132.515">Very Bad</tspan></text>
</g>
<g id="frame-2">
<rect x="121.286" y="97" width="99.2857" height="60" rx="8" fill="#C4212A"/>
<text id="label_2" fill="white" xml:space="preserve" style="white-space: pre" font-family="Arial Rounded MT Bold" font-size="15" letter-spacing="0em"><tspan x="156.383" y="132.515">Bad</tspan></text>
</g>
<g id="frame-1">
<rect x="228.571" y="97" width="99.2857" height="60" rx="8" fill="#C4212A"/>
<text id="label_3" fill="white" xml:space="preserve" style="white-space: pre" font-family="Arial Rounded MT Bold" font-size="15" letter-spacing="0em"><tspan x="237.785" y="132.515">Below Avg.</tspan></text>
</g>
<g id="frame0">
<rect x="335.857" y="97" width="99.2857" height="60" rx="8" fill="#F06D44"/>
<text id="label2" fill="white" xml:space="preserve" style="white-space: pre" font-family="Arial Rounded MT Bold" font-size="15" letter-spacing="0em"><tspan x="358.554" y="132.515">Neutral</tspan></text>
</g>
<g id="frame1">
<rect x="443.143" y="97" width="99.2857" height="60" rx="8" fill="#0E8743"/>
<text id="label3" fill="white" xml:space="preserve" style="white-space: pre" font-family="Arial Rounded MT Bold" font-size="15" letter-spacing="0em"><tspan x="451.946" y="132.515">Above Avg.</tspan></text>
</g>
<g id="frame2">
<rect x="550.429" y="97" width="99.2857" height="60" rx="8" fill="#0E8743"/>
<text id="label3_2" fill="white" xml:space="preserve" style="white-space: pre" font-family="Arial Rounded MT Bold" font-size="15" letter-spacing="0em"><tspan x="580.377" y="132.515">Good</tspan></text>
</g>
<g id="frame3">
<path d="M657.714 105C657.714 100.582 661.296 97 665.714 97H741C749.837 97 757 104.163 757 113V141C757 149.837 749.837 157 741 157H665.714C661.296 157 657.714 153.418 657.714 149V105Z" fill="#0E8743"/>
<text id="label3_3" fill="white" xml:space="preserve" style="white-space: pre" font-family="Arial Rounded MT Bold" font-size="15" letter-spacing="0em"><tspan x="673.988" y="132.515">Excellent</tspan></text>
</g>
</g>
<g id="bubble-3">
<g id="Union" filter="url(#filter1_d_9_138)">
<mask id="path-16-inside-1_9_138" fill="white">
<path d="M73.3337 102.512C69.3036 104.593 64.5148 104.593 60.4847 102.512L23.5755 83.4488C18.9226 81.0456 16 76.2467 16 71.0099V21C16 13.268 22.268 7 30 7H103.818C111.55 7 117.818 13.268 117.818 21V71.0099C117.818 76.2467 114.896 81.0456 110.243 83.4488L73.3337 102.512Z"/>
</mask>
<path d="M73.3337 102.512C69.3036 104.593 64.5148 104.593 60.4847 102.512L23.5755 83.4488C18.9226 81.0456 16 76.2467 16 71.0099V21C16 13.268 22.268 7 30 7H103.818C111.55 7 117.818 13.268 117.818 21V71.0099C117.818 76.2467 114.896 81.0456 110.243 83.4488L73.3337 102.512Z" fill="#C4212A"/>
<path d="M110.243 83.4488L106.572 76.3408L110.243 83.4488ZM23.5755 83.4488L27.2466 76.3409L23.5755 83.4488ZM73.3337 102.512L69.6625 95.404L73.3337 102.512ZM60.4847 102.512L64.1558 95.404L27.2466 76.3409L23.5755 83.4488L19.9043 90.5567L56.8135 109.62L60.4847 102.512ZM16 71.0099H24V21H16H8V71.0099H16ZM30 7V15H103.818V7V-1H30V7ZM117.818 21H109.818V71.0099H117.818H125.818V21H117.818ZM110.243 83.4488L106.572 76.3408L69.6625 95.404L73.3337 102.512L77.0049 109.62L113.914 90.5567L110.243 83.4488ZM117.818 71.0099H109.818C109.818 73.2542 108.566 75.3109 106.572 76.3408L110.243 83.4488L113.914 90.5567C121.226 86.7803 125.818 79.2391 125.818 71.0099H117.818ZM103.818 7V15C107.132 15 109.818 17.6863 109.818 21H117.818H125.818C125.818 8.84974 115.969 -1 103.818 -1V7ZM16 21H24C24 17.6863 26.6863 15 30 15V7V-1C17.8497 -1 8 8.84973 8 21H16ZM23.5755 83.4488L27.2466 76.3409C25.2526 75.3109 24 73.2542 24 71.0099H16H8C8 79.2391 12.5927 86.7803 19.9043 90.5567L23.5755 83.4488ZM60.4847 102.512L56.8135 109.62C63.1465 112.891 70.6718 112.891 77.0049 109.62L73.3337 102.512L69.6625 95.404C67.9354 96.296 65.883 96.296 64.1558 95.404L60.4847 102.512Z" fill="white" mask="url(#path-16-inside-1_9_138)"/>
</g>
<text id="score" fill="white" xml:space="preserve" style="white-space: pre" font-family="Arial Rounded MT Bold" font-size="46" letter-spacing="0em"><tspan x="50" y="65.3736">*sc*</tspan></text>
</g>
<g id="bubble-2">
<g id="Union_2" filter="url(#filter2_d_9_138)">
<mask id="path-19-inside-2_9_138" fill="white">
<path d="M180.334 102.512C176.304 104.593 171.515 104.593 167.485 102.512L130.575 83.4488C125.923 81.0456 123 76.2467 123 71.0099V21C123 13.268 129.268 7 137 7H210.818C218.55 7 224.818 13.268 224.818 21V71.0099C224.818 76.2467 221.896 81.0456 217.243 83.4488L180.334 102.512Z"/>
</mask>
<path d="M180.334 102.512C176.304 104.593 171.515 104.593 167.485 102.512L130.575 83.4488C125.923 81.0456 123 76.2467 123 71.0099V21C123 13.268 129.268 7 137 7H210.818C218.55 7 224.818 13.268 224.818 21V71.0099C224.818 76.2467 221.896 81.0456 217.243 83.4488L180.334 102.512Z" fill="#C4212A"/>
<path d="M217.243 83.4488L213.572 76.3408L217.243 83.4488ZM130.575 83.4488L134.247 76.3409L130.575 83.4488ZM180.334 102.512L176.663 95.404L180.334 102.512ZM167.485 102.512L171.156 95.404L134.247 76.3409L130.575 83.4488L126.904 90.5567L163.814 109.62L167.485 102.512ZM123 71.0099H131V21H123H115V71.0099H123ZM137 7V15H210.818V7V-1H137V7ZM224.818 21H216.818V71.0099H224.818H232.818V21H224.818ZM217.243 83.4488L213.572 76.3408L176.663 95.404L180.334 102.512L184.005 109.62L220.914 90.5567L217.243 83.4488ZM224.818 71.0099H216.818C216.818 73.2542 215.566 75.3109 213.572 76.3408L217.243 83.4488L220.914 90.5567C228.226 86.7803 232.818 79.2391 232.818 71.0099H224.818ZM210.818 7V15C214.132 15 216.818 17.6863 216.818 21H224.818H232.818C232.818 8.84974 222.969 -1 210.818 -1V7ZM123 21H131C131 17.6863 133.686 15 137 15V7V-1C124.85 -1 115 8.84973 115 21H123ZM130.575 83.4488L134.247 76.3409C132.253 75.3109 131 73.2542 131 71.0099H123H115C115 79.2391 119.593 86.7803 126.904 90.5567L130.575 83.4488ZM167.485 102.512L163.814 109.62C170.147 112.891 177.672 112.891 184.005 109.62L180.334 102.512L176.663 95.404C174.935 96.296 172.883 96.296 171.156 95.404L167.485 102.512Z" fill="white" mask="url(#path-19-inside-2_9_138)"/>
</g>
<text id="score_2" fill="white" xml:space="preserve" style="white-space: pre" font-family="Arial Rounded MT Bold" font-size="46" letter-spacing="0em"><tspan x="157" y="65.3736">*sc*</tspan></text>
</g>
<g id="bubble-1">
<g id="Union_3" filter="url(#filter3_d_9_138)">
<mask id="path-22-inside-3_9_138" fill="white">
<path d="M287.334 102.512C283.304 104.593 278.515 104.593 274.485 102.512L237.575 83.4488C232.923 81.0456 230 76.2467 230 71.0099V21C230 13.268 236.268 7 244 7H317.818C325.55 7 331.818 13.268 331.818 21V71.0099C331.818 76.2467 328.896 81.0456 324.243 83.4488L287.334 102.512Z"/>
</mask>
<path d="M287.334 102.512C283.304 104.593 278.515 104.593 274.485 102.512L237.575 83.4488C232.923 81.0456 230 76.2467 230 71.0099V21C230 13.268 236.268 7 244 7H317.818C325.55 7 331.818 13.268 331.818 21V71.0099C331.818 76.2467 328.896 81.0456 324.243 83.4488L287.334 102.512Z" fill="#C4212A"/>
<path d="M324.243 83.4488L320.572 76.3408L324.243 83.4488ZM237.575 83.4488L241.247 76.3409L237.575 83.4488ZM287.334 102.512L283.663 95.404L287.334 102.512ZM274.485 102.512L278.156 95.404L241.247 76.3409L237.575 83.4488L233.904 90.5567L270.814 109.62L274.485 102.512ZM230 71.0099H238V21H230H222V71.0099H230ZM244 7V15H317.818V7V-1H244V7ZM331.818 21H323.818V71.0099H331.818H339.818V21H331.818ZM324.243 83.4488L320.572 76.3408L283.663 95.404L287.334 102.512L291.005 109.62L327.914 90.5567L324.243 83.4488ZM331.818 71.0099H323.818C323.818 73.2542 322.566 75.3109 320.572 76.3408L324.243 83.4488L327.914 90.5567C335.226 86.7803 339.818 79.2391 339.818 71.0099H331.818ZM317.818 7V15C321.132 15 323.818 17.6863 323.818 21H331.818H339.818C339.818 8.84974 329.969 -1 317.818 -1V7ZM230 21H238C238 17.6863 240.686 15 244 15V7V-1C231.85 -1 222 8.84973 222 21H230ZM237.575 83.4488L241.247 76.3409C239.253 75.3109 238 73.2542 238 71.0099H230H222C222 79.2391 226.593 86.7803 233.904 90.5567L237.575 83.4488ZM274.485 102.512L270.814 109.62C277.147 112.891 284.672 112.891 291.005 109.62L287.334 102.512L283.663 95.404C281.935 96.296 279.883 96.296 278.156 95.404L274.485 102.512Z" fill="white" mask="url(#path-22-inside-3_9_138)"/>
</g>
<text id="score_3" fill="white" xml:space="preserve" style="white-space: pre" font-family="Arial Rounded MT Bold" font-size="46" letter-spacing="0em"><tspan x="264" y="65.3736">*sc*</tspan></text>
</g>
<g id="bubble0">
<g id="Union_4" filter="url(#filter4_d_9_138)">
<mask id="path-25-inside-4_9_138" fill="white">
<path d="M394.334 102.512C390.304 104.593 385.515 104.593 381.485 102.512L344.575 83.4488C339.923 81.0456 337 76.2467 337 71.0099V21C337 13.268 343.268 7 351 7H424.818C432.55 7 438.818 13.268 438.818 21V71.0099C438.818 76.2467 435.896 81.0456 431.243 83.4488L394.334 102.512Z"/>
</mask>
<path d="M394.334 102.512C390.304 104.593 385.515 104.593 381.485 102.512L344.575 83.4488C339.923 81.0456 337 76.2467 337 71.0099V21C337 13.268 343.268 7 351 7H424.818C432.55 7 438.818 13.268 438.818 21V71.0099C438.818 76.2467 435.896 81.0456 431.243 83.4488L394.334 102.512Z" fill="#F06D44"/>
<path d="M431.243 83.4488L427.572 76.3408L431.243 83.4488ZM344.575 83.4488L348.247 76.3409L344.575 83.4488ZM394.334 102.512L390.663 95.404L394.334 102.512ZM381.485 102.512L385.156 95.404L348.247 76.3409L344.575 83.4488L340.904 90.5567L377.814 109.62L381.485 102.512ZM337 71.0099H345V21H337H329V71.0099H337ZM351 7V15H424.818V7V-1H351V7ZM438.818 21H430.818V71.0099H438.818H446.818V21H438.818ZM431.243 83.4488L427.572 76.3408L390.663 95.404L394.334 102.512L398.005 109.62L434.914 90.5567L431.243 83.4488ZM438.818 71.0099H430.818C430.818 73.2542 429.566 75.3109 427.572 76.3408L431.243 83.4488L434.914 90.5567C442.226 86.7803 446.818 79.2391 446.818 71.0099H438.818ZM424.818 7V15C428.132 15 430.818 17.6863 430.818 21H438.818H446.818C446.818 8.84974 436.969 -1 424.818 -1V7ZM337 21H345C345 17.6863 347.686 15 351 15V7V-1C338.85 -1 329 8.84973 329 21H337ZM344.575 83.4488L348.247 76.3409C346.253 75.3109 345 73.2542 345 71.0099H337H329C329 79.2391 333.593 86.7803 340.904 90.5567L344.575 83.4488ZM381.485 102.512L377.814 109.62C384.147 112.891 391.672 112.891 398.005 109.62L394.334 102.512L390.663 95.404C388.935 96.296 386.883 96.296 385.156 95.404L381.485 102.512Z" fill="white" mask="url(#path-25-inside-4_9_138)"/>
</g>
<text id="score_4" fill="white" xml:space="preserve" style="white-space: pre" font-family="Arial Rounded MT Bold" font-size="46" letter-spacing="0em"><tspan x="371" y="65.3736">*sc*</tspan></text>
</g>
<g id="bubble1">
<g id="Union_5" filter="url(#filter5_d_9_138)">
<mask id="path-28-inside-5_9_138" fill="white">
<path d="M501.334 102.512C497.304 104.593 492.515 104.593 488.485 102.512L451.575 83.4488C446.923 81.0456 444 76.2467 444 71.0099V21C444 13.268 450.268 7 458 7H531.818C539.55 7 545.818 13.268 545.818 21V71.0099C545.818 76.2467 542.896 81.0456 538.243 83.4488L501.334 102.512Z"/>
</mask>
<path d="M501.334 102.512C497.304 104.593 492.515 104.593 488.485 102.512L451.575 83.4488C446.923 81.0456 444 76.2467 444 71.0099V21C444 13.268 450.268 7 458 7H531.818C539.55 7 545.818 13.268 545.818 21V71.0099C545.818 76.2467 542.896 81.0456 538.243 83.4488L501.334 102.512Z" fill="#0E8743"/>
<path d="M538.243 83.4488L534.572 76.3408L538.243 83.4488ZM451.575 83.4488L455.247 76.3409L451.575 83.4488ZM501.334 102.512L497.663 95.404L501.334 102.512ZM488.485 102.512L492.156 95.404L455.247 76.3409L451.575 83.4488L447.904 90.5567L484.814 109.62L488.485 102.512ZM444 71.0099H452V21H444H436V71.0099H444ZM458 7V15H531.818V7V-1H458V7ZM545.818 21H537.818V71.0099H545.818H553.818V21H545.818ZM538.243 83.4488L534.572 76.3408L497.663 95.404L501.334 102.512L505.005 109.62L541.914 90.5567L538.243 83.4488ZM545.818 71.0099H537.818C537.818 73.2542 536.566 75.3109 534.572 76.3408L538.243 83.4488L541.914 90.5567C549.226 86.7803 553.818 79.2391 553.818 71.0099H545.818ZM531.818 7V15C535.132 15 537.818 17.6863 537.818 21H545.818H553.818C553.818 8.84974 543.969 -1 531.818 -1V7ZM444 21H452C452 17.6863 454.686 15 458 15V7V-1C445.85 -1 436 8.84973 436 21H444ZM451.575 83.4488L455.247 76.3409C453.253 75.3109 452 73.2542 452 71.0099H444H436C436 79.2391 440.593 86.7803 447.904 90.5567L451.575 83.4488ZM488.485 102.512L484.814 109.62C491.147 112.891 498.672 112.891 505.005 109.62L501.334 102.512L497.663 95.404C495.935 96.296 493.883 96.296 492.156 95.404L488.485 102.512Z" fill="white" mask="url(#path-28-inside-5_9_138)"/>
</g>
<text id="score_5" fill="white" xml:space="preserve" style="white-space: pre" font-family="Arial Rounded MT Bold" font-size="46" letter-spacing="0em"><tspan x="478" y="65.3736">*sc*</tspan></text>
</g>
<g id="bubble2">
<g id="Union_6" filter="url(#filter6_d_9_138)">
<mask id="path-31-inside-6_9_138" fill="white">
<path d="M608.334 102.512C604.304 104.593 599.515 104.593 595.485 102.512L558.575 83.4488C553.923 81.0456 551 76.2467 551 71.0099V21C551 13.268 557.268 7 565 7H638.818C646.55 7 652.818 13.268 652.818 21V71.0099C652.818 76.2467 649.896 81.0456 645.243 83.4488L608.334 102.512Z"/>
</mask>
<path d="M608.334 102.512C604.304 104.593 599.515 104.593 595.485 102.512L558.575 83.4488C553.923 81.0456 551 76.2467 551 71.0099V21C551 13.268 557.268 7 565 7H638.818C646.55 7 652.818 13.268 652.818 21V71.0099C652.818 76.2467 649.896 81.0456 645.243 83.4488L608.334 102.512Z" fill="#0E8743"/>
<path d="M645.243 83.4488L641.572 76.3408L645.243 83.4488ZM558.575 83.4488L562.247 76.3409L558.575 83.4488ZM608.334 102.512L604.663 95.404L608.334 102.512ZM595.485 102.512L599.156 95.404L562.247 76.3409L558.575 83.4488L554.904 90.5567L591.814 109.62L595.485 102.512ZM551 71.0099H559V21H551H543V71.0099H551ZM565 7V15H638.818V7V-1H565V7ZM652.818 21H644.818V71.0099H652.818H660.818V21H652.818ZM645.243 83.4488L641.572 76.3408L604.663 95.404L608.334 102.512L612.005 109.62L648.914 90.5567L645.243 83.4488ZM652.818 71.0099H644.818C644.818 73.2542 643.566 75.3109 641.572 76.3408L645.243 83.4488L648.914 90.5567C656.226 86.7803 660.818 79.2391 660.818 71.0099H652.818ZM638.818 7V15C642.132 15 644.818 17.6863 644.818 21H652.818H660.818C660.818 8.84974 650.969 -1 638.818 -1V7ZM551 21H559C559 17.6863 561.686 15 565 15V7V-1C552.85 -1 543 8.84973 543 21H551ZM558.575 83.4488L562.247 76.3409C560.253 75.3109 559 73.2542 559 71.0099H551H543C543 79.2391 547.593 86.7803 554.904 90.5567L558.575 83.4488ZM595.485 102.512L591.814 109.62C598.147 112.891 605.672 112.891 612.005 109.62L608.334 102.512L604.663 95.404C602.935 96.296 600.883 96.296 599.156 95.404L595.485 102.512Z" fill="white" mask="url(#path-31-inside-6_9_138)"/>
</g>
<text id="score_6" fill="white" xml:space="preserve" style="white-space: pre" font-family="Arial Rounded MT Bold" font-size="46" letter-spacing="0em"><tspan x="585" y="65.3736">*sc*</tspan></text>
</g>
<g id="bubble3">
<g id="Union_7" filter="url(#filter7_d_9_138)">
<mask id="path-34-inside-7_9_138" fill="white">
<path d="M715.334 102.512C711.304 104.593 706.515 104.593 702.485 102.512L665.575 83.4488C660.923 81.0456 658 76.2467 658 71.0099V21C658 13.268 664.268 7 672 7H745.818C753.55 7 759.818 13.268 759.818 21V71.0099C759.818 76.2467 756.896 81.0456 752.243 83.4488L715.334 102.512Z"/>
</mask>
<path d="M715.334 102.512C711.304 104.593 706.515 104.593 702.485 102.512L665.575 83.4488C660.923 81.0456 658 76.2467 658 71.0099V21C658 13.268 664.268 7 672 7H745.818C753.55 7 759.818 13.268 759.818 21V71.0099C759.818 76.2467 756.896 81.0456 752.243 83.4488L715.334 102.512Z" fill="#0E8743"/>
<path d="M752.243 83.4488L748.572 76.3408L752.243 83.4488ZM665.575 83.4488L669.247 76.3409L665.575 83.4488ZM715.334 102.512L711.663 95.404L715.334 102.512ZM702.485 102.512L706.156 95.404L669.247 76.3409L665.575 83.4488L661.904 90.5567L698.814 109.62L702.485 102.512ZM658 71.0099H666V21H658H650V71.0099H658ZM672 7V15H745.818V7V-1H672V7ZM759.818 21H751.818V71.0099H759.818H767.818V21H759.818ZM752.243 83.4488L748.572 76.3408L711.663 95.404L715.334 102.512L719.005 109.62L755.914 90.5567L752.243 83.4488ZM759.818 71.0099H751.818C751.818 73.2542 750.566 75.3109 748.572 76.3408L752.243 83.4488L755.914 90.5567C763.226 86.7803 767.818 79.2391 767.818 71.0099H759.818ZM745.818 7V15C749.132 15 751.818 17.6863 751.818 21H759.818H767.818C767.818 8.84974 757.969 -1 745.818 -1V7ZM658 21H666C666 17.6863 668.686 15 672 15V7V-1C659.85 -1 650 8.84973 650 21H658ZM665.575 83.4488L669.247 76.3409C667.253 75.3109 666 73.2542 666 71.0099H658H650C650 79.2391 654.593 86.7803 661.904 90.5567L665.575 83.4488ZM702.485 102.512L698.814 109.62C705.147 112.891 712.672 112.891 719.005 109.62L715.334 102.512L711.663 95.404C709.935 96.296 707.883 96.296 706.156 95.404L702.485 102.512Z" fill="white" mask="url(#path-34-inside-7_9_138)"/>
</g>
<text id="score_7" fill="white" xml:space="preserve" style="white-space: pre" font-family="Arial Rounded MT Bold" font-size="46" letter-spacing="0em"><tspan x="692" y="65.3736">*sc*</tspan></text>
</g>
</g>
<defs>
<filter id="filter0_d_9_138" x="0" y="86" width="771" height="88" filterUnits="userSpaceOnUse" color-interpolation-filters="sRGB">
<feFlood flood-opacity="0" result="BackgroundImageFix"/>
<feColorMatrix in="SourceAlpha" type="matrix" values="0 0 0 0 0 0 0 0 0 0 0 0 0 0 0 0 0 0 127 0" result="hardAlpha"/>
<feOffset dy="3"/>
<feGaussianBlur stdDeviation="2"/>
<feComposite in2="hardAlpha" operator="out"/>
<feColorMatrix type="matrix" values="0 0 0 0 0 0 0 0 0 0 0 0 0 0 0 0 0 0 0.12 0"/>
<feBlend mode="normal" in2="BackgroundImageFix" result="effect1_dropShadow_9_138"/>
<feBlend mode="normal" in="SourceGraphic" in2="effect1_dropShadow_9_138" result="shape"/>
</filter>
<filter id="filter1_d_9_138" x="4" y="0" width="125.818" height="121.073" filterUnits="userSpaceOnUse" color-interpolation-filters="sRGB">
<feFlood flood-opacity="0" result="BackgroundImageFix"/>
<feColorMatrix in="SourceAlpha" type="matrix" values="0 0 0 0 0 0 0 0 0 0 0 0 0 0 0 0 0 0 127 0" result="hardAlpha"/>
<feOffset dy="5"/>
<feGaussianBlur stdDeviation="6"/>
<feComposite in2="hardAlpha" operator="out"/>
<feColorMatrix type="matrix" values="0 0 0 0 0 0 0 0 0 0 0 0 0 0 0 0 0 0 0.2 0"/>
<feBlend mode="normal" in2="BackgroundImageFix" result="effect1_dropShadow_9_138"/>
<feBlend mode="normal" in="SourceGraphic" in2="effect1_dropShadow_9_138" result="shape"/>
</filter>
<filter id="filter2_d_9_138" x="111" y="0" width="125.818" height="121.073" filterUnits="userSpaceOnUse" color-interpolation-filters="sRGB">
<feFlood flood-opacity="0" result="BackgroundImageFix"/>
<feColorMatrix in="SourceAlpha" type="matrix" values="0 0 0 0 0 0 0 0 0 0 0 0 0 0 0 0 0 0 127 0" result="hardAlpha"/>
<feOffset dy="5"/>
<feGaussianBlur stdDeviation="6"/>
<feComposite in2="hardAlpha" operator="out"/>
<feColorMatrix type="matrix" values="0 0 0 0 0 0 0 0 0 0 0 0 0 0 0 0 0 0 0.2 0"/>
<feBlend mode="normal" in2="BackgroundImageFix" result="effect1_dropShadow_9_138"/>
<feBlend mode="normal" in="SourceGraphic" in2="effect1_dropShadow_9_138" result="shape"/>
</filter>
<filter id="filter3_d_9_138" x="218" y="0" width="125.818" height="121.073" filterUnits="userSpaceOnUse" color-interpolation-filters="sRGB">
<feFlood flood-opacity="0" result="BackgroundImageFix"/>
<feColorMatrix in="SourceAlpha" type="matrix" values="0 0 0 0 0 0 0 0 0 0 0 0 0 0 0 0 0 0 127 0" result="hardAlpha"/>
<feOffset dy="5"/>
<feGaussianBlur stdDeviation="6"/>
<feComposite in2="hardAlpha" operator="out"/>
<feColorMatrix type="matrix" values="0 0 0 0 0 0 0 0 0 0 0 0 0 0 0 0 0 0 0.2 0"/>
<feBlend mode="normal" in2="BackgroundImageFix" result="effect1_dropShadow_9_138"/>
<feBlend mode="normal" in="SourceGraphic" in2="effect1_dropShadow_9_138" result="shape"/>
</filter>
<filter id="filter4_d_9_138" x="325" y="0" width="125.818" height="121.073" filterUnits="userSpaceOnUse" color-interpolation-filters="sRGB">
<feFlood flood-opacity="0" result="BackgroundImageFix"/>
<feColorMatrix in="SourceAlpha" type="matrix" values="0 0 0 0 0 0 0 0 0 0 0 0 0 0 0 0 0 0 127 0" result="hardAlpha"/>
<feOffset dy="5"/>
<feGaussianBlur stdDeviation="6"/>
<feComposite in2="hardAlpha" operator="out"/>
<feColorMatrix type="matrix" values="0 0 0 0 0 0 0 0 0 0 0 0 0 0 0 0 0 0 0.2 0"/>
<feBlend mode="normal" in2="BackgroundImageFix" result="effect1_dropShadow_9_138"/>
<feBlend mode="normal" in="SourceGraphic" in2="effect1_dropShadow_9_138" result="shape"/>
</filter>
<filter id="filter5_d_9_138" x="432" y="0" width="125.818" height="121.073" filterUnits="userSpaceOnUse" color-interpolation-filters="sRGB">
<feFlood flood-opacity="0" result="BackgroundImageFix"/>
<feColorMatrix in="SourceAlpha" type="matrix" values="0 0 0 0 0 0 0 0 0 0 0 0 0 0 0 0 0 0 127 0" result="hardAlpha"/>
<feOffset dy="5"/>
<feGaussianBlur stdDeviation="6"/>
<feComposite in2="hardAlpha" operator="out"/>
<feColorMatrix type="matrix" values="0 0 0 0 0 0 0 0 0 0 0 0 0 0 0 0 0 0 0.2 0"/>
<feBlend mode="normal" in2="BackgroundImageFix" result="effect1_dropShadow_9_138"/>
<feBlend mode="normal" in="SourceGraphic" in2="effect1_dropShadow_9_138" result="shape"/>
</filter>
<filter id="filter6_d_9_138" x="539" y="0" width="125.818" height="121.073" filterUnits="userSpaceOnUse" color-interpolation-filters="sRGB">
<feFlood flood-opacity="0" result="BackgroundImageFix"/>
<feColorMatrix in="SourceAlpha" type="matrix" values="0 0 0 0 0 0 0 0 0 0 0 0 0 0 0 0 0 0 127 0" result="hardAlpha"/>
<feOffset dy="5"/>
<feGaussianBlur stdDeviation="6"/>
<feComposite in2="hardAlpha" operator="out"/>
<feColorMatrix type="matrix" values="0 0 0 0 0 0 0 0 0 0 0 0 0 0 0 0 0 0 0.2 0"/>
<feBlend mode="normal" in2="BackgroundImageFix" result="effect1_dropShadow_9_138"/>
<feBlend mode="normal" in="SourceGraphic" in2="effect1_dropShadow_9_138" result="shape"/>
</filter>
<filter id="filter7_d_9_138" x="646" y="0" width="125.818" height="121.073" filterUnits="userSpaceOnUse" color-interpolation-filters="sRGB">
<feFlood flood-opacity="0" result="BackgroundImageFix"/>
<feColorMatrix in="SourceAlpha" type="matrix" values="0 0 0 0 0 0 0 0 0 0 0 0 0 0 0 0 0 0 127 0" result="hardAlpha"/>
<feOffset dy="5"/>
<feGaussianBlur stdDeviation="6"/>
<feComposite in2="hardAlpha" operator="out"/>
<feColorMatrix type="matrix" values="0 0 0 0 0 0 0 0 0 0 0 0 0 0 0 0 0 0 0.2 0"/>
<feBlend mode="normal" in2="BackgroundImageFix" result="effect1_dropShadow_9_138"/>
<feBlend mode="normal" in="SourceGraphic" in2="effect1_dropShadow_9_138" result="shape"/>
</filter>
</defs>
</svg>
