<svg width="809" height="183" viewBox="0 0 809 183" fill="none" xmlns="http://www.w3.org/2000/svg">
<g id="slider-sus">
<g id="Frame 1" filter="url(#filter0_d_8_76)">
<rect x="4.19397" y="91.3394" width="800" height="84" rx="27.2608" fill="white" shape-rendering="crispEdges"/>
<g id="frame-Not-Acceptable">
<path d="M14.6789 118.6C14.6789 109.335 22.1897 101.824 31.4548 101.824H402.621C407.254 101.824 411.009 105.58 411.009 110.212V156.467C411.009 161.099 407.254 164.855 402.621 164.855H31.4548C22.1897 164.855 14.6789 157.344 14.6789 148.079V118.6Z" fill="#C4212A"/>
<text id="label" fill="white" xml:space="preserve" style="white-space: pre" font-family="Arial Rounded MT Bold" font-size="22.8762" letter-spacing="0em"><tspan x="127.092" y="141.75">Not Acceptable</tspan></text>
</g>
<g id="frame-Marginal">
<rect x="419.397" y="101.824" width="144.692" height="63.0301" rx="8.38794" fill="#D74011"/>
<text id="label2" fill="white" xml:space="preserve" style="white-space: pre" font-family="Arial Rounded MT Bold" font-size="22.8762" letter-spacing="0em"><tspan x="443.611" y="141.75">Marginal</tspan></text>
</g>
<g id="frame-Acceptable">
<path d="M572.477 110.212C572.477 105.58 576.232 101.824 580.865 101.824H776.933C786.198 101.824 793.709 109.335 793.709 118.6V148.079C793.709 157.344 786.198 164.855 776.933 164.855H580.865C576.232 164.855 572.477 161.099 572.477 156.467V110.212Z" fill="#0E8743"/>
<text id="label3" fill="white" xml:space="preserve" style="white-space: pre" font-family="Arial Rounded MT Bold" font-size="22.8762" letter-spacing="0em"><tspan x="619.86" y="141.75">Acceptable</tspan></text>
</g>
</g>
<g id="Not-Acceptable">
<g id="Union" filter="url(#filter1_d_8_76)">
<mask id="path-8-inside-1_8_76" fill="white">
<path d="M219.493 107.623C215.263 109.811 210.235 109.811 206.005 107.623L167.306 87.6059C162.432 85.0848 159.371 80.0555 159.371 74.5679V22.0183C159.371 13.9114 165.943 7.33945 174.05 7.33945H251.448C259.555 7.33945 266.127 13.9114 266.127 22.0183V74.5679C266.127 80.0555 263.066 85.0848 258.192 87.6059L219.493 107.623Z"/>
</mask>
<path d="M219.493 107.623C215.263 109.811 210.235 109.811 206.005 107.623L167.306 87.6059C162.432 85.0848 159.371 80.0555 159.371 74.5679V22.0183C159.371 13.9114 165.943 7.33945 174.05 7.33945H251.448C259.555 7.33945 266.127 13.9114 266.127 22.0183V74.5679C266.127 80.0555 263.066 85.0848 258.192 87.6059L219.493 107.623Z" fill="#C4212A"/>
<path d="M258.192 87.6059L254.338 80.1556L258.192 87.6059ZM167.306 87.6059L171.16 80.1556L167.306 87.6059ZM206.005 107.623L209.859 100.172L206.005 107.623ZM219.493 107.623L215.639 100.172L219.493 107.623ZM206.005 107.623L209.859 100.172L171.16 80.1556L167.306 87.6059L163.452 95.0562L202.151 115.073L206.005 107.623ZM159.371 74.5679H167.759V22.0183H159.371H150.983V74.5679H159.371ZM174.05 7.33945V15.7274H251.448V7.33945V-1.0485H174.05V7.33945ZM266.127 22.0183H257.739V74.5679H266.127H274.515V22.0183H266.127ZM258.192 87.6059L254.338 80.1556L215.639 100.172L219.493 107.623L223.346 115.073L262.045 95.0562L258.192 87.6059ZM266.127 74.5679H257.739C257.739 76.9197 256.427 79.0751 254.338 80.1556L258.192 87.6059L262.045 95.0562C269.705 91.0944 274.515 83.1912 274.515 74.5679H266.127ZM251.448 7.33945V15.7274C254.922 15.7274 257.739 18.544 257.739 22.0183H266.127H274.515C274.515 9.27888 264.187 -1.0485 251.448 -1.0485V7.33945ZM159.371 22.0183H167.759C167.759 18.5439 170.575 15.7274 174.05 15.7274V7.33945V-1.0485C161.31 -1.0485 150.983 9.27888 150.983 22.0183H159.371ZM167.306 87.6059L171.16 80.1556C169.071 79.0751 167.759 76.9197 167.759 74.5679H159.371H150.983C150.983 83.1912 155.793 91.0945 163.452 95.0562L167.306 87.6059ZM206.005 107.623L202.151 115.073C208.798 118.511 216.7 118.511 223.346 115.073L219.493 107.623L215.639 100.172C213.826 101.11 211.671 101.11 209.859 100.172L206.005 107.623Z" fill="white" mask="url(#path-8-inside-1_8_76)"/>
</g>
<text id="score" fill="white" xml:space="preserve" style="white-space: pre" font-family="Arial Rounded MT Bold" font-size="48.2307" letter-spacing="0em"><tspan x="183.486" y="68.7812">*sc*</tspan></text>
</g>
<g id="Marginal">
<g id="Union_2" filter="url(#filter2_d_8_76)">
<mask id="path-11-inside-2_8_76" fill="white">
<path d="M498.392 107.623C494.162 109.811 489.134 109.811 484.904 107.623L446.205 87.6059C441.331 85.0848 438.27 80.0555 438.27 74.5679V22.0183C438.27 13.9114 444.842 7.33945 452.949 7.33945H530.347C538.454 7.33945 545.026 13.9114 545.026 22.0183V74.5679C545.026 80.0555 541.965 85.0848 537.091 87.6059L498.392 107.623Z"/>
</mask>
<path d="M498.392 107.623C494.162 109.811 489.134 109.811 484.904 107.623L446.205 87.6059C441.331 85.0848 438.27 80.0555 438.27 74.5679V22.0183C438.27 13.9114 444.842 7.33945 452.949 7.33945H530.347C538.454 7.33945 545.026 13.9114 545.026 22.0183V74.5679C545.026 80.0555 541.965 85.0848 537.091 87.6059L498.392 107.623Z" fill="#D74011"/>
<path d="M537.091 87.6059L533.237 80.1556L537.091 87.6059ZM446.205 87.6059L450.059 80.1556L446.205 87.6059ZM484.904 107.623L488.758 100.172L484.904 107.623ZM498.392 107.623L494.538 100.172L498.392 107.623ZM484.904 107.623L488.758 100.172L450.059 80.1556L446.205 87.6059L442.351 95.0562L481.05 115.073L484.904 107.623ZM438.27 74.5679H446.658V22.0183H438.27H429.882V74.5679H438.27ZM452.949 7.33945V15.7274H530.347V7.33945V-1.0485H452.949V7.33945ZM545.026 22.0183H536.638V74.5679H545.026H553.414V22.0183H545.026ZM537.091 87.6059L533.237 80.1556L494.538 100.172L498.392 107.623L502.245 115.073L540.944 95.0562L537.091 87.6059ZM545.026 74.5679H536.638C536.638 76.9197 535.326 79.0751 533.237 80.1556L537.091 87.6059L540.944 95.0562C548.604 91.0944 553.414 83.1912 553.414 74.5679H545.026ZM530.347 7.33945V15.7274C533.821 15.7274 536.638 18.544 536.638 22.0183H545.026H553.414C553.414 9.27888 543.086 -1.0485 530.347 -1.0485V7.33945ZM438.27 22.0183H446.658C446.658 18.5439 449.474 15.7274 452.949 15.7274V7.33945V-1.0485C440.209 -1.0485 429.882 9.27888 429.882 22.0183H438.27ZM446.205 87.6059L450.059 80.1556C447.97 79.0751 446.658 76.9197 446.658 74.5679H438.27H429.882C429.882 83.1912 434.692 91.0945 442.351 95.0562L446.205 87.6059ZM484.904 107.623L481.05 115.073C487.697 118.511 495.599 118.511 502.245 115.073L498.392 107.623L494.538 100.172C492.725 101.11 490.57 101.11 488.758 100.172L484.904 107.623Z" fill="white" mask="url(#path-11-inside-2_8_76)"/>
</g>
<text id="score_2" fill="white" xml:space="preserve" style="white-space: pre" font-family="Arial Rounded MT Bold" font-size="48.2307" letter-spacing="0em"><tspan x="462.385" y="68.7812">*sc*</tspan></text>
</g>
<g id="Acceptable">
<g id="Union_3" filter="url(#filter3_d_8_76)">
<mask id="path-14-inside-3_8_76" fill="white">
<path d="M690.266 107.623C686.036 109.811 681.008 109.811 676.778 107.623L638.079 87.6059C633.205 85.0848 630.144 80.0555 630.144 74.5679V22.0183C630.144 13.9114 636.716 7.33945 644.823 7.33945H722.221C730.328 7.33945 736.9 13.9114 736.9 22.0183V74.5679C736.9 80.0555 733.839 85.0848 728.965 87.6059L690.266 107.623Z"/>
</mask>
<path d="M690.266 107.623C686.036 109.811 681.008 109.811 676.778 107.623L638.079 87.6059C633.205 85.0848 630.144 80.0555 630.144 74.5679V22.0183C630.144 13.9114 636.716 7.33945 644.823 7.33945H722.221C730.328 7.33945 736.9 13.9114 736.9 22.0183V74.5679C736.9 80.0555 733.839 85.0848 728.965 87.6059L690.266 107.623Z" fill="#0E8743"/>
<path d="M728.965 87.6059L725.111 80.1556L728.965 87.6059ZM638.079 87.6059L641.933 80.1556L638.079 87.6059ZM676.778 107.623L680.632 100.172L676.778 107.623ZM690.266 107.623L686.412 100.172L690.266 107.623ZM676.778 107.623L680.632 100.172L641.933 80.1556L638.079 87.6059L634.226 95.0562L672.925 115.073L676.778 107.623ZM630.144 74.5679H638.532V22.0183H630.144H621.756V74.5679H630.144ZM644.823 7.33945V15.7274H722.221V7.33945V-1.0485H644.823V7.33945ZM736.9 22.0183H728.512V74.5679H736.9H745.288V22.0183H736.9ZM728.965 87.6059L725.111 80.1556L686.412 100.172L690.266 107.623L694.12 115.073L732.819 95.0562L728.965 87.6059ZM736.9 74.5679H728.512C728.512 76.9197 727.2 79.0751 725.111 80.1556L728.965 87.6059L732.819 95.0562C740.478 91.0944 745.288 83.1912 745.288 74.5679H736.9ZM722.221 7.33945V15.7274C725.696 15.7274 728.512 18.544 728.512 22.0183H736.9H745.288C745.288 9.27888 734.961 -1.0485 722.221 -1.0485V7.33945ZM630.144 22.0183H638.532C638.532 18.5439 641.349 15.7274 644.823 15.7274V7.33945V-1.0485C632.084 -1.0485 621.756 9.27888 621.756 22.0183H630.144ZM638.079 87.6059L641.933 80.1556C639.844 79.0751 638.532 76.9197 638.532 74.5679H630.144H621.756C621.756 83.1912 626.566 91.0945 634.226 95.0562L638.079 87.6059ZM676.778 107.623L672.925 115.073C679.571 118.511 687.473 118.511 694.12 115.073L690.266 107.623L686.412 100.172C684.6 101.11 682.445 101.11 680.632 100.172L676.778 107.623Z" fill="white" mask="url(#path-14-inside-3_8_76)"/>
</g>
<text id="score_3" fill="white" xml:space="preserve" style="white-space: pre" font-family="Arial Rounded MT Bold" font-size="48.2307" letter-spacing="0em"><tspan x="654.26" y="68.7812">*sc*</tspan></text>
</g>
</g>
<defs>
<filter id="filter0_d_8_76" x="0" y="90.291" width="808.388" height="92.3879" filterUnits="userSpaceOnUse" color-interpolation-filters="sRGB">
<feFlood flood-opacity="0" result="BackgroundImageFix"/>
<feColorMatrix in="SourceAlpha" type="matrix" values="0 0 0 0 0 0 0 0 0 0 0 0 0 0 0 0 0 0 127 0" result="hardAlpha"/>
<feOffset dy="3.14548"/>
<feGaussianBlur stdDeviation="2.09699"/>
<feComposite in2="hardAlpha" operator="out"/>
<feColorMatrix type="matrix" values="0 0 0 0 0 0 0 0 0 0 0 0 0 0 0 0 0 0 0.12 0"/>
<feBlend mode="normal" in2="BackgroundImageFix" result="effect1_dropShadow_8_76"/>
<feBlend mode="normal" in="SourceGraphic" in2="effect1_dropShadow_8_76" result="shape"/>
</filter>
<filter id="filter1_d_8_76" x="146.789" y="-1.90735e-06" width="131.92" height="127.088" filterUnits="userSpaceOnUse" color-interpolation-filters="sRGB">
<feFlood flood-opacity="0" result="BackgroundImageFix"/>
<feColorMatrix in="SourceAlpha" type="matrix" values="0 0 0 0 0 0 0 0 0 0 0 0 0 0 0 0 0 0 127 0" result="hardAlpha"/>
<feOffset dy="5.24246"/>
<feGaussianBlur stdDeviation="6.29096"/>
<feComposite in2="hardAlpha" operator="out"/>
<feColorMatrix type="matrix" values="0 0 0 0 0 0 0 0 0 0 0 0 0 0 0 0 0 0 0.2 0"/>
<feBlend mode="normal" in2="BackgroundImageFix" result="effect1_dropShadow_8_76"/>
<feBlend mode="normal" in="SourceGraphic" in2="effect1_dropShadow_8_76" result="shape"/>
</filter>
<filter id="filter2_d_8_76" x="425.688" y="-1.90735e-06" width="131.92" height="127.088" filterUnits="userSpaceOnUse" color-interpolation-filters="sRGB">
<feFlood flood-opacity="0" result="BackgroundImageFix"/>
<feColorMatrix in="SourceAlpha" type="matrix" values="0 0 0 0 0 0 0 0 0 0 0 0 0 0 0 0 0 0 127 0" result="hardAlpha"/>
<feOffset dy="5.24246"/>
<feGaussianBlur stdDeviation="6.29096"/>
<feComposite in2="hardAlpha" operator="out"/>
<feColorMatrix type="matrix" values="0 0 0 0 0 0 0 0 0 0 0 0 0 0 0 0 0 0 0.2 0"/>
<feBlend mode="normal" in2="BackgroundImageFix" result="effect1_dropShadow_8_76"/>
<feBlend mode="normal" in="SourceGraphic" in2="effect1_dropShadow_8_76" result="shape"/>
</filter>
<filter id="filter3_d_8_76" x="617.562" y="-1.90735e-06" width="131.92" height="127.088" filterUnits="userSpaceOnUse" color-interpolation-filters="sRGB">
<feFlood flood-opacity="0" result="BackgroundImageFix"/>
<feColorMatrix in="SourceAlpha" type="matrix" values="0 0 0 0 0 0 0 0 0 0 0 0 0 0 0 0 0 0 127 0" result="hardAlpha"/>
<feOffset dy="5.24246"/>
<feGaussianBlur stdDeviation="6.29096"/>
<feComposite in2="hardAlpha" operator="out"/>
<feColorMatrix type="matrix" values="0 0 0 0 0 0 0 0 0 0 0 0 0 0 0 0 0 0 0.2 0"/>
<feBlend mode="normal" in2="BackgroundImageFix" result="effect1_dropShadow_8_76"/>
<feBlend mode="normal" in="SourceGraphic" in2="effect1_dropShadow_8_76" result="shape"/>
</filter>
</defs>
</svg>
